SplineFontDB: 3.0
FontName: Gandom-Bold
FullName: Gandom Bold
FamilyName: Gandom
Weight: Bold
Copyright: Copyright (c) 2003 by Bitstream, Inc. All Rights Reserved.\nDejaVu changes are in public domain\nCopyright (c) 2015 by Saber Rastikerdar. All Rights Reserved.
Version: 0.1.2
ItalicAngle: 0
UnderlinePosition: -100
UnderlineWidth: 100
Ascent: 1536
Descent: 512
LayerCount: 2
Layer: 0 1 "Back"  1
Layer: 1 1 "Fore"  0
XUID: [1021 502 1027637223 13483023]
UniqueID: 4117747
UseUniqueID: 1
FSType: 0
OS2Version: 1
OS2_WeightWidthSlopeOnly: 0
OS2_UseTypoMetrics: 1
CreationTime: 1431850356
ModificationTime: 1448521425
PfmFamily: 17
TTFWeight: 700
TTFWidth: 5
LineGap: 0
VLineGap: 0
Panose: 2 11 6 3 3 8 4 2 2 4
OS2TypoAscent: 2000
OS2TypoAOffset: 0
OS2TypoDescent: -1000
OS2TypoDOffset: 0
OS2TypoLinegap: 0
OS2WinAscent: 2000
OS2WinAOffset: 0
OS2WinDescent: 1000
OS2WinDOffset: 0
HheadAscent: 2000
HheadAOffset: 0
HheadDescent: -1000
HheadDOffset: 0
OS2SubXSize: 1331
OS2SubYSize: 1433
OS2SubXOff: 0
OS2SubYOff: 286
OS2SupXSize: 1331
OS2SupYSize: 1433
OS2SupXOff: 0
OS2SupYOff: 983
OS2StrikeYSize: 102
OS2StrikeYPos: 530
OS2Vendor: 'PfEd'
OS2CodePages: 600001ff.dfff0000
Lookup: 1 0 0 "'case' Case-Sensitive Forms in Latin lookup 0"  {"'case' Case-Sensitive Forms in Latin lookup 0 subtable"  } ['case' ('DFLT' <'dflt' > 'latn' <'CAT ' 'ESP ' 'GAL ' 'dflt' > ) ]
Lookup: 6 1 0 "'ccmp' Glyph Composition/Decomposition lookup 2"  {"'ccmp' Glyph Composition/Decomposition lookup 2 subtable"  } ['ccmp' ('arab' <'KUR ' 'SND ' 'URD ' 'dflt' > 'hebr' <'dflt' > 'nko ' <'dflt' > ) ]
Lookup: 6 0 0 "'ccmp' Glyph Composition/Decomposition lookup 3"  {"'ccmp' Glyph Composition/Decomposition lookup 3 subtable"  } ['ccmp' ('cyrl' <'MKD ' 'SRB ' 'dflt' > 'grek' <'dflt' > 'latn' <'ISM ' 'KSM ' 'LSM ' 'MOL ' 'NSM ' 'ROM ' 'SKS ' 'SSM ' 'dflt' > ) ]

StartChar: afii57388
Encoding: 1548 1548 2
Width: 664
GlyphClass: 2
Flags: W
LayerCount: 2
Fore
SplineSet
363.19 343.883 m 1,0,1
 440.551 339.992 440.551 339.992 471.298 324.002 c 0,2,3
 522.258 296.5 522.258 296.5 522.258 248.32 c 2,4,-1
 522.258 91.65 l 2,5,6
 522.258 -0.859821 522.258 -0.859821 439.357 -0.859821 c 2,7,-1
 273.147 -0.859821 l 1,8,9
 185.327 4.98485 185.327 4.98485 185.327 88.8805 c 2,10,-1
 185.327 256.671 l 1,11,-1
 185.543 259.014 l 2,12,13
 206.199 483.07 206.199 483.07 412.729 658.69 c 2,14,-1
 438.406 680.524 l 1,15,-1
 564.269 606.099 l 1,16,17
 414.182 518.003 414.182 518.003 363.19 343.883 c 1,0,1
EndSplineSet
EndChar

StartChar: uni0615
Encoding: 1557 1557 3
Width: 0
GlyphClass: 4
Flags: W
LayerCount: 2
Fore
SplineSet
466.096 1456.96 m 1,0,-1
 552.12 1456.96 l 2,1,2
 639.138 1456.96 639.138 1456.96 665.862 1472.75 c 0,3,4
 697.288 1492.32 697.288 1492.32 713.059 1508.3 c 128,-1,5
 728.83 1524.27 728.83 1524.27 728.83 1541.65 c 0,6,7
 728.83 1583.09 728.83 1583.09 689.03 1604.94 c 1,8,9
 681.399 1607.6 681.399 1607.6 672.751 1605.46 c 128,-1,10
 664.102 1603.31 664.102 1603.31 640.309 1592.64 c 128,-1,11
 616.515 1581.97 616.515 1581.97 601.865 1576.19 c 0,12,13
 543.049 1552.44 543.049 1552.44 483.147 1478.12 c 2,14,-1
 466.096 1456.96 l 1,0,-1
576.73 1374.89 m 2,15,-1
 282.64 1374.89 l 1,16,-1
 282.64 1456.96 l 1,17,-1
 369.31 1456.96 l 1,18,-1
 369.31 1883.89 l 1,19,-1
 452.45 1883.89 l 1,20,-1
 452.45 1497.67 l 1,21,-1
 477.109 1547.67 l 2,22,23
 513.381 1621.22 513.381 1621.22 619.878 1662.18 c 0,24,25
 682.718 1686.12 682.718 1686.12 752.956 1660.03 c 0,26,27
 814.11 1636.51 814.11 1636.51 814.11 1557.7 c 0,28,29
 814.11 1466.67 814.11 1466.67 750.648 1417.09 c 0,30,31
 696.384 1374.89 696.384 1374.89 576.73 1374.89 c 2,15,-1
EndSplineSet
EndChar

StartChar: uni061B
Encoding: 1563 1563 4
Width: 654
GlyphClass: 2
Flags: W
LayerCount: 2
Fore
SplineSet
341.19 778.883 m 1,0,1
 418.551 774.992 418.551 774.992 449.298 759.002 c 0,2,3
 500.258 731.5 500.258 731.5 500.258 683.32 c 2,4,-1
 500.258 526.65 l 2,5,6
 500.258 434.141 500.258 434.141 417.357 434.141 c 2,7,-1
 251.147 434.141 l 1,8,9
 163.327 439.985 163.327 439.985 163.327 523.881 c 2,10,-1
 163.327 691.672 l 1,11,-1
 163.543 694.015 l 2,12,13
 184.199 918.071 184.199 918.071 390.729 1093.69 c 2,14,-1
 416.406 1115.53 l 1,15,-1
 542.269 1041.1 l 1,16,17
 392.182 953.003 392.182 953.003 341.19 778.883 c 1,0,1
480 244 m 2,18,-1
 480 57 l 2,19,20
 480 0 480 0 431 0 c 2,21,-1
 238 0 l 2,22,23
 187 0 187 0 187 55 c 2,24,-1
 187 244 l 2,25,26
 187 300 187 300 237 300 c 2,27,-1
 434 300 l 2,28,29
 480 300 480 300 480 244 c 2,18,-1
EndSplineSet
EndChar

StartChar: uni061F
Encoding: 1567 1567 5
Width: 1087
GlyphClass: 2
Flags: W
LayerCount: 2
Fore
SplineSet
746 244 m 2,0,-1
 746 57 l 2,1,2
 746 0 746 0 697 0 c 2,3,-1
 504 0 l 2,4,5
 453 0 453 0 453 55 c 2,6,-1
 453 244 l 2,7,8
 453 300 453 300 503 300 c 2,9,-1
 700 300 l 2,10,11
 746 300 746 300 746 244 c 2,0,-1
452 430 m 1,12,-1
 452 467 l 2,13,14
 452 516.46 452 516.46 449.253 543.926 c 0,15,16
 446.801 568.448 446.801 568.448 442.188 585.189 c 0,17,18
 436.52 602.116 436.52 602.116 422.424 621.272 c 0,19,20
 402.581 648.236 402.581 648.236 361.354 688.525 c 2,21,-1
 273.558 774.326 l 1,22,23
 177.735 865.89 177.735 865.89 137.854 941.774 c 0,24,25
 96 1021.42 96 1021.42 96 1110 c 0,26,27
 96 1292.23 96 1292.23 225.026 1404.48 c 0,28,29
 350.915 1514 350.915 1514 554 1514 c 0,30,31
 664.259 1514 664.259 1514 767.712 1483.98 c 0,32,33
 870.698 1454.09 870.698 1454.09 970.443 1393.61 c 2,34,-1
 1010.65 1369.23 l 1,35,-1
 895.223 1138.54 l 1,36,-1
 849.069 1163.06 l 2,37,38
 690.881 1247.12 690.881 1247.12 588.78 1248 c 0,39,40
 499.57 1248 499.57 1248 448.296 1204.94 c 0,41,42
 401 1165.23 401 1165.23 401 1100 c 0,43,44
 401 1063.94 401 1063.94 420.327 1028.32 c 0,45,46
 441.846 988.662 441.846 988.662 493.303 940.814 c 1,47,-1
 583.538 851.582 l 1,48,49
 680.895 758.332 680.895 758.332 712.839 684.177 c 0,50,51
 745 609.521 745 609.521 745 498 c 2,52,-1
 745 430 l 1,53,-1
 452 430 l 1,12,-1
EndSplineSet
EndChar

StartChar: uni0621
Encoding: 1569 1569 6
Width: 775
VWidth: 2340
GlyphClass: 2
Flags: W
AnchorPoint: "Anchor-7" 356.254 -182.511 basechar 0
AnchorPoint: "Anchor-10" 305.904 1080.48 basechar 0
LayerCount: 2
Fore
SplineSet
24.5352 -32.4697 m 1,0,-1
 24.5352 197.542 l 1,1,-1
 61.8301 207.947 l 2,2,3
 139.111 229.508 139.111 229.508 183.827 244.653 c 0,4,5
 187.763 245.986 187.763 245.986 192.019 247.519 c 1,6,7
 111.8 286.524 111.8 286.524 70.0742 355.67 c 128,-1,8
 28.3477 424.816 28.3477 424.816 28.3477 516.469 c 0,9,10
 28.3477 614.632 28.3477 614.632 68.46 691.331 c 128,-1,11
 108.572 768.03 108.572 768.03 186.589 816.104 c 0,12,13
 338.181 909.515 338.181 909.515 565.524 859.205 c 2,14,-1
 605.505 850.357 l 1,15,-1
 605.505 605.028 l 1,16,-1
 540.65 623.335 l 2,17,18
 466.396 644.296 466.396 644.296 414.638 642.816 c 0,19,20
 376.369 642.098 376.369 642.098 337.64 622.733 c 0,21,22
 301.969 604.898 301.969 604.898 286.074 578.182 c 128,-1,23
 270.179 551.464 270.179 551.464 270.179 507.566 c 0,24,25
 270.179 458.033 270.179 458.033 298.094 430.524 c 128,-1,26
 326.008 403.016 326.008 403.016 397.519 390.77 c 1,27,28
 416.217 388.632 416.217 388.632 507.849 394.092 c 0,29,30
 554.046 396.63 554.046 396.63 603.409 423.799 c 2,31,-1
 679.001 465.404 l 1,32,-1
 679.001 215.973 l 1,33,-1
 655.476 200.93 l 2,34,35
 568.348 145.217 568.348 145.217 385.344 73.8008 c 0,36,37
 188.771 -2.79102 188.771 -2.79102 84.6045 -21.6152 c 2,38,-1
 24.5352 -32.4697 l 1,0,-1
EndSplineSet
EndChar

StartChar: uni0627
Encoding: 1575 1575 12
Width: 482
VWidth: 2318
GlyphClass: 2
Flags: W
AnchorPoint: "Anchor-10" 201.033 1488.03 basechar 0
AnchorPoint: "Anchor-7" 208.453 -188.144 basechar 0
LayerCount: 2
Fore
SplineSet
243.271 1411.29 m 2,0,-1
 335.18 1458.87 l 1,1,-1
 335.18 285 l 2,2,3
 335.18 43.4258 335.18 43.4258 139.24 1.87988 c 1,4,-1
 85.4248 1010.09 l 2,5,6
 68.8302 1320.98 68.8302 1320.98 243.271 1411.29 c 2,0,-1
EndSplineSet
Substitution2: "'fina' Terminal Forms in Arabic lookup 9 subtable" uniFE8E
EndChar

StartChar: uni062D
Encoding: 1581 1581 18
Width: 1427
VWidth: 2342
GlyphClass: 2
Flags: W
AnchorPoint: "Anchor-10" 525.88 1323.22 basechar 0
AnchorPoint: "Anchor-7" 369.835 -744.086 basechar 0
LayerCount: 2
Fore
SplineSet
1314.6 832.068 m 1,0,-1
 1276.76 598.808 l 1,1,-1
 1240.2 593.107 l 2,2,3
 705.114 509.677 705.114 509.677 458.849 319.648 c 0,4,5
 283.151 183.394 283.151 183.394 286.726 -34.7051 c 0,6,7
 289.604 -206.867 289.604 -206.867 433 -301.725 c 0,8,9
 567.136 -389.759 567.136 -389.759 889.205 -359.919 c 0,10,11
 1107.19 -339.722 1107.19 -339.722 1243.54 -241.438 c 2,12,-1
 1335.15 -175.404 l 1,13,14
 1335.15 -175.479 1335.15 -175.479 1324.12 -287.793 c 2,15,-1
 1321.38 -315.709 l 2,16,17
 1309.17 -440.063 1309.17 -440.063 1221.04 -519.241 c 0,18,19
 1135.44 -596.152 1135.44 -596.152 982.207 -629.618 c 0,20,21
 897.283 -648.166 897.283 -648.166 805.584 -651.688 c 0,22,23
 656.063 -657.434 656.063 -657.434 539.246 -635.059 c 0,24,25
 318.969 -591.434 318.969 -591.434 192.557 -463.718 c 128,-1,26
 66.1445 -336.002 66.1445 -336.002 43.8193 -131.283 c 0,27,28
 21.1699 80.1904 21.1699 80.1904 103.168 250.063 c 128,-1,29
 185.165 419.937 185.165 419.937 367.505 540.537 c 0,30,31
 552.465 662.872 552.465 662.872 816.741 728.064 c 1,32,33
 806.559 733.185 806.559 733.185 796.802 738.247 c 0,34,35
 655.003 812.311 655.003 812.311 562.375 804.509 c 0,36,37
 465.72 796.363 465.72 796.363 388.015 642.645 c 6,38,-1
 372.949 612.842 l 1,39,-1
 325.829 615.517 l 2,40,41
 234.962 620.675 234.962 620.675 278.961 811.247 c 0,42,43
 289.93 858.757 289.93 858.757 308.792 897.736 c 0,44,45
 345.376 973.339 345.376 973.339 408.861 1014.83 c 128,-1,46
 472.347 1056.32 472.347 1056.32 555.224 1058.47 c 0,47,48
 697.23 1062.92 697.23 1062.92 945.296 921.044 c 0,49,50
 1050.06 861.137 1050.06 861.137 1261.23 837.933 c 2,51,-1
 1314.6 832.068 l 1,0,-1
EndSplineSet
Substitution2: "'fina' Terminal Forms in Arabic lookup 9 subtable" uniFEA2
Substitution2: "'medi' Medial Forms in Arabic lookup 11 subtable" uniFEA4
Substitution2: "'init' Initial Forms in Arabic lookup 13 subtable" uniFEA3
EndChar

StartChar: uni062F
Encoding: 1583 1583 20
Width: 971
VWidth: 2336
GlyphClass: 2
Flags: W
AnchorPoint: "Anchor-10" 235.131 1194.75 basechar 0
AnchorPoint: "Anchor-7" 287.202 -195.157 basechar 0
LayerCount: 2
Fore
SplineSet
821.905 161.948 m 0,0,1
 657.502 -37.6689 657.502 -37.6689 322.067 -28.6826 c 0,2,3
 302.2 -28.2109 302.2 -28.2109 282.655 -27.0303 c 0,4,5
 154.872 -19.3154 154.872 -19.3154 82.0498 47.1611 c 128,-1,6
 9.22754 113.638 9.22754 113.638 9.22754 229.825 c 2,7,-1
 9.22754 334.723 l 1,8,-1
 80.2334 304.442 l 2,9,10
 191.559 256.968 191.559 256.968 334.904 254.553 c 0,11,12
 500.371 251.188 500.371 251.188 616.625 307.561 c 1,13,14
 650.773 325.233 650.773 325.233 648.207 333.04 c 0,15,16
 647.114 338.799 647.114 338.799 646.013 341.917 c 2,17,-1
 502.287 568.594 l 2,18,19
 482.767 599.381 482.767 599.381 467.621 627.793 c 0,20,21
 430.364 697.686 430.364 697.686 418.978 758.704 c 128,-1,22
 407.591 819.724 407.591 819.724 428.553 872.536 c 128,-1,23
 449.515 925.349 449.515 925.349 506.603 955.659 c 2,24,-1
 572.462 990.63 l 1,25,-1
 843.713 457.041 l 1,26,27
 885.895 370.163 885.895 370.163 876.825 293.508 c 0,28,29
 867.718 216.568 867.718 216.568 821.905 161.948 c 0,0,1
EndSplineSet
Substitution2: "'fina' Terminal Forms in Arabic lookup 9 subtable" uniFEAA
EndChar

StartChar: uni0631
Encoding: 1585 1585 22
Width: 925
VWidth: 2365
GlyphClass: 2
Flags: W
AnchorPoint: "Anchor-7" 534.396 -620.688 basechar 0
AnchorPoint: "Anchor-10" 447.274 1047.23 basechar 0
LayerCount: 2
Fore
SplineSet
815.91 100.983 m 0,0,1
 773.621 -151.447 773.621 -151.447 640.461 -289.04 c 128,-1,2
 507.302 -426.632 507.302 -426.632 289.956 -434.963 c 0,3,4
 113.292 -441.744 113.292 -441.744 -29.5947 -307.579 c 2,5,-1
 -110.042 -232.044 l 1,6,-1
 0.351562 -219.637 l 2,7,8
 167.923 -200.714 167.923 -200.714 288.266 -165.456 c 128,-1,9
 408.608 -130.198 408.608 -130.198 479.899 -80.0322 c 128,-1,10
 551.191 -29.8672 551.191 -29.8672 581.941 31.709 c 128,-1,11
 612.692 93.2842 612.692 93.2842 606.729 169.198 c 0,12,13
 603.344 212.365 603.344 212.365 562.396 313.763 c 1,14,15
 518.045 418.321 518.045 418.321 533.082 511.478 c 128,-1,16
 548.119 604.634 548.119 604.634 625.781 663.794 c 2,17,-1
 718.603 734.503 l 1,18,-1
 742.218 669.184 l 2,19,20
 857.598 350.016 857.598 350.016 815.91 100.983 c 0,0,1
EndSplineSet
PairPos2: "'kern' Horizontal Kerning lookup 15-1" uni06CC dx=-141 dy=0 dh=-141 dv=0 dx=0 dy=0 dh=0 dv=0
PairPos2: "'kern' Horizontal Kerning lookup 15-1" uniFEEB dx=-213 dy=0 dh=-213 dv=0 dx=0 dy=0 dh=0 dv=0
PairPos2: "'kern' Horizontal Kerning lookup 15-1" uniFB7C dx=-141 dy=0 dh=-141 dv=0 dx=0 dy=0 dh=0 dv=0
PairPos2: "'kern' Horizontal Kerning lookup 15-1" uniFB58 dx=71 dy=0 dh=71 dv=0 dx=0 dy=0 dh=0 dv=0
PairPos2: "'kern' Horizontal Kerning lookup 15-1" uniFEF3 dx=99 dy=0 dh=99 dv=0 dx=0 dy=0 dh=0 dv=0
PairPos2: "'kern' Horizontal Kerning lookup 15-1" uniFBFE dx=99 dy=0 dh=99 dv=0 dx=0 dy=0 dh=0 dv=0
PairPos2: "'kern' Horizontal Kerning lookup 15-1" uniFEDF dx=-213 dy=0 dh=-213 dv=0 dx=0 dy=0 dh=0 dv=0
PairPos2: "'kern' Horizontal Kerning lookup 15-1" uniFB90 dx=-213 dy=0 dh=-213 dv=0 dx=0 dy=0 dh=0 dv=0
PairPos2: "'kern' Horizontal Kerning lookup 15-1" uni06A9 dx=-213 dy=0 dh=-213 dv=0 dx=0 dy=0 dh=0 dv=0
PairPos2: "'kern' Horizontal Kerning lookup 15-1" uni0649 dx=-141 dy=0 dh=-141 dv=0 dx=0 dy=0 dh=0 dv=0
PairPos2: "'kern' Horizontal Kerning lookup 15-1" uni0647 dx=-213 dy=0 dh=-213 dv=0 dx=0 dy=0 dh=0 dv=0
PairPos2: "'kern' Horizontal Kerning lookup 15-1" uniFEE7 dx=-213 dy=0 dh=-213 dv=0 dx=0 dy=0 dh=0 dv=0
PairPos2: "'kern' Horizontal Kerning lookup 15-1" uniFEE3 dx=-213 dy=0 dh=-213 dv=0 dx=0 dy=0 dh=0 dv=0
PairPos2: "'kern' Horizontal Kerning lookup 15-1" uni0645 dx=-213 dy=0 dh=-213 dv=0 dx=0 dy=0 dh=0 dv=0
PairPos2: "'kern' Horizontal Kerning lookup 15-1" uni0644 dx=-141 dy=0 dh=-141 dv=0 dx=0 dy=0 dh=0 dv=0
PairPos2: "'kern' Horizontal Kerning lookup 15-1" uniFEDB dx=-213 dy=0 dh=-213 dv=0 dx=0 dy=0 dh=0 dv=0
PairPos2: "'kern' Horizontal Kerning lookup 15-1" uniFED7 dx=-213 dy=0 dh=-213 dv=0 dx=0 dy=0 dh=0 dv=0
PairPos2: "'kern' Horizontal Kerning lookup 15-1" uni0642 dx=-141 dy=0 dh=-141 dv=0 dx=0 dy=0 dh=0 dv=0
PairPos2: "'kern' Horizontal Kerning lookup 15-1" uniFED3 dx=-213 dy=0 dh=-213 dv=0 dx=0 dy=0 dh=0 dv=0
PairPos2: "'kern' Horizontal Kerning lookup 15-1" uni0641 dx=-213 dy=0 dh=-213 dv=0 dx=0 dy=0 dh=0 dv=0
PairPos2: "'kern' Horizontal Kerning lookup 15-1" uniFECF dx=-213 dy=0 dh=-213 dv=0 dx=0 dy=0 dh=0 dv=0
PairPos2: "'kern' Horizontal Kerning lookup 15-1" uniFECB dx=-213 dy=0 dh=-213 dv=0 dx=0 dy=0 dh=0 dv=0
PairPos2: "'kern' Horizontal Kerning lookup 15-1" uniFEC7 dx=-213 dy=0 dh=-213 dv=0 dx=0 dy=0 dh=0 dv=0
PairPos2: "'kern' Horizontal Kerning lookup 15-1" uni0638 dx=-213 dy=0 dh=-213 dv=0 dx=0 dy=0 dh=0 dv=0
PairPos2: "'kern' Horizontal Kerning lookup 15-1" uniFEC3 dx=-213 dy=0 dh=-213 dv=0 dx=0 dy=0 dh=0 dv=0
PairPos2: "'kern' Horizontal Kerning lookup 15-1" uni0637 dx=-213 dy=0 dh=-213 dv=0 dx=0 dy=0 dh=0 dv=0
PairPos2: "'kern' Horizontal Kerning lookup 15-1" uniFEBF dx=-213 dy=0 dh=-213 dv=0 dx=0 dy=0 dh=0 dv=0
PairPos2: "'kern' Horizontal Kerning lookup 15-1" uni0636 dx=-213 dy=0 dh=-213 dv=0 dx=0 dy=0 dh=0 dv=0
PairPos2: "'kern' Horizontal Kerning lookup 15-1" uniFEBB dx=-213 dy=0 dh=-213 dv=0 dx=0 dy=0 dh=0 dv=0
PairPos2: "'kern' Horizontal Kerning lookup 15-1" uni0635 dx=-213 dy=0 dh=-213 dv=0 dx=0 dy=0 dh=0 dv=0
PairPos2: "'kern' Horizontal Kerning lookup 15-1" uniFEB7 dx=-213 dy=0 dh=-213 dv=0 dx=0 dy=0 dh=0 dv=0
PairPos2: "'kern' Horizontal Kerning lookup 15-1" uni0634 dx=-213 dy=0 dh=-213 dv=0 dx=0 dy=0 dh=0 dv=0
PairPos2: "'kern' Horizontal Kerning lookup 15-1" uniFEB3 dx=-213 dy=0 dh=-213 dv=0 dx=0 dy=0 dh=0 dv=0
PairPos2: "'kern' Horizontal Kerning lookup 15-1" uni0633 dx=-213 dy=0 dh=-213 dv=0 dx=0 dy=0 dh=0 dv=0
PairPos2: "'kern' Horizontal Kerning lookup 15-1" uni0630 dx=-213 dy=0 dh=-213 dv=0 dx=0 dy=0 dh=0 dv=0
PairPos2: "'kern' Horizontal Kerning lookup 15-1" uni062F dx=-213 dy=0 dh=-213 dv=0 dx=0 dy=0 dh=0 dv=0
PairPos2: "'kern' Horizontal Kerning lookup 15-1" uniFEA7 dx=-213 dy=0 dh=-213 dv=0 dx=0 dy=0 dh=0 dv=0
PairPos2: "'kern' Horizontal Kerning lookup 15-1" uniFEA3 dx=-213 dy=0 dh=-213 dv=0 dx=0 dy=0 dh=0 dv=0
PairPos2: "'kern' Horizontal Kerning lookup 15-1" uniFE9F dx=-213 dy=0 dh=-213 dv=0 dx=0 dy=0 dh=0 dv=0
PairPos2: "'kern' Horizontal Kerning lookup 15-1" uniFE9B dx=-213 dy=0 dh=-213 dv=0 dx=0 dy=0 dh=0 dv=0
PairPos2: "'kern' Horizontal Kerning lookup 15-1" uni062B dx=-213 dy=0 dh=-213 dv=0 dx=0 dy=0 dh=0 dv=0
PairPos2: "'kern' Horizontal Kerning lookup 15-1" uniFE97 dx=-213 dy=0 dh=-213 dv=0 dx=0 dy=0 dh=0 dv=0
PairPos2: "'kern' Horizontal Kerning lookup 15-1" uni062A dx=-213 dy=0 dh=-213 dv=0 dx=0 dy=0 dh=0 dv=0
PairPos2: "'kern' Horizontal Kerning lookup 15-1" uni0629 dx=-99 dy=0 dh=-99 dv=0 dx=0 dy=0 dh=0 dv=0
PairPos2: "'kern' Horizontal Kerning lookup 15-1" uniFE91 dx=-99 dy=0 dh=-99 dv=0 dx=0 dy=0 dh=0 dv=0
PairPos2: "'kern' Horizontal Kerning lookup 15-1" uni0628 dx=-213 dy=0 dh=-213 dv=0 dx=0 dy=0 dh=0 dv=0
PairPos2: "'kern' Horizontal Kerning lookup 15-1" uni0627 dx=-241 dy=0 dh=-241 dv=0 dx=0 dy=0 dh=0 dv=0
PairPos2: "'kern' Horizontal Kerning lookup 15-1" uni0622 dx=-241 dy=0 dh=-241 dv=0 dx=0 dy=0 dh=0 dv=0
PairPos2: "'kern' Horizontal Kerning lookup 15-1" uniFB94 dx=-213 dy=0 dh=-213 dv=0 dx=0 dy=0 dh=0 dv=0
PairPos2: "'kern' Horizontal Kerning lookup 15-1" afii57509 dx=-213 dy=0 dh=-213 dv=0 dx=0 dy=0 dh=0 dv=0
PairPos2: "'kern' Horizontal Kerning lookup 15-1" uniFB56 dx=-213 dy=0 dh=-213 dv=0 dx=0 dy=0 dh=0 dv=0
PairPos2: "'kern' Horizontal Kerning lookup 15-1" afii57506 dx=-213 dy=0 dh=-213 dv=0 dx=0 dy=0 dh=0 dv=0
Substitution2: "'fina' Terminal Forms in Arabic lookup 9 subtable" uniFEAE
EndChar

StartChar: uni0633
Encoding: 1587 1587 24
Width: 2304
VWidth: 2341
GlyphClass: 2
Flags: W
AnchorPoint: "Anchor-7" 296.459 -659.369 basechar 0
AnchorPoint: "Anchor-10" 499.989 941.793 basechar 0
LayerCount: 2
Fore
SplineSet
1426.21 -0.966797 m 2,0,-1
 1383.75 -0.966797 l 2,1,2
 1344.05 -0.966797 1344.05 -0.966797 1308.75 12.6953 c 1,3,4
 1307.37 -10.5361 1307.37 -10.5361 1303.94 -33.2256 c 0,5,6
 1269.09 -263.243 1269.09 -263.243 1101.16 -382.704 c 128,-1,7
 933.234 -502.166 933.234 -502.166 649.018 -507.354 c 0,8,9
 257.938 -514.516 257.938 -514.516 102.784 -291.625 c 0,10,11
 -15.292 -120.636 -15.292 -120.636 45.4844 143.818 c 0,12,13
 58.6406 201.063 58.6406 201.063 97.6924 314.9 c 0,14,15
 119.551 378.614 119.551 378.614 161.79 416.648 c 128,-1,16
 204.03 454.683 204.03 454.683 262.996 454.686 c 2,17,-1
 353.793 454.692 l 1,18,-1
 324.393 384.083 l 2,19,20
 199.739 84.7207 199.739 84.7207 264.332 -53.6094 c 0,21,22
 308.657 -147.263 308.657 -147.263 400.496 -192.797 c 128,-1,23
 492.335 -238.331 492.335 -238.331 643 -235.812 c 0,24,25
 869.039 -232.03 869.039 -232.03 976.828 -161.176 c 128,-1,26
 1084.62 -90.3203 1084.62 -90.3203 1095.61 47.3418 c 0,27,28
 1101.41 120.533 1101.41 120.533 1085.02 194.564 c 0,29,30
 1075.27 238.6 1075.27 238.6 1057.61 283.143 c 0,31,32
 1027.83 358.781 1027.83 358.781 1020.63 421.611 c 128,-1,33
 1013.44 484.442 1013.44 484.442 1034.82 538 c 128,-1,34
 1056.21 591.559 1056.21 591.559 1109.66 621.728 c 2,35,-1
 1213.16 680.142 l 1,36,-1
 1226.43 610.321 l 2,37,38
 1269.47 383.957 1269.47 383.957 1292.04 336.187 c 0,39,40
 1295.72 328.406 1295.72 328.406 1299.79 321.582 c 0,41,42
 1316.2 294.043 1316.2 294.043 1337.13 282.444 c 128,-1,43
 1358.06 270.846 1358.06 270.846 1390.6 271.385 c 2,44,-1
 1429.52 272.03 l 1,45,46
 1466.46 271.599 1466.46 271.599 1490.24 295.806 c 128,-1,47
 1514.01 320.013 1514.01 320.013 1529.4 385.272 c 2,48,-1
 1543.42 444.73 l 2,49,50
 1560.66 517.822 1560.66 517.822 1601.06 562.802 c 128,-1,51
 1641.46 607.781 1641.46 607.781 1704.36 607.781 c 2,52,-1
 1772.11 607.781 l 1,53,-1
 1761.33 482.793 l 2,54,55
 1759.85 465.6 1759.85 465.6 1759.46 449.784 c 0,56,57
 1757.19 356.771 1757.19 356.771 1786.25 319.959 c 128,-1,58
 1815.3 283.147 1815.3 283.147 1883.46 281.532 c 0,59,60
 1969.79 279.422 1969.79 279.422 1991.12 322.289 c 1,61,62
 1987.24 347.033 1987.24 347.033 1970.46 408.849 c 0,63,64
 1927.49 567.224 1927.49 567.224 1926.32 576.645 c 0,65,66
 1915.3 666.191 1915.3 666.191 1946.8 734.562 c 128,-1,67
 1978.29 802.931 1978.29 802.931 2051.19 837.752 c 2,68,-1
 2118.7 870.004 l 1,69,70
 2121.72 860.905 2121.72 860.905 2127.78 842.519 c 128,-1,71
 2133.83 824.133 2133.83 824.133 2136.94 815.165 c 0,72,73
 2201.49 620.961 2201.49 620.961 2212.53 444.681 c 0,74,75
 2224.11 243.162 2224.11 243.162 2123.96 126.421 c 0,76,77
 2015.53 1.03418 2015.53 1.03418 1866.05 -0.44043 c 0,78,79
 1792.52 -1.07812 1792.52 -1.07812 1747.53 20.5059 c 0,80,81
 1681.5 52.1855 1681.5 52.1855 1637.76 109.384 c 1,82,83
 1560.97 -1.1582 1560.97 -1.1582 1426.21 -0.966797 c 2,0,-1
EndSplineSet
Substitution2: "'fina' Terminal Forms in Arabic lookup 9 subtable" uniFEB2
Substitution2: "'medi' Medial Forms in Arabic lookup 11 subtable" uniFEB4
Substitution2: "'init' Initial Forms in Arabic lookup 13 subtable" uniFEB3
EndChar

StartChar: uni0635
Encoding: 1589 1589 26
Width: 2455
VWidth: 2342
GlyphClass: 2
Flags: W
AnchorPoint: "Anchor-10" 388.398 943.124 basechar 0
AnchorPoint: "Anchor-7" 351.298 -697.756 basechar 0
LayerCount: 2
Fore
SplineSet
1603.13 281.099 m 1,0,-1
 1681.56 281.099 l 2,1,2
 1814.68 281.099 1814.68 281.099 1948.23 304.108 c 0,3,4
 2146.23 336.949 2146.23 336.949 2139.11 444.894 c 1,5,6
 2123.47 586.009 2123.47 586.009 2003.97 572.257 c 0,7,8
 1928.93 563.622 1928.93 563.622 1767.24 436.801 c 0,9,10
 1696.23 381.108 1696.23 381.108 1603.13 281.099 c 1,0,-1
1330.2 316.745 m 5,11,12
 1464.68 477.957 1464.68 477.957 1675.66 643.456 c 0,13,14
 1857.55 786.815 1857.55 786.815 1998.67 802.099 c 0,15,16
 2150.15 818.729 2150.15 818.729 2243.54 736.951 c 128,-1,17
 2336.94 655.173 2336.94 655.173 2359.69 491.488 c 0,18,19
 2378.24 358.07 2378.24 358.07 2321.91 254.959 c 128,-1,20
 2265.58 151.847 2265.58 151.847 2141.01 89.0986 c 0,21,22
 1961.58 -1.27781 1961.58 -1.27781 1742.68 -0.710938 c 2,23,-1
 1468.15 0 l 2,24,25
 1373.87 0.244153 1373.87 0.244153 1308.28 24.5107 c 1,26,27
 1307.32 -4.27832 1307.32 -4.27832 1302.94 -33.2256 c 0,28,29
 1268.09 -263.243 1268.09 -263.243 1100.16 -382.704 c 128,-1,30
 932.234 -502.166 932.234 -502.166 648.018 -507.354 c 0,31,32
 256.938 -514.516 256.938 -514.516 101.782 -291.623 c 0,33,34
 -16.292 -120.636 -16.292 -120.636 44.4844 143.818 c 0,35,36
 68.3799 247.794 68.3799 247.794 97.8604 317.977 c 0,37,38
 154.425 454.688 154.425 454.688 258 454.688 c 2,39,-1
 348.2 454.688 l 1,40,-1
 319.328 384.326 l 2,41,42
 197.48 87.3795 197.48 87.3795 263.332 -53.6094 c 0,43,44
 307.657 -147.263 307.657 -147.263 399.496 -192.797 c 128,-1,45
 491.335 -238.331 491.335 -238.331 642 -235.812 c 0,46,47
 868.039 -232.03 868.039 -232.03 975.828 -161.176 c 128,-1,48
 1083.62 -90.3203 1083.62 -90.3203 1094.61 47.3418 c 0,49,50
 1100.41 120.533 1100.41 120.533 1084.02 194.564 c 0,51,52
 1074.27 238.6 1074.27 238.6 1056.61 283.143 c 0,53,54
 1026.83 358.781 1026.83 358.781 1019.63 421.611 c 128,-1,55
 1012.44 484.442 1012.44 484.442 1033.82 538 c 128,-1,56
 1055.21 591.558 1055.21 591.558 1108.66 621.728 c 2,57,-1
 1212.15 680.142 l 1,58,-1
 1225.43 610.322 l 2,59,60
 1239.44 536.649 1239.44 536.649 1253.57 473.718 c 128,-1,61
 1267.66 410.95 1267.66 410.95 1276.24 379.399 c 0,62,63
 1297.36 311.536 1297.36 311.536 1330.2 316.745 c 5,11,12
EndSplineSet
Substitution2: "'fina' Terminal Forms in Arabic lookup 9 subtable" uniFEBA
Substitution2: "'medi' Medial Forms in Arabic lookup 11 subtable" uniFEBC
Substitution2: "'init' Initial Forms in Arabic lookup 13 subtable" uniFEBB
EndChar

StartChar: uni0637
Encoding: 1591 1591 28
Width: 1489
VWidth: 2342
GlyphClass: 2
Flags: W
AnchorPoint: "Anchor-10" 302.828 1473.61 basechar 0
AnchorPoint: "Anchor-7" 750.148 -266.606 basechar 0
LayerCount: 2
Fore
SplineSet
640.9 281.695 m 1,0,-1
 719.335 281.695 l 2,1,2
 852.447 281.695 852.447 281.695 986 304.705 c 0,3,4
 1184 337.546 1184 337.546 1176.88 445.49 c 1,5,6
 1161.24 586.605 1161.24 586.605 1041.74 572.854 c 0,7,8
 966.701 564.219 966.701 564.219 805.007 437.397 c 0,9,10
 734 381.705 734 381.705 640.9 281.695 c 1,0,-1
450.123 405.413 m 5,11,12
 580.51 540.062 580.51 540.062 713.51 644.117 c 0,13,14
 895.285 787.41 895.285 787.41 1036.48 802.7 c 0,15,16
 1187.91 819.325 1187.91 819.325 1281.31 737.542 c 128,-1,17
 1374.71 655.758 1374.71 655.758 1397.46 492.084 c 0,18,19
 1416.01 358.667 1416.01 358.667 1359.68 255.555 c 128,-1,20
 1303.34 152.443 1303.34 152.443 1178.78 89.6963 c 0,21,22
 999.368 -0.680569 999.368 -0.680569 781.008 -0.115234 c 2,23,-1
 506.032 0.59668 l 1,24,-1
 248.198 0.140625 l 2,25,26
 152.976 -0.0278023 152.976 -0.0278023 99.1807 58.3447 c 0,27,28
 45.6963 116.38 45.6963 116.38 45.6963 215 c 2,29,-1
 45.6963 280.949 l 1,30,-1
 248.794 280.983 l 1,31,-1
 188.457 1014.17 l 2,32,33
 164.487 1305.44 164.487 1305.44 355.317 1409.84 c 2,34,-1
 450.805 1462.08 l 1,35,-1
 450.123 405.413 l 5,11,12
EndSplineSet
Substitution2: "'fina' Terminal Forms in Arabic lookup 9 subtable" uniFEC2
Substitution2: "'medi' Medial Forms in Arabic lookup 11 subtable" uniFEC4
Substitution2: "'init' Initial Forms in Arabic lookup 13 subtable" uniFEC3
EndChar

StartChar: uni0639
Encoding: 1593 1593 30
Width: 1430
VWidth: 2338
GlyphClass: 2
Flags: W
AnchorPoint: "Anchor-10" 411.969 1533.94 basechar 0
AnchorPoint: "Anchor-7" 267.953 -761.751 basechar 0
LayerCount: 2
Fore
SplineSet
43.7285 -171.357 m 0,0,1
 8.73438 215.09 8.73438 215.09 304.286 457.205 c 1,2,3
 185.339 537.421 185.339 537.421 141.397 645.848 c 128,-1,4
 97.4561 754.274 97.4561 754.274 135.02 880.936 c 0,5,6
 172.831 1007.12 172.831 1007.12 258.075 1073.82 c 0,7,8
 425 1204 425 1204 669.876 1153.07 c 0,9,10
 759.554 1133.83 759.554 1133.83 807 1086 c 0,11,12
 869.552 1023.37 869.552 1023.37 849 897 c 2,13,-1
 839.117 836.231 l 1,14,-1
 815.623 852.744 l 2,15,16
 678.412 949.182 678.412 949.182 538.079 926.795 c 0,17,18
 388.457 903.153 388.457 903.153 372.188 789.242 c 0,19,20
 357.396 685.163 357.396 685.163 497.183 583.829 c 1,21,22
 622.684 612.211 622.684 612.211 872.308 651.368 c 0,23,24
 929.774 660.383 929.774 660.383 973.624 633.596 c 0,25,26
 1019.37 605.647 1019.37 605.647 1028.29 550.631 c 2,27,-1
 1048 429.001 l 1,28,-1
 1009.43 427.916 l 2,29,30
 639.823 417.519 639.823 417.519 459.797 278.607 c 0,31,32
 283.158 142.311 283.158 142.311 286.725 -75.6934 c 0,33,34
 289.724 -256.78 289.724 -256.78 427.16 -338.046 c 0,35,36
 553.656 -412.842 553.656 -412.842 849.311 -390.165 c 0,37,38
 1095.77 -371.261 1095.77 -371.261 1254.26 -255.513 c 2,39,-1
 1346.22 -188.352 l 1,40,-1
 1332.36 -329.596 l 2,41,42
 1318.3 -472.739 1318.3 -472.739 1206.75 -560.217 c 128,-1,43
 1095.2 -647.7 1095.2 -647.7 901.514 -679.567 c 1,44,45
 696.532 -711.891 696.532 -711.891 506.242 -670.853 c 0,46,47
 297.697 -625.851 297.697 -625.851 179.63 -498.935 c 128,-1,48
 61.5615 -372.02 61.5615 -372.02 43.7285 -171.357 c 0,0,1
EndSplineSet
Substitution2: "'fina' Terminal Forms in Arabic lookup 9 subtable" uniFECA
Substitution2: "'medi' Medial Forms in Arabic lookup 11 subtable" uniFECC
Substitution2: "'init' Initial Forms in Arabic lookup 13 subtable" uniFECB
EndChar

StartChar: afii57440
Encoding: 1600 1600 32
Width: 712
VWidth: 2357
GlyphClass: 2
Flags: W
AnchorPoint: "Anchor-10" 321 1396.9 basechar 0
AnchorPoint: "Anchor-7" 321 -77.5596 basechar 0
LayerCount: 2
Fore
SplineSet
-73.8643 -5.06934 m 1,0,-1
 -73.8643 276.049 l 1,1,-1
 715.864 276.049 l 1,2,-1
 715.864 -5.06934 l 1,3,-1
 -73.8643 -5.06934 l 1,0,-1
EndSplineSet
EndChar

StartChar: uni0643
Encoding: 1603 1603 35
Width: 1863
VWidth: 2318
GlyphClass: 2
Flags: W
AnchorPoint: "Anchor-10" 558.028 1484.98 basechar 0
AnchorPoint: "Anchor-7" 502.908 -230.096 basechar 0
LayerCount: 2
Fore
SplineSet
1621.79 146.606 m 0,0,1
 1497.85 57.6455 1497.85 57.6455 1334.98 29.792 c 0,2,3
 1155.96 -0.5625 1155.96 -0.5625 928.431 -0.5625 c 0,4,5
 703.798 -0.5625 703.798 -0.5625 558.068 17.1943 c 128,-1,6
 412.339 34.9512 412.339 34.9512 331.943 75.1914 c 0,7,8
 187.489 147.496 187.489 147.496 112.733 262.447 c 128,-1,9
 37.9785 377.397 37.9785 377.397 39.1709 528.089 c 0,10,11
 40.1952 657.517 40.1952 657.517 88.8604 796.892 c 2,12,-1
 107.994 851.69 l 1,13,-1
 168.817 821.18 l 2,14,15
 259.547 775.668 259.547 775.668 240.3 625.876 c 0,16,17
 232.742 567.075 232.742 567.075 234.312 526.553 c 0,18,19
 237.407 439.621 237.407 439.621 313.404 381.313 c 128,-1,20
 389.4 323.006 389.4 323.006 556.891 295.126 c 0,21,22
 643.623 280.688 643.623 280.688 906.379 279.999 c 1,23,24
 1074.24 277.945 1074.24 277.945 1182.85 287.719 c 0,25,26
 1281.13 296.38 1281.13 296.38 1353.66 314.078 c 128,-1,27
 1426.18 331.777 1426.18 331.777 1468.66 356.236 c 128,-1,28
 1511.13 380.694 1511.13 380.694 1532.15 408.435 c 128,-1,29
 1553.07 436.041 1553.07 436.041 1555.87 468.743 c 2,30,-1
 1559.7 513.401 l 1,31,-1
 1514.15 1061.18 l 6,32,33
 1503.99 1183.42 1503.99 1183.42 1547.62 1278.95 c 4,34,35
 1589.37 1370.37 1589.37 1370.37 1682.19 1415.98 c 6,36,-1
 1771.72 1459.97 l 5,37,-1
 1771.72 481.096 l 2,38,39
 1771.72 459.426 1771.72 459.426 1768.75 419.394 c 0,40,41
 1761.64 338.747 1761.64 338.747 1747.53 301.508 c 0,42,43
 1711.53 211.281 1711.53 211.281 1621.79 146.606 c 0,0,1
1147.88 1356.14 m 1,44,-1
 1147.88 1199.36 l 1,45,-1
 1100.63 1195.88 l 2,46,47
 1033.91 1190.96 1033.91 1190.96 1000 1178.47 c 0,48,49
 976.45 1169.63 976.45 1169.63 959.16 1159.34 c 128,-1,50
 941.871 1149.05 941.871 1149.05 936.402 1143.84 c 128,-1,51
 930.934 1138.64 930.934 1138.64 930.11 1136.65 c 0,52,53
 930.259 1116.96 930.259 1116.96 938.376 1105.56 c 1,54,55
 955.353 1094.83 955.353 1094.83 1009.45 1086.87 c 0,56,57
 1077.26 1076.9 1077.26 1076.9 1115.22 1042.23 c 0,58,59
 1157.71 1003.41 1157.71 1003.41 1157.71 938.469 c 0,60,61
 1157.71 874.454 1157.71 874.454 1126.33 822.91 c 128,-1,62
 1094.96 771.366 1094.96 771.366 1037.25 738.736 c 0,63,64
 952.785 690.97 952.785 690.97 839.449 689.918 c 0,65,66
 771.45 689.918 771.45 689.918 711.518 699.928 c 2,67,-1
 668.919 707.043 l 1,68,-1
 668.919 870.354 l 1,69,-1
 726.584 862.753 l 2,70,71
 787.673 854.701 787.673 854.701 829.004 854.701 c 0,72,73
 898.626 854.701 898.626 854.701 940.949 871.364 c 0,74,75
 997.84 893.213 997.84 893.213 997.84 915.785 c 0,76,77
 997.84 918.584 997.84 918.584 997.657 920.034 c 128,-1,78
 997.476 921.483 997.476 921.483 994.461 925.651 c 128,-1,79
 991.447 929.82 991.447 929.82 985.732 932.819 c 128,-1,80
 980.018 935.819 980.018 935.819 967.446 939.706 c 128,-1,81
 954.875 943.593 954.875 943.593 937.085 946.491 c 0,82,83
 860.277 958.195 860.277 958.195 815.762 1003.72 c 0,84,85
 768.093 1052.47 768.093 1052.47 769.871 1134.27 c 0,86,87
 771.192 1187.73 771.192 1187.73 798.679 1230.07 c 128,-1,88
 826.165 1272.41 826.165 1272.41 874.716 1297.01 c 0,89,90
 969.2 1344.81 969.2 1344.81 1093.65 1352.7 c 2,91,-1
 1147.88 1356.14 l 1,44,-1
EndSplineSet
Substitution2: "'fina' Terminal Forms in Arabic lookup 9 subtable" uniFEDA
Substitution2: "'medi' Medial Forms in Arabic lookup 11 subtable" uniFEDC
Substitution2: "'init' Initial Forms in Arabic lookup 13 subtable" uniFEDB
EndChar

StartChar: uni0644
Encoding: 1604 1604 36
Width: 1371
VWidth: 2330
GlyphClass: 2
Flags: W
AnchorPoint: "Anchor-10" 536.887 1059.06 basechar 0
AnchorPoint: "Anchor-7" 427.854 -646.884 basechar 0
LayerCount: 2
Fore
SplineSet
1276.63 130.484 m 4,0,1
 1250.28 -124.886 1250.28 -124.886 1096.33 -263.016 c 132,-1,2
 942.377 -401.146 942.377 -401.146 674.385 -411.958 c 4,3,4
 281.408 -427.837 281.408 -427.837 127.693 -209.047 c 4,5,6
 6.6377 -37.3828 6.6377 -37.3828 70.0439 255.081 c 4,7,8
 88.0781 338.268 88.0781 338.268 120.104 419.426 c 4,9,10
 172.267 551.621 172.267 551.621 276.649 558.494 c 6,11,-1
 364.36 564.269 l 5,12,-1
 333.205 488.588 l 6,13,14
 207.608 183.491 207.608 183.491 287.98 31.374 c 4,15,16
 331.467 -51.1709 331.467 -51.1709 412.85 -93.5078 c 132,-1,17
 494.233 -135.845 494.233 -135.845 622.048 -138.18 c 4,18,19
 855.841 -142.433 855.841 -142.433 965.293 -75.1465 c 132,-1,20
 1074.75 -7.85938 1074.75 -7.85938 1084.2 129.37 c 4,21,22
 1085.93 155.313 1085.93 155.313 1086.91 171.853 c 4,23,24
 1088.33 196.075 1088.33 196.075 1088.33 201.668 c 6,25,-1
 1088.33 203.443 l 5,26,-1
 1088.45 205.217 l 6,27,28
 1090.91 241.581 1090.91 241.581 1085.99 294.589 c 6,29,-1
 1022.83 975.13 l 6,30,31
 991.872 1308.69 991.872 1308.69 1178.05 1405.67 c 6,32,-1
 1279.83 1458.69 l 5,33,-1
 1279.83 522.488 l 6,34,35
 1279.83 161.483 1279.83 161.483 1276.63 130.484 c 4,0,1
EndSplineSet
Substitution2: "'fina' Terminal Forms in Arabic lookup 9 subtable" uniFEDE
Substitution2: "'medi' Medial Forms in Arabic lookup 11 subtable" uniFEE0
Substitution2: "'init' Initial Forms in Arabic lookup 13 subtable" uniFEDF
EndChar

StartChar: uni0645
Encoding: 1605 1605 37
Width: 1162
VWidth: 2359
GlyphClass: 2
Flags: W
AnchorPoint: "Anchor-10" 604.117 1114.54 basechar 0
AnchorPoint: "Anchor-7" 166.476 -662.894 basechar 0
LayerCount: 2
Fore
SplineSet
555.2 426.343 m 0,0,1
 678.025 420.203 678.025 420.203 689.877 420.033 c 0,2,3
 757.188 420.137 757.188 420.137 799.601 432.115 c 0,4,5
 809.297 434.814 809.297 434.814 819.863 460.729 c 0,6,7
 834.317 495.858 834.317 495.858 805.604 533.134 c 128,-1,8
 776.893 570.408 776.893 570.408 677.068 614.027 c 1,9,10
 629.38 633.21 629.38 633.21 603.546 628.681 c 128,-1,11
 577.712 624.152 577.712 624.152 554.669 596.701 c 1,12,13
 515.972 539.941 515.972 539.941 520.16 428.798 c 1,14,15
 535.091 427.271 535.091 427.271 555.2 426.343 c 0,0,1
420.507 160.096 m 0,16,17
 301.767 160.096 301.767 160.096 275.225 108.162 c 0,18,19
 240.782 40.4248 240.782 40.4248 254.965 -74.4229 c 2,20,-1
 281.057 -285.693 l 2,21,22
 294.936 -398.082 294.936 -398.082 261.109 -483.207 c 128,-1,23
 227.282 -568.331 227.282 -568.331 144.753 -615.248 c 2,24,-1
 40.9062 -674.283 l 1,25,-1
 40.9062 -31.6455 l 2,26,27
 40.9062 142.062 40.9062 142.062 100.622 255.721 c 0,28,29
 153.492 356.348 153.492 356.348 285.672 390.836 c 1,30,31
 282.772 642.878 282.772 642.878 409.073 780.101 c 0,32,33
 493.354 870.899 493.354 870.899 606.153 873.43 c 128,-1,34
 718.952 875.959 718.952 875.959 836.539 796.319 c 1,35,36
 969.564 708.689 969.564 708.689 1031.97 621.494 c 128,-1,37
 1094.38 534.3 1094.38 534.3 1070.57 443.229 c 0,38,39
 1042.01 330.809 1042.01 330.809 1010.58 267.521 c 128,-1,40
 979.162 204.234 979.162 204.234 927.918 180.946 c 0,41,42
 855.782 148.015 855.782 148.015 716.637 153.768 c 1,43,44
 527.893 160.096 527.893 160.096 420.507 160.096 c 0,16,17
EndSplineSet
Substitution2: "'init' Initial Forms in Arabic lookup 13 subtable" uniFEE3
Substitution2: "'medi' Medial Forms in Arabic lookup 11 subtable" uniFEE4
Substitution2: "'fina' Terminal Forms in Arabic lookup 9 subtable" uniFEE2
EndChar

StartChar: uni0647
Encoding: 1607 1607 39
Width: 900
VWidth: 2337
GlyphClass: 2
Flags: W
AnchorPoint: "Anchor-10" 372.637 1243.82 basechar 0
AnchorPoint: "Anchor-7" 276.113 -167.192 basechar 0
LayerCount: 2
Fore
SplineSet
268.422 381.456 m 4,0,1
 245.395 297.988 245.395 297.988 336.753 268.807 c 4,2,3
 420.923 241.361 420.923 241.361 506.697 265.657 c 4,4,5
 613.416 296.665 613.416 296.665 565.531 409.447 c 4,6,7
 523.902 508.52 523.902 508.52 421.739 603.143 c 5,8,9
 292.554 466.532 292.554 466.532 268.422 381.456 c 4,0,1
95.9189 541.117 m 4,10,11
 158.923 658.87 158.923 658.87 296.74 783.514 c 5,12,13
 288.451 816.891 288.451 816.891 298.114 849.154 c 132,-1,14
 307.777 881.417 307.777 881.417 332.953 929.42 c 6,15,-1
 367.338 994.982 l 5,16,-1
 416.006 952.721 l 6,17,18
 707.539 699.542 707.539 699.542 782.698 495.291 c 5,19,20
 830.424 370.529 830.424 370.529 809.895 261.246 c 132,-1,21
 789.365 151.963 789.365 151.963 699.634 75.8584 c 4,22,23
 607.974 -1.88281 607.974 -1.88281 431.876 -0.232422 c 4,24,25
 262.262 1.32031 262.262 1.32031 183.286 48.4531 c 4,26,27
 55.0645 123.152 55.0645 123.152 33.4922 241.183 c 4,28,29
 8.18848 377.151 8.18848 377.151 95.9189 541.117 c 4,10,11
EndSplineSet
Substitution2: "'fina' Terminal Forms in Arabic lookup 9 subtable" uniFEEA
Substitution2: "'medi' Medial Forms in Arabic lookup 11 subtable" uniFEEC
Substitution2: "'init' Initial Forms in Arabic lookup 13 subtable" uniFEEB
EndChar

StartChar: uni0648
Encoding: 1608 1608 40
Width: 900
VWidth: 2358
GlyphClass: 2
Flags: W
AnchorPoint: "Anchor-10" 414.024 1141.03 basechar 0
AnchorPoint: "Anchor-7" 335.608 -618.098 basechar 0
LayerCount: 2
Fore
SplineSet
483.334 528.746 m 0,0,1
 453.944 530.554 453.944 530.554 428.656 498.602 c 128,-1,2
 403.367 466.649 403.367 466.649 385.76 378.549 c 0,3,4
 380.668 353.485 380.668 353.485 380.5 333.325 c 0,5,6
 380.13 288.824 380.13 288.824 402.202 270.455 c 128,-1,7
 424.274 252.086 424.274 252.086 489.929 251.739 c 0,8,9
 548.229 251.432 548.229 251.432 596.203 258.437 c 1,10,11
 589.65 340.004 589.65 340.004 570.601 409.057 c 0,12,13
 538.471 525.503 538.471 525.503 483.334 528.746 c 0,0,1
805.089 44.6299 m 0,14,15
 755.902 -181.113 755.902 -181.113 625.196 -304.118 c 128,-1,16
 494.489 -427.123 494.489 -427.123 289.956 -434.963 c 0,17,18
 113.292 -441.744 113.292 -441.744 -29.5947 -307.579 c 2,19,-1
 -110.042 -232.044 l 1,20,-1
 0.40332 -219.631 l 2,21,22
 417.169 -172.567 417.169 -172.567 548.801 -18.8535 c 1,23,24
 516.775 -21.4775 516.775 -21.4775 481.222 -20.1182 c 0,25,26
 295.208 -12.2402 295.208 -12.2402 212.686 104.812 c 0,27,28
 145.527 199.653 145.527 199.653 164.67 368.445 c 0,29,30
 187.576 566.237 187.576 566.237 284.26 671.182 c 0,31,32
 382.091 777.146 382.091 777.146 524.894 763.779 c 0,33,34
 605.862 756.199 605.862 756.199 671.703 690.807 c 0,35,36
 790.058 573.256 790.058 573.256 805.108 360.665 c 0,37,38
 816.867 192.063 816.867 192.063 812.508 107.032 c 0,39,40
 810.523 68.3457 810.523 68.3457 805.089 44.6299 c 0,14,15
EndSplineSet
Substitution2: "'fina' Terminal Forms in Arabic lookup 9 subtable" uniFEEE
EndChar

StartChar: uni0649
Encoding: 1609 1609 41
Width: 1533
VWidth: 2355
GlyphClass: 2
Flags: W
AnchorPoint: "Anchor-10" 467.085 1072.11 basechar 0
AnchorPoint: "Anchor-7" 250.388 -526.419 basechar 0
LayerCount: 2
Fore
SplineSet
1348.35 -135.9 m 0,0,1
 1119.74 -393.557 1119.74 -393.557 654.668 -405.354 c 0,2,3
 393.138 -411.989 393.138 -411.989 235.246 -326.73 c 128,-1,4
 77.3535 -241.472 77.3535 -241.472 41.7949 -60.6279 c 1,5,6
 11.3457 101.349 11.3457 101.349 65.4385 301.668 c 0,7,8
 109.96 466.548 109.96 466.548 167.841 566.686 c 0,9,10
 235.353 683.489 235.353 683.489 329.641 697.23 c 2,11,-1
 428.208 711.595 l 1,12,-1
 386.761 625.246 l 2,13,14
 352.825 554.546 352.825 554.546 307.261 415.847 c 0,15,16
 292.25 369.681 292.25 369.681 274.54 288.362 c 0,17,18
 234.021 103.479 234.021 103.479 298.608 -10.7979 c 0,19,20
 333.12 -71.2695 333.12 -71.2695 436.604 -103.427 c 128,-1,21
 540.09 -135.584 540.09 -135.584 717.114 -129.035 c 0,22,23
 995.826 -118.724 995.826 -118.724 1158.43 -19.4678 c 0,24,25
 1196.13 3.54199 1196.13 3.54199 1216.47 28.915 c 0,26,27
 1243.93 63.1865 1243.93 63.1865 1180.67 69.2188 c 0,28,29
 1156.9 71.4854 1156.9 71.4854 1123.18 68.3086 c 0,30,31
 930.69 52.083 930.69 52.083 836.11 135.467 c 0,32,33
 773.257 190.507 773.257 190.507 763.37 272.84 c 128,-1,34
 753.483 355.173 753.483 355.173 791.614 443.857 c 1,35,36
 928.112 786.859 928.112 786.859 1183.74 809.949 c 0,37,38
 1280.86 819.059 1280.86 819.059 1341.81 768.669 c 128,-1,39
 1402.75 718.29 1402.75 718.29 1410.18 621.757 c 2,40,-1
 1416.7 537.088 l 1,41,-1
 1355.37 544.037 l 2,42,43
 1154.98 566.742 1154.98 566.742 1069.46 467.644 c 0,44,45
 991.091 374.767 991.091 374.767 1004.82 329.014 c 28,46,47
 1013.52 302.989 1013.52 302.989 1117.71 303.51 c 0,48,49
 1247.74 305.402 1247.74 305.402 1325.53 266.151 c 0,50,51
 1378.74 238.755 1378.74 238.755 1409.72 195.79 c 128,-1,52
 1440.71 152.826 1440.71 152.826 1442.81 98.6367 c 0,53,54
 1447.71 -24.8244 1447.71 -24.8244 1348.35 -135.9 c 0,0,1
EndSplineSet
Substitution2: "'fina' Terminal Forms in Arabic lookup 9 subtable" uniFEF0
Substitution2: "'medi' Medial Forms in Arabic lookup 11 subtable" uniFBE9
Substitution2: "'init' Initial Forms in Arabic lookup 13 subtable" uniFBE8
EndChar

StartChar: uni064B
Encoding: 1611 1611 43
Width: 0
VWidth: 2186
GlyphClass: 4
Flags: W
AnchorPoint: "Anchor-10" 547.84 1041.5 mark 0
AnchorPoint: "Anchor-9" 547.84 1041.5 mark 0
AnchorPoint: "Anchor-1" 547.84 1576.5 basemark 0
AnchorPoint: "Anchor-1" 547.84 1041.5 mark 0
LayerCount: 2
Fore
SplineSet
269.4 977.41 m 5,0,-1
 269.4 1104.48 l 5,1,-1
 827.28 1332.79 l 5,2,-1
 827.28 1205.72 l 5,3,-1
 269.4 977.41 l 5,0,-1
269.4 1234.21 m 5,4,-1
 269.4 1361.28 l 5,5,-1
 827.28 1589.59 l 5,6,-1
 827.28 1462.52 l 5,7,-1
 269.4 1234.21 l 5,4,-1
EndSplineSet
EndChar

StartChar: uni064C
Encoding: 1612 1612 44
Width: 0
VWidth: 2186
GlyphClass: 4
Flags: W
AnchorPoint: "Anchor-10" 554.386 1155.44 mark 0
AnchorPoint: "Anchor-9" 554.386 1155.44 mark 0
AnchorPoint: "Anchor-1" 546.386 1810.94 basemark 0
AnchorPoint: "Anchor-1" 554.386 1155.44 mark 0
LayerCount: 2
Fore
SplineSet
567.219 1298.72 m 0,0,1
 608.391 1338.78 608.391 1338.78 631.845 1385.69 c 2,2,-1
 639.364 1400.73 l 1,3,-1
 622.913 1404.22 l 2,4,5
 589.558 1411.29 589.558 1411.29 566.532 1424.31 c 0,6,7
 457.736 1481.73 457.736 1481.73 457.736 1574.47 c 0,8,9
 457.736 1661.08 457.736 1661.08 526.365 1712.8 c 0,10,11
 552.86 1732.67 552.86 1732.67 615.937 1732.67 c 0,12,13
 688.759 1732.67 688.759 1732.67 727.738 1694.66 c 0,14,15
 782.696 1640.71 782.696 1640.71 782.696 1561.63 c 0,16,17
 782.696 1521.9 782.696 1521.9 770.46 1483.15 c 2,18,-1
 765.402 1467.14 l 1,19,-1
 782.175 1466.26 l 2,20,21
 802.247 1465.2 802.247 1465.2 817.806 1465.17 c 0,22,23
 831.205 1464.45 831.205 1464.45 845.826 1464.2 c 1,24,-1
 845.826 1372.44 l 1,25,26
 806.232 1372.69 806.232 1372.69 788.381 1374.48 c 2,27,-1
 723.27 1380.74 l 1,28,-1
 719.537 1371.99 l 2,29,30
 692.652 1308.91 692.652 1308.91 614.12 1227.24 c 1,31,32
 527.043 1139.14 527.043 1139.14 431.896 1139.14 c 0,33,34
 319.02 1139.14 319.02 1139.14 262.205 1295.39 c 0,35,36
 247.89 1334.51 247.89 1334.51 246.994 1442.7 c 1,37,-1
 317.299 1442.7 l 1,38,39
 318.143 1347.11 318.143 1347.11 331.307 1318.59 c 0,40,41
 372.26 1230.84 372.26 1230.84 431.896 1230.84 c 0,42,43
 497.076 1230.84 497.076 1230.84 567.219 1298.72 c 0,0,1
669.292 1482.64 m 1,44,-1
 680.316 1508.36 l 2,45,46
 690.996 1533.28 690.996 1533.28 690.996 1561.63 c 0,47,48
 690.996 1604.15 690.996 1604.15 668.07 1623.02 c 0,49,50
 646.28 1640.97 646.28 1640.97 620.217 1640.97 c 0,51,52
 591.787 1640.97 591.787 1640.97 575.875 1628.63 c 0,53,54
 551.576 1610.34 551.576 1610.34 551.576 1574.47 c 0,55,56
 551.576 1526.08 551.576 1526.08 607.898 1503.55 c 0,57,58
 629.803 1494.79 629.803 1494.79 658.123 1486.08 c 2,59,-1
 669.292 1482.64 l 1,44,-1
EndSplineSet
EndChar

StartChar: uni064D
Encoding: 1613 1613 45
Width: 0
VWidth: 2186
GlyphClass: 4
Flags: W
AnchorPoint: "Anchor-7" 531.84 75.5 mark 0
AnchorPoint: "Anchor-6" 531.84 75.5 mark 0
AnchorPoint: "Anchor-0" 547.84 -439.5 basemark 0
AnchorPoint: "Anchor-0" 531.84 75.5 mark 0
LayerCount: 2
Fore
SplineSet
270.96 -512.18 m 5,0,-1
 270.96 -385.109 l 5,1,-1
 828.84 -156.8 l 5,2,-1
 828.84 -283.87 l 5,3,-1
 270.96 -512.18 l 5,0,-1
270.96 -255.38 m 5,4,-1
 270.96 -128.31 l 5,5,-1
 828.84 100 l 5,6,-1
 828.84 -27.0703 l 5,7,-1
 270.96 -255.38 l 5,4,-1
EndSplineSet
EndChar

StartChar: uni064E
Encoding: 1614 1614 46
Width: 0
VWidth: 2186
GlyphClass: 4
Flags: W
AnchorPoint: "Anchor-10" 517.84 1279.5 mark 0
AnchorPoint: "Anchor-9" 517.84 1279.5 mark 0
AnchorPoint: "Anchor-1" 517.84 1600.5 basemark 0
AnchorPoint: "Anchor-1" 517.84 1279.5 mark 0
LayerCount: 2
Fore
SplineSet
237.4 1237.41 m 1,0,-1
 237.4 1364.48 l 1,1,-1
 795.28 1592.79 l 5,2,-1
 795.28 1465.72 l 1,3,-1
 237.4 1237.41 l 1,0,-1
EndSplineSet
EndChar

StartChar: uni064F
Encoding: 1615 1615 47
Width: 0
VWidth: 2186
GlyphClass: 4
Flags: W
AnchorPoint: "Anchor-10" 531.84 1205.5 mark 0
AnchorPoint: "Anchor-9" 531.84 1205.5 mark 0
AnchorPoint: "Anchor-1" 547.84 1825 basemark 0
AnchorPoint: "Anchor-1" 531.84 1205.5 mark 0
LayerCount: 2
Fore
SplineSet
594.529 1426.81 m 6,0,1
 586.598 1428.57 586.598 1428.57 567.734 1438.5 c 4,2,3
 459.19 1494.78 459.19 1494.78 459.19 1588.53 c 4,4,5
 459.19 1675.14 459.19 1675.14 527.819 1726.86 c 4,6,7
 554.314 1746.73 554.314 1746.73 617.39 1746.73 c 4,8,9
 690.212 1746.73 690.212 1746.73 729.192 1708.72 c 4,10,11
 784.15 1654.77 784.15 1654.77 784.15 1575.69 c 4,12,13
 784.15 1543.43 784.15 1543.43 769.757 1497.16 c 6,14,-1
 764.821 1481.3 l 5,15,-1
 781.407 1480.32 l 6,16,17
 799.81 1479.24 799.81 1479.24 819.259 1478.7 c 4,18,19
 832.229 1478.34 832.229 1478.34 847.28 1478.21 c 5,20,-1
 847.28 1386.53 l 5,21,22
 817.029 1386.85 817.029 1386.85 789.455 1388.57 c 4,23,24
 757.6 1390.7 757.6 1390.7 727.915 1393.88 c 6,25,-1
 720.312 1394.69 l 5,26,-1
 715.905 1388.44 l 6,27,28
 671.45 1325.37 671.45 1325.37 599.88 1281.81 c 4,29,30
 398.294 1157.85 398.294 1157.85 248.4 1152.36 c 5,31,-1
 248.4 1244.01 l 5,32,33
 408.671 1248.65 408.671 1248.65 554.781 1363.22 c 4,34,35
 580.142 1383.07 580.142 1383.07 601.135 1405.16 c 6,36,-1
 616.962 1421.83 l 5,37,-1
 594.529 1426.81 l 6,0,1
670.746 1496.7 m 5,38,-1
 681.77 1522.42 l 6,39,40
 692.45 1547.34 692.45 1547.34 692.45 1575.69 c 4,41,42
 692.45 1618.21 692.45 1618.21 669.524 1637.08 c 4,43,44
 647.734 1655.03 647.734 1655.03 621.67 1655.03 c 4,45,46
 593.241 1655.03 593.241 1655.03 577.329 1642.69 c 4,47,48
 553.03 1624.4 553.03 1624.4 553.03 1588.53 c 4,49,50
 553.03 1540.14 553.03 1540.14 609.352 1517.61 c 4,51,52
 631.256 1508.85 631.256 1508.85 659.577 1500.14 c 6,53,-1
 670.746 1496.7 l 5,38,-1
EndSplineSet
EndChar

StartChar: uni0650
Encoding: 1616 1616 48
Width: 0
VWidth: 2186
GlyphClass: 4
Flags: W
AnchorPoint: "Anchor-7" 467.84 -12.5 mark 0
AnchorPoint: "Anchor-6" 467.84 -12.5 mark 0
AnchorPoint: "Anchor-0" 556.84 -311.5 basemark 0
AnchorPoint: "Anchor-0" 467.84 -12.5 mark 0
LayerCount: 2
Fore
SplineSet
267.96 -356.836 m 1,0,-1
 267.96 -229.766 l 1,1,-1
 825.84 -1.45605 l 1,2,-1
 825.84 -128.526 l 1,3,-1
 267.96 -356.836 l 1,0,-1
EndSplineSet
EndChar

StartChar: uni0651
Encoding: 1617 1617 49
Width: 0
VWidth: 2186
GlyphClass: 4
Flags: W
AnchorPoint: "Anchor-10" 547.84 1316.5 mark 0
AnchorPoint: "Anchor-9" 547.84 1316.5 mark 0
AnchorPoint: "Anchor-1" 535.84 1818.5 basemark 0
AnchorPoint: "Anchor-1" 547.84 1316.5 mark 0
LayerCount: 2
Fore
SplineSet
398.84 1305.99 m 4,0,1
 306.498 1302.93 306.498 1302.93 261.261 1355.91 c 4,2,3
 227 1396.24 227 1396.24 227 1486.07 c 4,4,5
 227 1527.41 227 1527.41 242.222 1626.56 c 5,6,-1
 320.73 1626.56 l 5,7,8
 307.674 1502.98 307.674 1502.98 307.674 1479 c 4,9,10
 307.674 1394.91 307.674 1394.91 398.84 1393.09 c 4,11,12
 497.128 1391.16 497.128 1391.16 506.266 1518.54 c 4,13,14
 508.184 1545.08 508.184 1545.08 508.4 1680.83 c 5,15,-1
 589.06 1680.83 l 5,16,17
 588.775 1624.49 588.775 1624.49 589.34 1597.53 c 4,18,19
 594.84 1448.99 594.84 1448.99 700.84 1452.09 c 4,20,21
 790.089 1453.28 790.089 1453.28 783.674 1604 c 4,22,23
 779.218 1710.94 779.218 1710.94 774.521 1770.1 c 5,24,-1
 857.705 1770.1 l 5,25,26
 868.68 1694.87 868.68 1694.87 868.68 1580.87 c 4,27,28
 868.68 1504.29 868.68 1504.29 843.84 1449.99 c 4,29,30
 804.992 1364.89 804.992 1364.89 713.84 1360.49 c 4,31,32
 611.451 1355.49 611.451 1355.49 554.84 1431.09 c 5,33,34
 519.173 1310.01 519.173 1310.01 398.84 1305.99 c 4,0,1
EndSplineSet
EndChar

StartChar: uni0652
Encoding: 1618 1618 50
Width: 0
VWidth: 2186
GlyphClass: 4
Flags: W
AnchorPoint: "Anchor-10" 565.84 1128.5 mark 0
AnchorPoint: "Anchor-9" 565.84 1128.5 mark 0
AnchorPoint: "Anchor-1" 551.84 1702 basemark 0
AnchorPoint: "Anchor-1" 565.84 1128.5 mark 0
LayerCount: 2
Fore
SplineSet
674.569 1383.62 m 0,0,1
 674.569 1428.15 674.569 1428.15 643.439 1459.28 c 128,-1,2
 612.312 1490.41 612.312 1490.41 567.126 1490.41 c 0,3,4
 521.285 1490.41 521.285 1490.41 490.485 1459.61 c 128,-1,5
 459.685 1428.81 459.685 1428.81 459.685 1383.62 c 0,6,7
 459.685 1337.78 459.685 1337.78 490.485 1306.98 c 128,-1,8
 521.285 1276.18 521.285 1276.18 567.126 1276.18 c 0,9,10
 612.314 1276.18 612.314 1276.18 643.439 1307.31 c 128,-1,11
 674.569 1338.44 674.569 1338.44 674.569 1383.62 c 0,0,1
750.396 1383.73 m 128,-1,13
 750.396 1306.88 750.396 1306.88 697.316 1253.46 c 128,-1,14
 644.259 1200.07 644.259 1200.07 567.436 1200.07 c 128,-1,15
 490.613 1200.07 490.613 1200.07 437.557 1253.46 c 128,-1,16
 384.476 1306.88 384.476 1306.88 384.476 1383.73 c 128,-1,17
 384.476 1460.56 384.476 1460.56 437.537 1513.63 c 128,-1,18
 490.596 1566.69 490.596 1566.69 567.436 1566.69 c 128,-1,19
 644.276 1566.69 644.276 1566.69 697.335 1513.63 c 128,-1,12
 750.396 1460.56 750.396 1460.56 750.396 1383.73 c 128,-1,13
EndSplineSet
EndChar

StartChar: uni0653
Encoding: 1619 1619 51
Width: 0
VWidth: 2186
GlyphClass: 4
Flags: W
AnchorPoint: "Anchor-10" 442.84 1264.52 mark 0
AnchorPoint: "Anchor-9" 442.84 1264.52 mark 0
AnchorPoint: "Anchor-1" 442.84 1600.5 basemark 0
AnchorPoint: "Anchor-1" 442.84 1264.52 mark 0
LayerCount: 2
Fore
SplineSet
186.947 1409.58 m 0,0,1
 247.236 1458.08 247.236 1458.08 341.363 1436.6 c 0,2,3
 433.702 1415.52 433.702 1415.52 524.165 1435.53 c 0,4,5
 585.704 1449.14 585.704 1449.14 603.91 1477.29 c 2,6,-1
 639.125 1531.74 l 1,7,-1
 652.958 1447.03 l 2,8,9
 659.559 1406.6 659.559 1406.6 631.151 1362.95 c 0,10,11
 610.664 1332.63 610.664 1332.63 570.852 1313.83 c 0,12,13
 503.464 1283.53 503.464 1283.53 295.42 1306.71 c 0,14,15
 255.143 1311.25 255.143 1311.25 202.6 1239.39 c 2,16,-1
 176.459 1203.63 l 1,17,-1
 156.746 1250.73 l 2,18,19
 114.609 1351.39 114.609 1351.39 186.947 1409.58 c 0,0,1
EndSplineSet
EndChar

StartChar: uni0657
Encoding: 1623 1623 54
Width: 0
VWidth: 2186
GlyphClass: 4
Flags: W
AnchorPoint: "Anchor-10" 547.84 1279.5 mark 0
AnchorPoint: "Anchor-9" 547.84 1279.5 mark 0
AnchorPoint: "Anchor-1" 547.84 1975 basemark 0
AnchorPoint: "Anchor-1" 547.84 1279.5 mark 0
LayerCount: 2
Fore
SplineSet
501.148 1675.55 m 2,0,1
 509.083 1673.79 509.083 1673.79 527.945 1663.86 c 0,2,3
 636.49 1607.58 636.49 1607.58 636.49 1513.83 c 0,4,5
 636.49 1427.22 636.49 1427.22 567.86 1375.5 c 0,6,7
 541.366 1355.63 541.366 1355.63 478.29 1355.63 c 0,8,9
 405.468 1355.63 405.468 1355.63 366.487 1393.64 c 0,10,11
 311.53 1447.59 311.53 1447.59 311.53 1526.67 c 0,12,13
 311.53 1558.94 311.53 1558.94 325.923 1605.2 c 2,14,-1
 330.858 1621.06 l 1,15,-1
 314.272 1622.04 l 2,16,17
 295.871 1623.12 295.871 1623.12 276.421 1623.66 c 0,18,19
 263.452 1624.02 263.452 1624.02 248.4 1624.15 c 1,20,-1
 248.4 1715.83 l 1,21,22
 278.631 1715.51 278.631 1715.51 306.226 1713.79 c 0,23,24
 338.082 1711.66 338.082 1711.66 367.766 1708.48 c 2,25,-1
 375.369 1707.67 l 1,26,-1
 379.775 1713.92 l 2,27,28
 424.231 1776.99 424.231 1776.99 495.801 1820.55 c 0,29,30
 697.387 1944.51 697.387 1944.51 847.28 1950 c 1,31,-1
 847.28 1858.35 l 1,32,33
 687.009 1853.71 687.009 1853.71 540.898 1739.14 c 0,34,35
 515.54 1719.29 515.54 1719.29 494.545 1697.2 c 2,36,-1
 478.72 1680.54 l 1,37,-1
 501.148 1675.55 l 2,0,1
424.935 1605.66 m 1,38,-1
 413.911 1579.94 l 2,39,40
 403.23 1555.02 403.23 1555.02 403.23 1526.67 c 0,41,42
 403.23 1484.16 403.23 1484.16 426.155 1465.28 c 0,43,44
 447.946 1447.33 447.946 1447.33 474.01 1447.33 c 0,45,46
 502.438 1447.33 502.438 1447.33 518.352 1459.67 c 0,47,48
 542.65 1477.96 542.65 1477.96 542.65 1513.83 c 0,49,50
 542.65 1562.22 542.65 1562.22 486.328 1584.75 c 0,51,52
 464.442 1593.51 464.442 1593.51 436.104 1602.22 c 2,53,-1
 424.935 1605.66 l 1,38,-1
EndSplineSet
EndChar

StartChar: uni065A
Encoding: 1626 1626 55
Width: 1095
VWidth: 2186
GlyphClass: 4
Flags: W
AnchorPoint: "Anchor-10" 547.84 1279.5 mark 0
AnchorPoint: "Anchor-9" 547.84 1279.5 mark 0
AnchorPoint: "Anchor-1" 545.7 1761 basemark 0
AnchorPoint: "Anchor-1" 547.84 1279.5 mark 0
LayerCount: 2
Fore
SplineSet
476.032 1358.84 m 1,0,-1
 282.934 1681.66 l 1,1,-1
 401.783 1681.66 l 1,2,-1
 547.84 1462.57 l 1,3,-1
 693.896 1681.66 l 1,4,-1
 812.746 1681.66 l 1,5,-1
 619.646 1358.84 l 1,6,-1
 476.032 1358.84 l 1,0,-1
EndSplineSet
EndChar

StartChar: afii57392
Encoding: 1632 1632 56
Width: 1177
GlyphClass: 2
Flags: W
LayerCount: 2
Fore
SplineSet
491.319 653.908 m 128,-1,1
 491.319 610.762 491.319 610.762 522.657 579.424 c 128,-1,2
 553.998 548.083 553.998 548.083 597.144 548.083 c 128,-1,3
 640.285 548.083 640.285 548.083 671.626 579.424 c 128,-1,4
 702.969 610.767 702.969 610.767 702.969 653.908 c 128,-1,5
 702.969 697.048 702.969 697.048 671.624 728.392 c 128,-1,6
 640.285 759.732 640.285 759.732 597.144 759.732 c 128,-1,7
 554 759.732 554 759.732 522.66 728.392 c 128,-1,0
 491.319 697.052 491.319 697.052 491.319 653.908 c 128,-1,1
306.267 651.562 m 128,-1,9
 306.267 774.352 306.267 774.352 392.935 861.525 c 128,-1,10
 479.678 948.775 479.678 948.775 601.947 948.775 c 128,-1,11
 724.221 948.775 724.221 948.775 810.961 861.524 c 128,-1,12
 897.626 774.35 897.626 774.35 897.626 651.562 c 128,-1,13
 897.626 528.765 897.626 528.765 810.959 441.599 c 128,-1,14
 724.211 354.351 724.211 354.351 601.947 354.351 c 128,-1,15
 479.677 354.351 479.677 354.351 392.936 441.599 c 128,-1,8
 306.267 528.771 306.267 528.771 306.267 651.562 c 128,-1,9
EndSplineSet
EndChar

StartChar: afii57393
Encoding: 1633 1633 57
Width: 1177
GlyphClass: 2
Flags: W
LayerCount: 2
Fore
SplineSet
523.386 59.4033 m 2,0,1
 522.569 490.753 522.569 490.753 480.407 752.816 c 1,2,3
 434.906 1056.21 434.906 1056.21 309.577 1325.1 c 2,4,-1
 288.395 1370.55 l 1,5,-1
 514.66 1480.73 l 1,6,-1
 538.768 1440.92 l 2,7,8
 651.363 1255 651.363 1255 728.639 899.484 c 0,9,10
 779.775 664.224 779.775 664.224 781.99 59.6875 c 2,11,-1
 782.177 8.50102 l 1,12,-1
 523.482 8.50102 l 1,13,-1
 523.386 59.4033 l 2,0,1
EndSplineSet
EndChar

StartChar: afii57394
Encoding: 1634 1634 58
Width: 1177
GlyphClass: 2
Flags: W
LayerCount: 2
Fore
SplineSet
335.69 1434.49 m 2,0,1
 397.82 1288.65 397.82 1288.65 403.362 1277.43 c 2,2,-1
 404.503 1275.12 l 2,3,4
 435.214 1212.94 435.214 1212.94 478.131 1182.94 c 128,-1,5
 521.073 1152.93 521.073 1152.93 582.08 1149.42 c 0,6,7
 747.208 1139.73 747.208 1139.73 805.953 1254.77 c 0,8,9
 839.357 1319.99 839.357 1319.99 852.563 1420.96 c 2,10,-1
 859.984 1477.7 l 1,11,-1
 1088.01 1416.2 l 1,12,-1
 1079.28 1369.06 l 2,13,14
 1068.85 1312.76 1068.85 1312.76 1048.24 1238.57 c 0,15,16
 1000.71 1070.56 1000.71 1070.56 901.543 978.442 c 128,-1,17
 802.376 886.324 802.376 886.324 641.32 879.545 c 0,18,19
 580.68 876.993 580.68 876.993 517.092 889.188 c 1,20,21
 542.953 780 542.953 780 558.953 490 c 1,22,23
 570.064 265.116 570.064 265.116 572.266 60.124 c 2,24,-1
 572.897 8.5 l 1,25,-1
 313.753 8.5 l 1,26,-1
 313.663 59.4102 l 2,27,28
 312.896 493.295 312.896 493.295 274.515 726.373 c 0,29,30
 222.779 1040.56 222.779 1040.56 103.934 1295.99 c 2,31,-1
 85.8953 1334.76 l 1,32,-1
 311.045 1492.34 l 1,33,-1
 335.69 1434.49 l 2,0,1
EndSplineSet
EndChar

StartChar: afii57395
Encoding: 1635 1635 59
Width: 1177
GlyphClass: 2
Flags: W
LayerCount: 2
Fore
SplineSet
358.829 1276.43 m 0,0,1
 418.54 1146.97 418.54 1146.97 487.329 1142.57 c 0,2,3
 607.297 1134.9 607.297 1134.9 607.297 1421.13 c 1,4,-1
 776.798 1419.5 l 1,5,6
 778.947 1196.97 778.947 1196.97 818.913 1157.17 c 1,7,8
 836.09 1142.17 836.09 1142.17 862.913 1141.17 c 0,9,10
 886.966 1140.27 886.966 1140.27 901.992 1146.84 c 0,11,12
 953.781 1169.54 953.781 1169.54 959.789 1462.72 c 1,13,-1
 1147.93 1434.17 l 1,14,15
 1153.19 1401.29 1153.19 1401.29 1141.72 1239.77 c 0,16,17
 1116.79 910.788 1116.79 910.788 900.401 891.046 c 0,18,19
 816.414 883.581 816.414 883.581 723.286 959.123 c 1,20,21
 653.48 894.013 653.48 894.013 555.156 887.848 c 0,22,23
 513.722 885.278 513.722 885.278 469.937 891.638 c 1,24,25
 504.274 718.665 504.274 718.665 520.043 533.908 c 0,26,27
 532.664 386.028 532.664 386.028 529.269 58.9711 c 2,28,-1
 528.745 8.50044 l 1,29,-1
 268.755 8.50044 l 1,30,-1
 268.665 59.4106 l 2,31,32
 267.898 493.279 267.898 493.279 229.516 726.374 c 0,33,34
 177.78 1040.55 177.78 1040.55 58.935 1295.99 c 2,35,-1
 40.8969 1334.76 l 1,36,-1
 266.046 1492.34 l 1,37,38
 351.158 1292.56 351.158 1292.56 358.829 1276.43 c 0,0,1
EndSplineSet
EndChar

StartChar: afii57396
Encoding: 1636 1636 60
Width: 1177
GlyphClass: 2
Flags: W
LayerCount: 2
Fore
SplineSet
794.634 1468.61 m 1,0,-1
 794.811 1231.12 l 1,1,-1
 742.36 1236.11 l 2,2,3
 628.862 1246.91 628.862 1246.91 560.416 1214.99 c 0,4,5
 482.709 1178.75 482.709 1178.75 488.72 1102.09 c 0,6,7
 500.18 957.838 500.18 957.838 747.884 954.464 c 2,8,-1
 793.77 953.839 l 1,9,-1
 793.77 722.097 l 1,10,-1
 752.285 714.218 l 2,11,12
 615.781 688.292 615.781 688.292 526.396 633.254 c 0,13,14
 416.21 565.408 416.21 565.408 408.08 466.251 c 0,15,16
 403.705 412.893 403.705 412.893 412.437 380.783 c 0,17,18
 455.933 211.749 455.933 211.749 745.567 262.086 c 0,19,20
 840.244 278.54 840.244 278.54 936.985 325.93 c 2,21,-1
 1009.91 361.652 l 1,22,-1
 1009.91 77.472 l 1,23,-1
 977.729 64.6956 l 2,24,25
 846.872 12.7427 846.872 12.7427 675.291 0.873341 c 0,26,27
 473.259 -12.6061 473.259 -12.6061 343.777 53.4105 c 128,-1,28
 214.275 119.437 214.275 119.437 174.639 267.056 c 0,29,30
 104.265 531.333 104.265 531.333 253.359 719.081 c 0,31,32
 307.359 787.081 307.359 787.081 385.479 835.26 c 1,33,34
 259.426 910.741 259.426 910.741 239.523 1060.67 c 0,35,36
 222.717 1187.28 222.717 1187.28 274.505 1282.43 c 128,-1,37
 326.293 1377.59 326.293 1377.59 440.943 1429.8 c 0,38,39
 561.687 1484.78 561.687 1484.78 758.022 1471.15 c 2,40,-1
 794.634 1468.61 l 1,0,-1
EndSplineSet
EndChar

StartChar: afii57397
Encoding: 1637 1637 61
Width: 1177
GlyphClass: 2
Flags: W
LayerCount: 2
Fore
SplineSet
570.648 1027.55 m 1,0,1
 467.065 948 467.065 948 392.666 807.608 c 1,2,3
 318.203 664.37 318.203 664.37 312.913 550.451 c 0,4,5
 306.055 402.752 306.055 402.752 382.011 340.285 c 0,6,7
 458.491 277.373 458.491 277.373 613.091 278.155 c 0,8,9
 774.065 278 774.065 278 830.749 366.331 c 1,10,11
 879.614 445.006 879.614 445.006 868.601 580.229 c 0,12,13
 857.891 718.864 857.891 718.864 738.846 876.802 c 0,14,15
 657.936 984.157 657.936 984.157 570.648 1027.55 c 1,0,1
315.065 1233 m 1,16,-1
 474.46 1441.9 l 1,17,18
 697.371 1309.07 697.371 1309.07 849.46 1145.95 c 0,19,20
 1122.65 852.939 1122.65 852.939 1137.94 571.32 c 0,21,22
 1152.75 296.682 1152.75 296.682 1033.13 169.602 c 0,23,24
 888.075 16.8351 888.075 16.8351 594.154 17.9581 c 1,25,26
 295.991 17.9581 295.991 17.9581 155.078 169.913 c 0,27,28
 9.26087 328.21 9.26087 328.21 39.8689 574.7 c 0,29,30
 61.6478 748.155 61.6478 748.155 158.592 925.315 c 0,31,32
 238.584 1071.5 238.584 1071.5 378.46 1198.07 c 1,33,-1
 315.065 1233 l 1,16,-1
EndSplineSet
EndChar

StartChar: afii57398
Encoding: 1638 1638 62
Width: 1177
GlyphClass: 2
Flags: W
LayerCount: 2
Fore
SplineSet
938.271 1409.99 m 2,0,1
 939.711 1107.55 939.711 1107.55 977.631 745.786 c 0,2,3
 1007.5 460.518 1007.5 460.518 1106.89 72.145 c 2,4,-1
 1123.18 8.50051 l 1,5,-1
 845.407 8.50051 l 1,6,-1
 835.517 46.7261 l 2,7,8
 746.732 389.872 746.732 389.872 714.006 739.261 c 0,9,10
 687.841 1017.67 687.841 1017.67 682.809 1162.22 c 1,11,12
 587.781 1141.4 587.781 1141.4 460.1 1141.4 c 0,13,14
 272.177 1141.4 272.177 1141.4 94.8611 1192.36 c 2,15,-1
 57.95 1202.97 l 1,16,-1
 57.95 1475.08 l 1,17,-1
 121.88 1458.32 l 2,18,19
 298.618 1412 298.618 1412 460.1 1412 c 0,20,21
 669.139 1412 669.139 1412 875.861 1459.46 c 2,22,-1
 937.968 1473.71 l 1,23,-1
 938.271 1409.99 l 2,0,1
EndSplineSet
EndChar

StartChar: afii57399
Encoding: 1639 1639 63
Width: 1177
GlyphClass: 2
Flags: W
LayerCount: 2
Fore
SplineSet
337.174 632.484 m 0,0,1
 230.972 1021.17 230.972 1021.17 63.14 1309.87 c 2,2,-1
 36.018 1356.53 l 1,3,-1
 285.661 1483.34 l 1,4,-1
 308.487 1437.06 l 2,5,6
 471.243 1107.03 471.243 1107.03 566.73 772.816 c 0,7,8
 578.862 730.326 578.862 730.326 588.5 696.391 c 1,9,10
 598.237 730.685 598.237 730.685 610.27 772.816 c 0,11,12
 705.772 1107.08 705.772 1107.08 868.514 1437.06 c 2,13,-1
 891.349 1483.36 l 1,14,-1
 1141 1356.42 l 1,15,-1
 1113.62 1309.71 l 2,16,17
 948.058 1027.3 948.058 1027.3 839.675 631.976 c 0,18,19
 752.152 312.734 752.152 312.734 719.478 53.1311 c 2,20,-1
 713.86 8.50017 l 1,21,-1
 461.792 8.50017 l 1,22,-1
 458.076 55.4797 l 2,23,24
 443.107 244.786 443.107 244.786 337.174 632.484 c 0,0,1
EndSplineSet
EndChar

StartChar: afii57400
Encoding: 1640 1640 64
Width: 1177
GlyphClass: 2
Flags: W
LayerCount: 2
Fore
SplineSet
461.791 1465.5 m 1,0,-1
 713.86 1465.5 l 1,1,-1
 719.478 1420.87 l 2,2,3
 754.874 1139.63 754.874 1139.63 839.534 842.531 c 0,4,5
 963.459 407.635 963.459 407.635 1125.79 149.659 c 2,6,-1
 1159.12 96.6729 l 1,7,-1
 888.919 -4.43309 l 1,8,-1
 868.514 36.9409 l 2,9,10
 705.771 366.921 705.771 366.921 610.27 701.184 c 0,11,12
 598.608 741.997 598.608 741.997 588.5 779.427 c 1,13,14
 578.39 741.994 578.39 741.994 566.73 701.184 c 0,15,16
 471.229 366.92 471.229 366.92 308.486 36.9409 c 2,17,-1
 288.087 -4.4214 l 1,18,-1
 19.1909 96.1056 l 1,19,-1
 50.3989 148.571 l 2,20,21
 173.811 356.045 173.811 356.045 338.012 844.245 c 0,22,23
 435.438 1132.2 435.438 1132.2 458.076 1418.52 c 2,24,-1
 461.791 1465.5 l 1,0,-1
EndSplineSet
EndChar

StartChar: afii57401
Encoding: 1641 1641 65
Width: 1177
GlyphClass: 2
Flags: W
LayerCount: 2
Fore
SplineSet
722.822 647.396 m 1,0,1
 542.645 648.782 542.645 648.782 460.183 667.122 c 0,2,3
 262.705 711.471 262.705 711.471 173.884 809.457 c 0,4,5
 74 919.648 74 919.648 74 1052.65 c 0,6,7
 74 1225.38 74 1225.38 183.322 1334.79 c 0,8,9
 327.646 1480.33 327.646 1480.33 499.862 1479.2 c 1,10,11
 701.504 1479.2 701.504 1479.2 799.716 1384.51 c 0,12,13
 932.439 1255.4 932.439 1255.4 947.759 1049.74 c 0,14,15
 958.395 906.118 958.395 906.118 977.572 746.297 c 0,16,17
 1015.67 430.119 1015.67 430.119 1106.91 72.0941 c 2,18,-1
 1123.12 8.50032 l 1,19,-1
 844.444 8.50032 l 1,20,-1
 835.636 48.5433 l 2,21,22
 747.433 449.502 747.433 449.502 722.822 647.396 c 1,0,1
693.53 907.146 m 1,23,-1
 693.53 967.05 l 2,24,25
 693.53 1078.9 693.53 1078.9 655.654 1130.55 c 0,26,27
 622.486 1177.13 622.486 1177.13 586.235 1197.56 c 128,-1,28
 549.985 1218 549.985 1218 505.264 1217.6 c 0,29,30
 433.838 1217.6 433.838 1217.6 382.424 1168 c 0,31,32
 332.6 1119.96 332.6 1119.96 332.6 1058 c 0,33,34
 332.6 1012.08 332.6 1012.08 385.384 967.047 c 1,35,36
 418.343 941.206 418.343 941.206 489.185 924.244 c 0,37,38
 553.601 908.82 553.601 908.82 693.53 907.146 c 1,23,-1
EndSplineSet
EndChar

StartChar: afii57381
Encoding: 1642 1642 66
Width: 1177
VWidth: 2186
GlyphClass: 2
Flags: W
LayerCount: 2
Fore
SplineSet
459.39 1287.05 m 2,0,-1
 459.39 1158.05 l 2,1,2
 459.39 1121.05 459.39 1121.05 429.39 1121.04 c 2,3,-1
 302.391 1121.05 l 2,4,5
 268.39 1121.05 268.39 1121.05 268.39 1159.05 c 2,6,-1
 268.39 1287.05 l 2,7,8
 268.39 1319.05 268.39 1319.05 306.39 1319.05 c 2,9,-1
 421.39 1319.05 l 2,10,11
 459.39 1319.05 459.39 1319.05 459.39 1287.05 c 2,0,-1
911.192 233.849 m 2,12,-1
 911.192 104.849 l 2,13,14
 911.192 67.8477 911.192 67.8477 881.192 67.8477 c 2,15,-1
 754.192 67.8477 l 2,16,17
 720.192 67.8477 720.192 67.8477 720.192 105.848 c 2,18,-1
 720.192 233.849 l 2,19,20
 720.192 265.848 720.192 265.848 758.192 265.848 c 2,21,-1
 873.192 265.848 l 2,22,23
 911.192 265.848 911.192 265.848 911.192 233.849 c 2,12,-1
871.394 1373.5 m 1,24,-1
 983.001 1316 l 1,25,-1
 301 0 l 1,26,-1
 190 61 l 1,27,-1
 871.394 1373.5 l 1,24,-1
EndSplineSet
EndChar

StartChar: uni066B
Encoding: 1643 1643 67
Width: 711
VWidth: 2186
GlyphClass: 2
Flags: W
LayerCount: 2
Fore
SplineSet
443.218 502.139 m 1,0,-1
 568.799 501.203 l 1,1,2
 342.799 113.203 342.799 113.203 130 -230.265 c 1,3,-1
 1.59766 -228.502 l 1,4,5
 94.7988 -78.7969 94.7988 -78.7969 443.218 502.139 c 1,0,-1
EndSplineSet
EndChar

StartChar: uni066C
Encoding: 1644 1644 68
Width: 696
VWidth: 2186
GlyphClass: 2
Flags: W
LayerCount: 2
Fore
SplineSet
291.2 1580.01 m 1,0,-1
 490.97 1580.01 l 1,1,-1
 490.97 1433.52 l 1,2,-1
 320.557 1102.04 l 1,3,-1
 207.225 1102.04 l 1,4,-1
 291.2 1428.73 l 1,5,-1
 291.2 1580.01 l 1,0,-1
EndSplineSet
EndChar

StartChar: afii63167
Encoding: 1645 1645 69
Width: 1194
VWidth: 2186
GlyphClass: 2
Flags: W
LayerCount: 2
Fore
SplineSet
132.901 794.63 m 1,0,-1
 486.633 794.63 l 1,1,-1
 597.061 1130.84 l 1,2,-1
 707.487 794.63 l 1,3,-1
 1061.22 794.63 l 1,4,-1
 775.453 585.725 l 1,5,-1
 884.797 249.809 l 1,6,-1
 597.061 457.729 l 1,7,-1
 309.323 249.809 l 1,8,-1
 418.667 585.725 l 1,9,-1
 132.901 794.63 l 1,0,-1
EndSplineSet
EndChar

StartChar: uni066E
Encoding: 1646 1646 70
Width: 1703
VWidth: 2342
GlyphClass: 2
Flags: W
AnchorPoint: "Anchor-10" 763.278 1143.71 basechar 0
AnchorPoint: "Anchor-7" 519.479 -192.424 basechar 0
LayerCount: 2
Fore
SplineSet
948.625 280.171 m 0,0,1
 1076.08 279.276 1076.08 279.276 1203.09 295.536 c 0,2,3
 1381.54 318.38 1381.54 318.38 1446.27 364.798 c 0,4,5
 1465.79 379.41 1465.79 379.41 1466.43 397.101 c 0,6,7
 1466.91 410.224 1466.91 410.224 1459.79 428.257 c 0,8,9
 1406.88 562.172 1406.88 562.172 1397.09 591.58 c 0,10,11
 1366.84 678.39 1366.84 678.39 1393.5 751.445 c 128,-1,12
 1420.16 824.501 1420.16 824.501 1499.71 862.536 c 2,13,-1
 1567.23 894.812 l 1,14,-1
 1585.46 839.959 l 2,15,16
 1650.03 645.808 1650.03 645.808 1661.06 469.625 c 0,17,18
 1663.92 423.885 1663.92 423.885 1661.75 383.702 c 0,19,20
 1651.68 197.283 1651.68 197.283 1533.22 126.538 c 0,21,22
 1401.61 48.6113 1401.61 48.6113 1170.31 17.1924 c 0,23,24
 1053.07 1.18555 1053.07 1.18555 915.417 -0.87793 c 0,25,26
 497.233 -7.04004 497.233 -7.04004 333.077 75.1055 c 0,27,28
 188.632 147.406 188.632 147.406 113.872 262.361 c 128,-1,29
 39.1123 377.317 39.1123 377.317 40.3037 527.97 c 0,30,31
 42.0654 784.109 42.0654 784.109 195.902 804.993 c 2,32,-1
 272.17 815.348 l 1,33,-1
 256.585 744.102 l 2,34,35
 241.575 675.491 241.575 675.491 235.451 620.368 c 0,36,37
 230.644 577.098 230.644 577.098 232.447 526.385 c 0,38,39
 235.707 434.655 235.707 434.655 311.952 376.64 c 128,-1,40
 388.197 318.624 388.197 318.624 556.646 295.25 c 0,41,42
 649.561 282.379 649.561 282.379 948.625 280.171 c 0,0,1
EndSplineSet
Substitution2: "'init' Initial Forms in Arabic lookup 13 subtable" uni066E.init
Substitution2: "'medi' Medial Forms in Arabic lookup 11 subtable" uni066E.medi
Substitution2: "'fina' Terminal Forms in Arabic lookup 9 subtable" uni066E.fina
EndChar

StartChar: uni066F
Encoding: 1647 1647 71
Width: 1406
VWidth: 2358
GlyphClass: 2
Flags: W
AnchorPoint: "Anchor-10" 328.703 1146.86 basechar 0
AnchorPoint: "Anchor-7" 460.144 -600.547 basechar 0
LayerCount: 2
Fore
SplineSet
1019.01 625.705 m 4,0,1
 988.955 627.554 988.955 627.554 963.749 595.709 c 132,-1,2
 938.543 563.864 938.543 563.864 921.532 475.995 c 4,3,4
 917.553 454.943 917.553 454.943 917.495 437.655 c 4,5,6
 917.356 396.358 917.356 396.358 938.871 379.097 c 132,-1,7
 960.386 361.835 960.386 361.835 1025.45 361.698 c 4,8,9
 1091.44 361.559 1091.44 361.559 1131.31 362.26 c 5,10,11
 1124.52 439.915 1124.52 439.915 1106.28 506.016 c 4,12,13
 1074.15 622.462 1074.15 622.462 1019.01 625.705 c 4,0,1
1350.68 329.106 m 4,14,15
 1362.54 150.627 1362.54 150.627 1331.67 29.6758 c 4,16,17
 1276.17 -193.863 1276.17 -193.863 1102.84 -310.073 c 132,-1,18
 929.516 -426.284 929.516 -426.284 652.349 -431.918 c 4,19,20
 285.896 -439.01 285.896 -439.01 132.011 -224.652 c 4,21,22
 9.94043 -55.7627 9.94043 -55.7627 74.0439 239.922 c 4,23,24
 95.5518 339.128 95.5518 339.128 127.669 414.96 c 4,25,26
 195.442 574.987 195.442 574.987 303.655 580.119 c 6,27,-1
 402.82 584.819 l 5,28,-1
 366.03 507.845 l 6,29,30
 219.518 201.288 219.518 201.288 294.317 11.1309 c 4,31,32
 326.979 -70.7793 326.979 -70.7793 409.577 -113.936 c 132,-1,33
 492.175 -157.092 492.175 -157.092 636.609 -160.094 c 4,34,35
 855.194 -164.638 855.194 -164.638 971.994 -99.5508 c 132,-1,36
 1088.79 -34.4639 1088.79 -34.4639 1121.18 98.5674 c 5,37,-1
 1019.36 97.8008 l 6,38,39
 813.159 96.251 813.159 96.251 746.645 204.367 c 4,40,41
 682.445 307.525 682.445 307.525 700.349 465.41 c 4,42,43
 723.257 663.195 723.257 663.195 819.953 768.158 c 4,44,45
 918.911 875.344 918.911 875.344 1060.95 860.702 c 4,46,47
 1144.69 852.408 1144.69 852.408 1207.89 784.194 c 4,48,49
 1313.32 670.236 1313.32 670.236 1336.6 459.641 c 4,50,51
 1350.24 336.287 1350.24 336.287 1350.68 329.106 c 4,14,15
EndSplineSet
Substitution2: "'init' Initial Forms in Arabic lookup 13 subtable" uni066F.init
Substitution2: "'medi' Medial Forms in Arabic lookup 11 subtable" uni066F.medi
Substitution2: "'fina' Terminal Forms in Arabic lookup 9 subtable" uni066F.fina
EndChar

StartChar: uni0670
Encoding: 1648 1648 72
Width: 0
VWidth: 2186
GlyphClass: 4
Flags: W
AnchorPoint: "Anchor-10" 547.84 1279.5 mark 0
AnchorPoint: "Anchor-9" 547.84 1279.5 mark 0
AnchorPoint: "Anchor-1" 547.84 1884 basemark 0
AnchorPoint: "Anchor-1" 547.84 1279.5 mark 0
LayerCount: 2
Fore
SplineSet
525.99 1327.81 m 5,0,-1
 501.99 1781.69 l 5,1,-1
 593.69 1835.69 l 5,2,-1
 593.69 1327.81 l 5,3,-1
 525.99 1327.81 l 5,0,-1
EndSplineSet
EndChar

StartChar: uni0674
Encoding: 1652 1652 73
Width: 639
VWidth: 2186
GlyphClass: 2
Flags: W
LayerCount: 2
Fore
SplineSet
143.54 1515.26 m 1,0,-1
 254.306 1540.82 l 1,1,-1
 219.379 1556.7 l 2,2,3
 176.794 1576.05 176.794 1576.05 161.706 1610 c 0,4,5
 145.68 1647.06 145.68 1647.06 145.68 1692.52 c 0,6,7
 145.68 1788.83 145.68 1788.83 200.568 1830.98 c 0,8,9
 259.108 1876.4 259.108 1876.4 353.1 1876.4 c 0,10,11
 411.842 1876.4 411.842 1876.4 462.08 1846.81 c 1,12,-1
 462.08 1769.8 l 1,13,14
 412.732 1795.4 412.732 1795.4 353.1 1795.4 c 0,15,16
 276.875 1795.4 276.875 1795.4 254.747 1771.97 c 0,17,18
 220.26 1733.92 220.26 1733.92 220.26 1701.08 c 0,19,20
 220.26 1608.9 220.26 1608.9 330.161 1577.33 c 0,21,22
 366.368 1566.36 366.368 1566.36 484.55 1593.69 c 1,23,-1
 484.55 1511.4 l 1,24,-1
 143.54 1434.84 l 1,25,-1
 143.54 1515.26 l 1,0,-1
EndSplineSet
EndChar

StartChar: uni06A1
Encoding: 1697 1697 77
Width: 1726
VWidth: 2358
GlyphClass: 2
Flags: W
AnchorPoint: "Anchor-10" 486.273 1321.83 basechar 0
AnchorPoint: "Anchor-7" 599.693 -139.024 basechar 0
LayerCount: 2
Fore
SplineSet
1359.74 888.626 m 0,0,1
 1330.37 890.433 1330.37 890.433 1305.08 858.478 c 128,-1,2
 1279.8 826.522 1279.8 826.522 1262.19 738.424 c 0,3,4
 1257.19 713.836 1257.19 713.836 1256.97 693.976 c 0,5,6
 1256.48 649.324 1256.48 649.324 1278.62 630.77 c 128,-1,7
 1300.75 612.215 1300.75 612.215 1366.43 611.617 c 0,8,9
 1411.15 611.415 1411.15 611.415 1472.5 619.917 c 1,10,11
 1465.96 700.303 1465.96 700.303 1447.03 768.936 c 0,12,13
 1414.9 885.382 1414.9 885.382 1359.74 888.626 c 0,0,1
966.628 281.119 m 1,14,-1
 1074.41 281.119 l 2,15,16
 1288.66 281.119 1288.66 281.119 1324.83 290.99 c 0,17,18
 1400.45 311.776 1400.45 311.776 1439.13 345.646 c 1,19,20
 1388.01 337.333 1388.01 337.333 1339.07 340.29 c 0,21,22
 1170.5 350.474 1170.5 350.474 1089.18 464.6 c 0,23,24
 1021.96 559.532 1021.96 559.532 1041.1 728.31 c 0,25,26
 1064 926.094 1064 926.094 1160.76 1031.15 c 0,27,28
 1259.11 1136.86 1259.11 1136.86 1389.79 1125.51 c 0,29,30
 1496.23 1116.76 1496.23 1116.76 1565.35 1030.49 c 0,31,32
 1655.89 916.498 1655.89 916.498 1681.22 723.615 c 0,33,34
 1705.85 533.771 1705.85 533.771 1684.48 402.97 c 0,35,36
 1646.54 170.948 1646.54 170.948 1459.75 64.4385 c 0,37,38
 1347.1 0.560547 1347.1 0.560547 1195.68 0 c 2,39,-1
 932.981 -0.97168 l 1,40,41
 706.43 -0.803711 706.43 -0.803711 559.984 17.0137 c 128,-1,42
 413.54 34.8311 413.54 34.8311 333.077 75.1055 c 0,43,44
 188.625 147.409 188.625 147.409 113.868 262.361 c 128,-1,45
 39.1123 377.313 39.1123 377.313 40.3047 527.993 c 0,46,47
 41.0479 624.147 41.0479 624.147 64.7695 711.825 c 0,48,49
 78.0928 761.066 78.0928 761.066 117.771 786.517 c 128,-1,50
 157.448 811.967 157.448 811.967 208.552 806.127 c 2,51,-1
 268.651 799.262 l 1,52,-1
 256.585 744.102 l 2,53,54
 241.575 675.491 241.575 675.491 235.451 620.368 c 0,55,56
 230.644 577.098 230.644 577.098 232.447 526.385 c 0,57,58
 235.708 434.648 235.708 434.648 311.949 376.637 c 128,-1,59
 388.191 318.625 388.191 318.625 556.684 295.244 c 0,60,61
 648.653 282.396 648.653 282.396 966.628 281.119 c 1,14,-1
EndSplineSet
Substitution2: "'init' Initial Forms in Arabic lookup 13 subtable" uni06A1.init
Substitution2: "'medi' Medial Forms in Arabic lookup 11 subtable" uni06A1.medi
Substitution2: "'fina' Terminal Forms in Arabic lookup 9 subtable" uni06A1.fina
EndChar

StartChar: uni06A9
Encoding: 1705 1705 78
Width: 1829
VWidth: 2342
GlyphClass: 2
Flags: W
AnchorPoint: "Anchor-10" 268.771 1281.92 basechar 0
AnchorPoint: "Anchor-7" 391.73 -242.384 basechar 0
LayerCount: 2
Fore
SplineSet
895.431 -0.5625 m 2,0,1
 484.25 -0.5625 484.25 -0.5625 333.077 75.1055 c 0,2,3
 188.638 147.402 188.638 147.402 113.875 262.362 c 128,-1,4
 39.1123 377.321 39.1123 377.321 40.3037 527.948 c 0,5,6
 40.71 598.591 40.71 598.591 53.6641 648.925 c 0,7,8
 101.97 830.112 101.97 830.112 210.785 806.325 c 2,9,-1
 267.485 793.93 l 1,10,-1
 256.585 744.101 l 2,11,12
 241.576 675.5 241.576 675.5 235.451 620.368 c 0,13,14
 230.644 577.102 230.644 577.102 232.446 526.385 c 0,15,16
 235.725 434.144 235.725 434.144 311.923 376.166 c 128,-1,17
 388.12 318.188 388.12 318.188 556.527 295.267 c 0,18,19
 647.848 282.836 647.848 282.836 777.819 282.424 c 0,20,21
 911.179 282 911.179 282 939.07 283.276 c 1,22,-1
 941.237 283.931 l 1,23,-1
 948.531 283.998 l 2,24,25
 1118.95 285.566 1118.95 285.566 1223.05 317.119 c 128,-1,26
 1327.16 348.672 1327.16 348.672 1364.43 400.713 c 0,27,28
 1381.43 424.448 1381.43 424.448 1384.31 444.914 c 128,-1,29
 1387.19 465.379 1387.19 465.379 1372.74 491.202 c 128,-1,30
 1358.3 517.025 1358.3 517.025 1322.56 548.546 c 2,31,-1
 1036.36 800.932 l 2,32,33
 980.123 850.526 980.123 850.526 949.961 892.01 c 128,-1,34
 919.799 933.494 919.799 933.494 916.016 977.514 c 0,35,36
 909.84 1049.57 909.84 1049.57 947.219 1107.63 c 128,-1,37
 984.598 1165.68 984.598 1165.68 1056.74 1203.49 c 2,38,-1
 1815.41 1601 l 1,39,-1
 1810.45 1490.01 l 2,40,41
 1806.22 1395.56 1806.22 1395.56 1752.73 1322.44 c 128,-1,42
 1699.24 1249.33 1699.24 1249.33 1603.4 1202.49 c 2,43,-1
 1178.32 994.753 l 1,44,45
 1258.47 916.319 1258.47 916.319 1472.31 723.342 c 1,46,47
 1605.51 597.914 1605.51 597.914 1588.12 405.44 c 0,48,49
 1579.52 309.911 1579.52 309.911 1530.12 235.571 c 128,-1,50
 1480.73 161.231 1480.73 161.231 1394.65 113.431 c 0,51,52
 1220.39 16.6602 1220.39 16.6602 908.71 0.0722656 c 2,53,-1
 896.787 -0.5625 l 1,54,-1
 895.431 -0.5625 l 2,0,1
EndSplineSet
Substitution2: "'init' Initial Forms in Arabic lookup 13 subtable" uniFB90
Substitution2: "'medi' Medial Forms in Arabic lookup 11 subtable" uniFB91
Substitution2: "'fina' Terminal Forms in Arabic lookup 9 subtable" uniFB8F
EndChar

StartChar: afii57514
Encoding: 1722 1722 80
Width: 1351
VWidth: 2367
GlyphClass: 2
Flags: W
AnchorPoint: "Anchor-10" 587.961 1047.99 basechar 0
AnchorPoint: "Anchor-7" 305.838 -706.488 basechar 0
LayerCount: 2
Fore
SplineSet
1292.33 311.223 m 0,0,1
 1328.3 74.1641 1328.3 74.1641 1292.36 -72.1631 c 0,2,3
 1240.68 -282.578 1240.68 -282.578 1076.31 -391.55 c 128,-1,4
 911.937 -500.522 911.937 -500.522 649.026 -505.354 c 0,5,6
 300.623 -511.798 300.623 -511.798 132.81 -291.988 c 1,7,8
 -4.48535 -113.964 -4.48535 -113.964 45.2021 131.514 c 0,9,10
 60.8789 208.963 60.8789 208.963 97.2256 305.381 c 0,11,12
 113.145 347.418 113.145 347.418 130.111 384.331 c 0,13,14
 150.974 429.72 150.974 429.72 192.498 449.562 c 128,-1,15
 234.021 469.406 234.021 469.406 281.436 454.609 c 2,16,-1
 343.032 435.389 l 1,17,-1
 320.11 383.184 l 2,18,19
 213.575 140.558 213.575 140.558 266.982 -35.501 c 0,20,21
 296.998 -134.45 296.998 -134.45 387.613 -184.397 c 128,-1,22
 478.228 -234.345 478.228 -234.345 643.685 -233.805 c 0,23,24
 873.42 -233.054 873.42 -233.054 982.403 -164.079 c 128,-1,25
 1091.39 -95.1035 1091.39 -95.1035 1101.99 41.0312 c 0,26,27
 1109.74 141.745 1109.74 141.745 1057.69 271.945 c 0,28,29
 1035.82 326.674 1035.82 326.674 1023.9 372.46 c 1,30,31
 1009.98 433.395 1009.98 433.395 1010.97 485.367 c 128,-1,32
 1011.96 537.339 1011.96 537.339 1040.27 577.071 c 128,-1,33
 1068.58 616.803 1068.58 616.803 1121.89 630.672 c 2,34,-1
 1201.6 651.405 l 1,35,-1
 1216.04 604.921 l 2,36,37
 1276.7 409.604 1276.7 409.604 1292.33 311.223 c 0,0,1
EndSplineSet
Substitution2: "'init' Initial Forms in Arabic lookup 13 subtable" uni06BA.init
Substitution2: "'medi' Medial Forms in Arabic lookup 11 subtable" uni06BA.medi
Substitution2: "'fina' Terminal Forms in Arabic lookup 9 subtable" uniFB9F
EndChar

StartChar: uni06F4
Encoding: 1780 1780 87
Width: 1177
GlyphClass: 2
Flags: W
LayerCount: 2
Fore
SplineSet
394.545 1263.03 m 1,0,1
 472.212 1417.42 472.212 1417.42 604.548 1455.98 c 0,2,3
 762.989 1502.03 762.989 1502.03 968.225 1459.34 c 2,4,-1
 1008.84 1450.89 l 1,5,-1
 1008.84 1212.39 l 1,6,-1
 943.992 1230.69 l 2,7,8
 907.821 1240.89 907.821 1240.89 827.775 1251.03 c 0,9,10
 599.512 1279.96 599.512 1279.96 569.782 1116.02 c 0,11,12
 562.775 1077.37 562.775 1077.37 588.243 1038.92 c 0,13,14
 603.31 1014.98 603.31 1014.98 653.327 998.475 c 128,-1,15
 703.345 981.968 703.345 981.968 791.291 981.86 c 0,16,17
 841.314 981.814 841.314 981.814 1007.99 1006.32 c 2,18,-1
 1065.5 1014.77 l 1,19,-1
 1069.21 775.513 l 1,20,-1
 1024.17 769.585 l 2,21,22
 826.645 743.59 826.645 743.59 761.84 743.59 c 0,23,24
 627.028 743.59 627.028 743.59 528.736 784.815 c 1,25,26
 528.49 783.799 528.49 783.799 536.596 727.699 c 0,27,28
 575.732 474.125 575.732 474.125 572.439 59.0959 c 2,29,-1
 572.038 8.50021 l 1,30,-1
 313.754 8.50021 l 1,31,-1
 313.664 59.4104 l 2,32,33
 312.915 483.829 312.915 483.829 274.477 726.61 c 0,34,35
 228.902 1010.55 228.902 1010.55 99.6251 1300.44 c 2,36,-1
 81.9855 1340 l 1,37,-1
 314.418 1493.01 l 1,38,-1
 336.036 1431.38 l 2,39,40
 372.067 1328.67 372.067 1328.67 394.545 1263.03 c 1,0,1
EndSplineSet
EndChar

StartChar: uni06F5
Encoding: 1781 1781 88
Width: 1177
GlyphClass: 2
Flags: W
LayerCount: 2
Fore
SplineSet
654.513 400.879 m 0,0,1
 712.396 272.25 712.396 272.25 814.071 286.346 c 0,2,3
 948.621 305 948.621 305 892.867 511.721 c 1,4,5
 815.823 803.3 815.823 803.3 576.76 1026.61 c 1,6,7
 387.065 792.396 387.065 792.396 315.361 557.285 c 0,8,9
 289.595 472.798 289.595 472.798 286.889 413.077 c 0,10,11
 283.744 343.655 283.744 343.655 306.516 316.656 c 128,-1,12
 329.288 289.658 329.288 289.658 389.426 286.948 c 0,13,14
 475.942 283.639 475.942 283.639 548.513 406.879 c 1,15,16
 582.711 462.88 582.711 462.88 601.514 462.879 c 0,17,18
 625.615 462.878 625.615 462.878 654.513 400.879 c 0,0,1
372.77 8.36426 m 1,19,20
 218.176 8.36523 218.176 8.36523 127.7 90.8164 c 128,-1,21
 37.2246 173.267 37.2246 173.267 24.959 325.947 c 0,22,23
 -4.66701 700.755 -4.66701 700.755 387.383 1191.83 c 1,24,-1
 343.382 1230.04 l 1,25,-1
 492.651 1436.22 l 1,26,27
 572.083 1383.71 572.083 1383.71 620.273 1341.65 c 0,28,29
 1207.53 831.179 1207.53 831.179 1151.48 328.331 c 0,30,31
 1134.01 171.963 1134.01 171.963 1049.58 87.8535 c 128,-1,32
 965.158 3.74511 965.158 3.74511 823.906 8.88381 c 1,33,34
 673.75 12.7871 673.75 12.7871 597.782 108.234 c 1,35,36
 521.393 8.36131 521.393 8.36131 372.77 8.35941 c 1,37,-1
 372.77 8.36426 l 1,19,20
EndSplineSet
EndChar

StartChar: uni06F6
Encoding: 1782 1782 89
Width: 1177
GlyphClass: 2
Flags: W
LayerCount: 2
Fore
SplineSet
382.162 533.291 m 0,0,1
 449.073 647.976 449.073 647.976 510.175 718.315 c 1,2,3
 316.111 785.924 316.111 785.924 286.684 1002 c 0,4,5
 256.414 1224.79 256.414 1224.79 394.684 1366.03 c 0,6,7
 504.281 1477.27 504.281 1477.27 689.08 1477.27 c 0,8,9
 813.505 1477.27 813.505 1477.27 909.141 1446.76 c 0,10,11
 926.891 1441.1 926.891 1441.1 944.64 1435.43 c 1,12,-1
 944.64 1181.22 l 1,13,-1
 879.849 1199.42 l 2,14,15
 682.253 1254.93 682.253 1254.93 600.334 1194.48 c 0,16,17
 540.18 1150.64 540.18 1150.64 540.18 1048.37 c 0,18,19
 540.18 980.383 540.18 980.383 588.479 935.598 c 0,20,21
 625.869 900.759 625.869 900.759 722.209 900.541 c 1,22,23
 759.458 905.666 759.458 905.666 964.679 979.025 c 2,24,-1
 1032.84 1003.39 l 1,25,-1
 1032.84 741.923 l 1,26,-1
 999.09 729.794 l 2,27,28
 783.856 652.444 783.856 652.444 641.875 458.562 c 0,29,30
 506.73 274.008 506.73 274.008 450.49 47.2241 c 2,31,-1
 440.887 8.50053 l 1,32,-1
 178.528 8.50053 l 1,33,-1
 196.749 73.3052 l 2,34,35
 273.711 347.026 273.711 347.026 382.162 533.291 c 0,0,1
EndSplineSet
EndChar

StartChar: uniFB8F
Encoding: 64399 64399 104
Width: 2028
VWidth: 2342
GlyphClass: 2
Flags: W
AnchorPoint: "Anchor-10" 414.756 1251.86 basechar 0
AnchorPoint: "Anchor-7" 498.496 -217.828 basechar 0
LayerCount: 2
Fore
SplineSet
929.383 -0.648438 m 2,0,1
 702.945 0.155815 702.945 0.155815 557.486 17.8711 c 128,-1,2
 412.031 35.5859 412.031 35.5859 333.077 75.1055 c 0,3,4
 188.633 147.405 188.633 147.405 113.873 262.362 c 128,-1,5
 39.1123 377.318 39.1123 377.318 40.3037 527.964 c 0,6,7
 40.8359 609.551 40.8359 609.551 56.7695 668.446 c 0,8,9
 74.3936 733.586 74.3936 733.586 112.485 773.169 c 128,-1,10
 150.575 812.75 150.575 812.75 208.552 806.127 c 2,11,-1
 268.651 799.262 l 1,12,-1
 256.585 744.102 l 2,13,14
 241.573 675.476 241.573 675.476 235.451 620.368 c 0,15,16
 230.644 577.098 230.644 577.098 232.447 526.385 c 0,17,18
 235.746 433.56 235.746 433.56 311.891 375.623 c 128,-1,19
 388.035 317.686 388.035 317.686 556.375 295.286 c 0,20,21
 650.257 282.796 650.257 282.796 973.08 279.377 c 1,22,-1
 1033.94 280.166 l 2,23,24
 1127.16 281.374 1127.16 281.374 1198.32 291.432 c 128,-1,25
 1269.49 301.49 1269.49 301.49 1309.74 317.292 c 128,-1,26
 1349.98 333.094 1349.98 333.094 1370.74 350.14 c 128,-1,27
 1391.5 367.186 1391.5 367.186 1395.29 385.559 c 0,28,29
 1396.88 393.296 1396.88 393.296 1392.48 406.537 c 128,-1,30
 1388.08 419.778 1388.08 419.778 1369.38 445.374 c 128,-1,31
 1350.69 470.971 1350.69 470.971 1319.26 499.567 c 2,32,-1
 1069.65 726.671 l 2,33,34
 959.553 826.841 959.553 826.841 954.912 940.563 c 0,35,36
 954.138 959.652 954.138 959.652 956.055 977.866 c 0,37,38
 969.245 1103.18 969.245 1103.18 1102.48 1175.1 c 2,39,-1
 1889.48 1599.91 l 1,40,-1
 1894.21 1491.6 l 2,41,42
 1902.08 1311.46 1902.08 1311.46 1640.39 1172.21 c 2,43,-1
 1214.13 945.382 l 1,44,-1
 1816.4 361.735 l 2,45,46
 1900.92 279.83 1900.92 279.83 2004.62 280.341 c 2,47,-1
 2051.19 280.57 l 5,48,-1
 2051.19 -0.578125 l 5,49,-1
 1972.63 -0.578125 l 2,50,51
 1790.81 -0.578125 1790.81 -0.578125 1596.03 228.301 c 1,52,53
 1467.79 -2.56072 1467.79 -2.56072 1058.61 -1.10742 c 2,54,-1
 929.383 -0.648438 l 2,0,1
EndSplineSet
EndChar

StartChar: uniFB9F
Encoding: 64415 64415 112
Width: 1458
VWidth: 2341
GlyphClass: 2
Flags: W
AnchorPoint: "Anchor-10" 378.69 804.27 basechar 0
AnchorPoint: "Anchor-7" 278.648 -693.038 basechar 0
LayerCount: 2
Fore
SplineSet
1331.96 336.356 m 4,0,1
 1346.78 306.157 1346.78 306.157 1367.84 293.416 c 132,-1,2
 1388.91 280.675 1388.91 280.675 1425.11 280.675 c 6,3,-1
 1480.89 280.675 l 5,4,-1
 1480.89 -0.337891 l 5,5,-1
 1427.39 -0.337891 l 6,6,7
 1385.5 -0.337891 1385.5 -0.337891 1348.78 13.2002 c 5,8,9
 1347.46 -9.9707 1347.46 -9.9707 1343.94 -33.2256 c 4,10,11
 1309.09 -263.243 1309.09 -263.243 1141.16 -382.704 c 132,-1,12
 973.234 -502.166 973.234 -502.166 689.018 -507.354 c 4,13,14
 297.938 -514.516 297.938 -514.516 142.782 -291.623 c 4,15,16
 24.708 -120.636 24.708 -120.636 85.4844 143.818 c 4,17,18
 104.196 225.239 104.196 225.239 138.175 316.244 c 4,19,20
 187.363 447.056 187.363 447.056 286.551 454.542 c 6,21,-1
 395.973 462.801 l 5,22,-1
 363.958 386.053 l 6,23,24
 238.519 85.3418 238.519 85.3418 304.294 -53.5254 c 4,25,26
 348.191 -146.82 348.191 -146.82 440.254 -192.576 c 132,-1,27
 532.315 -238.331 532.315 -238.331 683 -235.812 c 4,28,29
 909.039 -232.03 909.039 -232.03 1016.83 -161.176 c 132,-1,30
 1124.62 -90.3203 1124.62 -90.3203 1135.61 47.3418 c 4,31,32
 1141.41 120.533 1141.41 120.533 1125.02 194.564 c 4,33,34
 1115.27 238.6 1115.27 238.6 1097.61 283.143 c 4,35,36
 1067.83 358.781 1067.83 358.781 1060.63 421.611 c 132,-1,37
 1053.44 484.442 1053.44 484.442 1074.82 538 c 132,-1,38
 1096.21 591.562 1096.21 591.562 1149.66 621.729 c 6,39,-1
 1253.16 680.142 l 5,40,-1
 1266.43 610.321 l 6,41,42
 1309.31 384.706 1309.31 384.706 1331.96 336.356 c 4,0,1
EndSplineSet
EndChar

StartChar: uniFBE8
Encoding: 64488 64488 115
Width: 572
VWidth: 2341
GlyphClass: 2
Flags: W
AnchorPoint: "Anchor-10" 204.879 1107.31 basechar 0
AnchorPoint: "Anchor-7" 230.02 -165.43 basechar 0
LayerCount: 2
Fore
SplineSet
-3.62012 -0.179688 m 1,0,-1
 -30.1113 -0.179688 l 5,1,-1
 -30.1113 280.938 l 5,2,-1
 11.0273 280.938 l 2,3,4
 88.5588 280.939 88.5588 280.939 142.933 290.848 c 0,5,6
 214.375 303.868 214.375 303.868 234.891 324.812 c 128,-1,7
 255.407 345.757 255.407 345.757 248.965 380.995 c 0,8,9
 244.597 404.218 244.597 404.218 242.134 411.166 c 0,10,11
 210.427 491.812 210.427 491.812 188.656 569.361 c 0,12,13
 164.229 656.366 164.229 656.366 199.015 726.874 c 128,-1,14
 233.8 797.382 233.8 797.382 318.772 838.008 c 2,15,-1
 386.281 870.285 l 1,16,-1
 404.521 815.431 l 2,17,18
 469.095 621.234 469.095 621.234 480.127 444.971 c 0,19,20
 491.71 243.428 491.71 243.428 391.61 126.749 c 0,21,22
 278.997 -4.55762 278.997 -4.55762 -3.62012 -0.179688 c 1,0,-1
EndSplineSet
EndChar

StartChar: uniFBE9
Encoding: 64489 64489 116
Width: 664
VWidth: 2345
GlyphClass: 2
Flags: W
AnchorPoint: "Anchor-10" 315.928 1056.08 basechar 0
AnchorPoint: "Anchor-7" 296.848 -94.0254 basechar 0
LayerCount: 2
Fore
SplineSet
59.335 1.71191 m 2,0,-1
 -21.4424 -0.0400391 l 1,1,-1
 -21.4424 280.824 l 1,2,-1
 46.8154 280.824 l 2,3,4
 158.486 280.824 158.486 280.824 204.613 300.504 c 0,5,6
 240.117 315.654 240.117 315.654 249.155 331.186 c 128,-1,7
 258.193 346.716 258.193 346.716 251.909 374.247 c 2,8,-1
 230.909 466.247 l 2,9,10
 212.701 546.016 212.701 546.016 255.45 607.546 c 128,-1,11
 298.199 669.074 298.199 669.074 385.929 703.695 c 2,12,-1
 466.483 735.484 l 1,13,-1
 478.674 459.304 l 2,14,15
 480.327 421.864 480.327 421.864 486.245 391.821 c 128,-1,16
 492.165 361.775 492.165 361.775 496.898 350.007 c 128,-1,17
 501.633 338.238 501.633 338.238 504.235 335.959 c 0,18,19
 567.178 280.819 567.178 280.819 662.562 280.824 c 2,20,-1
 685.702 280.825 l 1,21,-1
 685.702 0.00683594 l 1,22,-1
 655.294 1.80078 l 2,23,24
 455.985 13.5591 455.985 13.5591 362.548 119.03 c 1,25,26
 250.405 5.85597 250.405 5.85597 59.335 1.71191 c 2,0,-1
EndSplineSet
EndChar

StartChar: uniFE73
Encoding: 65139 65139 124
Width: 573
VWidth: 2186
GlyphClass: 2
Flags: W
AnchorPoint: "Anchor-10" 210.79 1279.5 basechar 0
AnchorPoint: "Anchor-7" 210.79 -111.5 basechar 0
LayerCount: 2
Fore
SplineSet
296.23 350.74 m 2,0,1
 296.23 286.506 296.23 286.506 352.468 230.268 c 0,2,3
 403.354 179.38 403.354 179.38 514.67 179.38 c 2,4,-1
 581.92 179.38 l 1,5,-1
 581.92 8.5 l 1,6,-1
 455.82 8.5 l 2,7,8
 309.266 8.5 309.266 8.5 214.633 103.133 c 0,9,10
 125.35 192.415 125.35 192.415 125.35 337.9 c 2,11,-1
 125.35 370.91 l 1,12,-1
 296.23 370.91 l 1,13,-1
 296.23 350.74 l 2,0,1
EndSplineSet
EndChar

StartChar: uniFE8E
Encoding: 65166 65166 150
Width: 547
VWidth: 2318
GlyphClass: 2
Flags: W
AnchorPoint: "Anchor-10" 205.257 1495.7 basechar 0
AnchorPoint: "Anchor-7" 241.297 -211.991 basechar 0
LayerCount: 2
Fore
SplineSet
129.705 476.418 m 2,0,-1
 77.8848 1013.85 l 2,1,2
 64.8177 1149.37 64.8177 1149.37 108.093 1256.74 c 0,3,4
 149.027 1358.3 149.027 1358.3 244.516 1409.71 c 2,5,-1
 335.199 1458.53 l 5,6,-1
 334.738 492.665 l 2,7,8
 334.723 461.974 334.723 461.974 337.593 436.151 c 0,9,10
 345.854 361.326 345.854 361.326 376.737 328.692 c 0,11,12
 421.856 281.019 421.856 281.019 521.01 281.018 c 2,13,-1
 567.195 281.018 l 1,14,-1
 567.195 -0.100586 l 1,15,-1
 499.969 -0.100586 l 2,16,17
 309.758 -0.100586 309.758 -0.100586 211.792 145.367 c 0,18,19
 156.237 227.855 156.237 227.855 135.588 412.874 c 0,20,21
 133.043 435.681 133.043 435.681 129.705 476.418 c 2,0,-1
EndSplineSet
EndChar

StartChar: uniFEA2
Encoding: 65186 65186 170
Width: 1440
VWidth: 2342
GlyphClass: 2
Flags: W
AnchorPoint: "Anchor-10" 518.238 1193.58 basechar 0
AnchorPoint: "Anchor-7" 343.979 -884.646 basechar 0
LayerCount: 2
Fore
SplineSet
1314.6 740.068 m 1,0,-1
 1282.68 543.331 l 2,1,2
 1281.71 536.946 1281.71 536.946 1279.71 524.883 c 128,-1,3
 1277.72 512.82 1277.72 512.82 1276.76 506.809 c 1,4,-1
 1240.2 501.107 l 2,5,6
 1180.65 491.821 1180.65 491.821 1123.74 481.027 c 1,7,8
 1150.54 376.575 1150.54 376.575 1210.96 328.974 c 128,-1,9
 1271.39 281.373 1271.39 281.373 1376.29 281.373 c 2,10,-1
 1460.12 281.373 l 5,11,-1
 1460.12 -0.639648 l 5,12,-1
 1383.05 -0.639648 l 2,13,14
 1216.53 -0.639648 1216.53 -0.639648 1106.51 105.62 c 128,-1,15
 996.487 211.88 996.487 211.88 948.375 410.184 c 0,16,17
 944.803 424.906 944.803 424.906 941.482 440.448 c 1,18,19
 629.836 359.584 629.836 359.584 458.843 227.644 c 0,20,21
 283.15 91.3926 283.15 91.3926 286.724 -126.694 c 0,22,23
 289.55 -297.23 289.55 -297.23 426.951 -388.923 c 0,24,25
 558.504 -476.714 558.504 -476.714 848.459 -448.979 c 0,26,27
 1089.95 -425.879 1089.95 -425.879 1254.36 -306.439 c 2,28,-1
 1346.18 -239.734 l 1,29,-1
 1332.36 -380.598 l 2,30,31
 1318.82 -518.65 1318.82 -518.65 1213 -602.732 c 128,-1,32
 1107.18 -686.804 1107.18 -686.804 924.63 -716.169 c 0,33,34
 669.376 -757.229 669.376 -757.229 473.178 -704.025 c 0,35,36
 282.533 -652.328 282.533 -652.328 173.085 -530.321 c 128,-1,37
 63.6367 -408.312 63.6367 -408.312 43.8145 -223.234 c 0,38,39
 21.1719 -11.8203 21.1719 -11.8203 103.175 158.062 c 128,-1,40
 185.179 327.945 185.179 327.945 367.505 448.537 c 0,41,42
 552.465 570.872 552.465 570.872 816.741 636.065 c 1,43,44
 806.553 641.189 806.553 641.189 796.801 646.248 c 0,45,46
 655.019 720.312 655.019 720.312 562.376 712.509 c 0,47,48
 467.769 704.536 467.769 704.536 393.014 556.645 c 2,49,-1
 377.95 526.844 l 1,50,-1
 330.834 529.516 l 2,51,52
 244.753 534.397 244.753 534.397 283.961 725.246 c 0,53,54
 294.377 775.947 294.377 775.947 308.792 805.736 c 0,55,56
 345.376 881.339 345.376 881.339 408.862 922.83 c 128,-1,57
 472.347 964.321 472.347 964.321 555.223 966.471 c 0,58,59
 697.23 970.92 697.23 970.92 945.296 829.044 c 0,60,61
 1050.06 769.136 1050.06 769.136 1261.23 745.933 c 2,62,-1
 1314.6 740.068 l 1,0,-1
EndSplineSet
EndChar

StartChar: uniFEA3
Encoding: 65187 65187 171
Width: 1242
VWidth: 2342
GlyphClass: 2
Flags: W
AnchorPoint: "Anchor-10" 287.645 1146.46 basechar 0
AnchorPoint: "Anchor-7" 494.345 -190.447 basechar 0
LayerCount: 2
Fore
SplineSet
669.709 151.335 m 0,0,1
 420.716 -0.436518 420.716 -0.436518 15.4951 -0.436523 c 2,2,-1
 -20.9795 -0.436523 l 5,3,-1
 -20.9795 281.682 l 5,4,-1
 6.12012 281.682 l 2,5,6
 332.183 281.686 332.183 281.686 594.301 380.714 c 0,7,8
 677.309 411.812 677.309 411.812 734.253 434.943 c 1,9,10
 663.868 460.377 663.868 460.377 573.714 502.526 c 0,11,12
 490.702 541.336 490.702 541.336 429.772 557.915 c 128,-1,13
 368.843 574.493 368.843 574.493 340.871 570.162 c 0,14,15
 237.599 554.179 237.599 554.179 148.99 378.879 c 2,16,-1
 133.927 349.079 l 1,17,-1
 86.8096 351.75 l 2,18,19
 70.0763 352.699 70.0763 352.699 57.4805 357.925 c 128,-1,20
 44.8799 363.151 44.8799 363.151 37.7842 373.108 c 128,-1,21
 30.6885 383.065 30.6885 383.065 25.8623 393.078 c 128,-1,22
 21.0361 403.091 21.0361 403.091 20.6719 418.862 c 128,-1,23
 20.3086 434.635 20.3086 434.635 20.2988 445.89 c 128,-1,24
 20.29 457.145 20.29 457.145 23.7012 475.188 c 128,-1,25
 27.1123 493.23 27.1123 493.23 28.9639 502.185 c 128,-1,26
 30.8154 511.138 30.8154 511.138 35.0459 527.908 c 128,-1,27
 39.2764 544.68 39.2764 544.68 40.0869 548.138 c 0,28,29
 57.7051 623.31 57.7051 623.31 73.6514 655.989 c 0,30,31
 112.951 735.42 112.951 735.42 178.081 781.708 c 128,-1,32
 243.211 827.996 243.211 827.996 328.965 836.751 c 0,33,34
 400.102 843.604 400.102 843.604 497.943 809.374 c 128,-1,35
 595.785 775.146 595.785 775.146 734.416 699.757 c 0,36,37
 867.089 626.818 867.089 626.818 1109.97 582.579 c 2,38,-1
 1159.36 573.583 l 1,39,-1
 1119.56 333.673 l 1,40,-1
 1069.65 341.455 l 2,41,42
 1055.53 343.657 1055.53 343.657 1007.97 326.407 c 128,-1,43
 960.42 309.157 960.42 309.157 868.779 262.95 c 128,-1,44
 777.14 216.742 777.14 216.742 669.709 151.335 c 0,0,1
EndSplineSet
EndChar

StartChar: uniFEA4
Encoding: 65188 65188 172
Width: 1215
VWidth: 2342
GlyphClass: 2
Flags: W
AnchorPoint: "Anchor-10" 364.224 1168.15 basechar 0
AnchorPoint: "Anchor-7" 542.304 -198.39 basechar 0
LayerCount: 2
Fore
SplineSet
923.377 294.097 m 1,0,1
 956.889 281.173 956.889 281.173 1018.58 281.173 c 2,2,-1
 1236.5 281.173 l 5,3,-1
 1236.5 -0.900391 l 5,4,-1
 995.898 -0.900391 l 2,5,6
 906.094 -0.900391 906.094 -0.900391 837.992 48.5225 c 128,-1,7
 769.89 97.9463 769.89 97.9463 729.737 188.213 c 1,8,-1
 669.815 151.4 l 1,9,10
 420.716 -0.436518 420.716 -0.436518 15.4951 -0.436523 c 2,11,-1
 -20.9795 -0.436523 l 1,12,-1
 -20.9795 281.682 l 1,13,-1
 17.1201 281.682 l 2,14,15
 332.179 281.685 332.179 281.685 594.311 380.718 c 0,16,17
 674.654 410.817 674.654 410.817 730.58 433.453 c 1,18,19
 655.127 459.944 655.127 459.944 571.702 503.521 c 0,20,21
 429.979 577.549 429.979 577.549 337.352 569.742 c 0,22,23
 293.698 566.062 293.698 566.062 245.479 520.214 c 128,-1,24
 197.251 474.356 197.251 474.356 148.99 378.879 c 2,25,-1
 133.927 349.079 l 1,26,-1
 86.8086 351.75 l 2,27,28
 70.191 352.692 70.191 352.692 57.708 358.002 c 128,-1,29
 45.2227 363.312 45.2227 363.312 38.1221 373.019 c 128,-1,30
 31.0215 382.725 31.0215 382.725 26.3477 393.15 c 128,-1,31
 21.6748 403.576 21.6748 403.576 21.1602 418.752 c 128,-1,32
 20.6445 433.927 20.6445 433.927 20.8232 445.906 c 128,-1,33
 21.002 457.886 21.002 457.886 24.1123 474.969 c 128,-1,34
 27.2227 492.051 27.2227 492.051 29.292 502.021 c 128,-1,35
 31.3623 511.993 31.3623 511.993 35.1377 527.42 c 128,-1,36
 38.9121 542.848 38.9121 542.848 39.9453 547.516 c 0,37,38
 56.8887 624.112 56.8887 624.112 87.8086 672.412 c 0,39,40
 183.983 822.651 183.983 822.651 345.916 828.883 c 0,41,42
 409.824 831.025 409.824 831.025 499.374 798.418 c 128,-1,43
 588.924 765.812 588.924 765.812 718.808 697.084 c 0,44,45
 861.026 621.83 861.026 621.83 1121.38 582.843 c 2,46,-1
 1172.62 575.17 l 1,47,-1
 1132.93 335.922 l 1,48,-1
 1084.99 341.146 l 2,49,50
 1037.7 346.299 1037.7 346.299 923.377 294.097 c 1,0,1
EndSplineSet
EndChar

StartChar: uniFEAA
Encoding: 65194 65194 178
Width: 1041
VWidth: 2336
GlyphClass: 2
Flags: W
AnchorPoint: "Anchor-10" 452.035 1222.14 basechar 0
AnchorPoint: "Anchor-7" 357.176 -225.449 basechar 0
LayerCount: 2
Fore
SplineSet
634.974 366.886 m 2,0,-1
 505.896 569.501 l 2,1,2
 485.582 601.388 485.582 601.388 469.98 630.75 c 0,3,4
 433.124 700.11 433.124 700.11 422.065 760.789 c 128,-1,5
 411.008 821.468 411.008 821.468 432.131 873.958 c 128,-1,6
 453.253 926.447 453.253 926.447 510.153 956.659 c 2,7,-1
 575.889 991.562 l 1,8,-1
 835.802 483.716 l 1,9,10
 894.978 381.223 894.978 381.223 945.465 331.56 c 128,-1,11
 995.952 281.896 995.952 281.896 1024.93 280.656 c 2,12,-1
 1034.35 280.253 l 1,13,-1
 1061.29 280.253 l 1,14,-1
 1061.29 -0.759766 l 1,15,-1
 1038.69 -0.759766 l 2,16,17
 889.628 -0.759768 889.628 -0.759768 773.517 125.509 c 1,18,19
 600.487 -36.9893 600.487 -36.9893 322.537 -30.3799 c 0,20,21
 302.587 -29.9053 302.587 -29.9053 283.046 -28.7256 c 0,22,23
 155.262 -21.0107 155.262 -21.0107 82.4395 45.4658 c 128,-1,24
 9.61719 111.942 9.61719 111.942 9.61719 228.13 c 2,25,-1
 9.61719 333.027 l 1,26,-1
 80.623 302.747 l 2,27,28
 189.535 256.302 189.535 256.302 335.542 252.852 c 0,29,30
 473.29 249.631 473.29 249.631 606.355 311.936 c 0,31,32
 629.747 322.822 629.747 322.822 635.019 331.864 c 128,-1,33
 640.29 340.906 640.29 340.906 637.135 358.128 c 0,34,35
 635.684 365.772 635.684 365.772 634.974 366.886 c 2,0,-1
EndSplineSet
EndChar

StartChar: uniFEAE
Encoding: 65198 65198 182
Width: 954
VWidth: 2365
GlyphClass: 2
Flags: W
AnchorPoint: "Anchor-10" 489.796 915.783 basechar 0
AnchorPoint: "Anchor-7" 461.097 -610.14 basechar 0
LayerCount: 2
Fore
SplineSet
922.727 280.822 m 2,0,-1
 974.53 280.822 l 1,1,-1
 974.53 -0.292969 l 1,2,-1
 962.533 -0.294922 l 1,3,-1
 904.003 -0.290039 l 2,4,5
 845.507 -0.285159 845.507 -0.285159 799.479 20.2803 c 1,6,7
 747.309 -194.336 747.309 -194.336 618.016 -310.84 c 128,-1,8
 488.723 -427.344 488.723 -427.344 289.956 -434.963 c 0,9,10
 113.295 -441.744 113.295 -441.744 -29.5947 -307.579 c 2,11,-1
 -110.042 -232.044 l 1,12,-1
 0.351562 -219.637 l 2,13,14
 167.426 -200.86 167.426 -200.86 288.266 -165.456 c 0,15,16
 408.608 -130.198 408.608 -130.198 479.899 -80.0322 c 128,-1,17
 551.191 -29.8672 551.191 -29.8672 581.941 31.709 c 128,-1,18
 612.692 93.2842 612.692 93.2842 606.729 169.198 c 0,19,20
 603.344 212.366 603.344 212.366 562.398 313.757 c 1,21,22
 527.214 397.661 527.214 397.661 542.967 474.686 c 128,-1,23
 558.72 551.709 558.72 551.709 625.781 602.794 c 2,24,-1
 719.636 674.29 l 1,25,-1
 742.516 607.336 l 2,26,27
 790.648 466.487 790.648 466.487 820.93 341.333 c 0,28,29
 835.571 280.821 835.571 280.821 922.727 280.822 c 2,0,-1
EndSplineSet
PairPos2: "'kern' Horizontal Kerning lookup 15-1" uni06CC dx=-141 dy=0 dh=-141 dv=0 dx=0 dy=0 dh=0 dv=0
PairPos2: "'kern' Horizontal Kerning lookup 15-1" uniFEEB dx=-213 dy=0 dh=-213 dv=0 dx=0 dy=0 dh=0 dv=0
PairPos2: "'kern' Horizontal Kerning lookup 15-1" uniFB58 dx=99 dy=0 dh=99 dv=0 dx=0 dy=0 dh=0 dv=0
PairPos2: "'kern' Horizontal Kerning lookup 15-1" uniFEF3 dx=99 dy=0 dh=99 dv=0 dx=0 dy=0 dh=0 dv=0
PairPos2: "'kern' Horizontal Kerning lookup 15-1" uniFBFE dx=99 dy=0 dh=99 dv=0 dx=0 dy=0 dh=0 dv=0
PairPos2: "'kern' Horizontal Kerning lookup 15-1" uniFEDF dx=-213 dy=0 dh=-213 dv=0 dx=0 dy=0 dh=0 dv=0
PairPos2: "'kern' Horizontal Kerning lookup 15-1" uniFB90 dx=-213 dy=0 dh=-213 dv=0 dx=0 dy=0 dh=0 dv=0
PairPos2: "'kern' Horizontal Kerning lookup 15-1" uni06A9 dx=-213 dy=0 dh=-213 dv=0 dx=0 dy=0 dh=0 dv=0
PairPos2: "'kern' Horizontal Kerning lookup 15-1" uni0649 dx=-141 dy=0 dh=-141 dv=0 dx=0 dy=0 dh=0 dv=0
PairPos2: "'kern' Horizontal Kerning lookup 15-1" uni0647 dx=-213 dy=0 dh=-213 dv=0 dx=0 dy=0 dh=0 dv=0
PairPos2: "'kern' Horizontal Kerning lookup 15-1" uniFEE7 dx=-213 dy=0 dh=-213 dv=0 dx=0 dy=0 dh=0 dv=0
PairPos2: "'kern' Horizontal Kerning lookup 15-1" uniFEE3 dx=-213 dy=0 dh=-213 dv=0 dx=0 dy=0 dh=0 dv=0
PairPos2: "'kern' Horizontal Kerning lookup 15-1" uni0645 dx=-213 dy=0 dh=-213 dv=0 dx=0 dy=0 dh=0 dv=0
PairPos2: "'kern' Horizontal Kerning lookup 15-1" uniFEDB dx=-213 dy=0 dh=-213 dv=0 dx=0 dy=0 dh=0 dv=0
PairPos2: "'kern' Horizontal Kerning lookup 15-1" uniFED7 dx=-213 dy=0 dh=-213 dv=0 dx=0 dy=0 dh=0 dv=0
PairPos2: "'kern' Horizontal Kerning lookup 15-1" uniFED3 dx=-213 dy=0 dh=-213 dv=0 dx=0 dy=0 dh=0 dv=0
PairPos2: "'kern' Horizontal Kerning lookup 15-1" uni0641 dx=-213 dy=0 dh=-213 dv=0 dx=0 dy=0 dh=0 dv=0
PairPos2: "'kern' Horizontal Kerning lookup 15-1" uniFECF dx=-213 dy=0 dh=-213 dv=0 dx=0 dy=0 dh=0 dv=0
PairPos2: "'kern' Horizontal Kerning lookup 15-1" uniFECB dx=-213 dy=0 dh=-213 dv=0 dx=0 dy=0 dh=0 dv=0
PairPos2: "'kern' Horizontal Kerning lookup 15-1" uniFEC7 dx=-213 dy=0 dh=-213 dv=0 dx=0 dy=0 dh=0 dv=0
PairPos2: "'kern' Horizontal Kerning lookup 15-1" uni0638 dx=-213 dy=0 dh=-213 dv=0 dx=0 dy=0 dh=0 dv=0
PairPos2: "'kern' Horizontal Kerning lookup 15-1" uniFEC3 dx=-213 dy=0 dh=-213 dv=0 dx=0 dy=0 dh=0 dv=0
PairPos2: "'kern' Horizontal Kerning lookup 15-1" uni0637 dx=-213 dy=0 dh=-213 dv=0 dx=0 dy=0 dh=0 dv=0
PairPos2: "'kern' Horizontal Kerning lookup 15-1" uniFEBF dx=-213 dy=0 dh=-213 dv=0 dx=0 dy=0 dh=0 dv=0
PairPos2: "'kern' Horizontal Kerning lookup 15-1" uni0636 dx=-213 dy=0 dh=-213 dv=0 dx=0 dy=0 dh=0 dv=0
PairPos2: "'kern' Horizontal Kerning lookup 15-1" uniFEBB dx=-213 dy=0 dh=-213 dv=0 dx=0 dy=0 dh=0 dv=0
PairPos2: "'kern' Horizontal Kerning lookup 15-1" uni0635 dx=-213 dy=0 dh=-213 dv=0 dx=0 dy=0 dh=0 dv=0
PairPos2: "'kern' Horizontal Kerning lookup 15-1" uniFEB7 dx=-213 dy=0 dh=-213 dv=0 dx=0 dy=0 dh=0 dv=0
PairPos2: "'kern' Horizontal Kerning lookup 15-1" uni0634 dx=-213 dy=0 dh=-213 dv=0 dx=0 dy=0 dh=0 dv=0
PairPos2: "'kern' Horizontal Kerning lookup 15-1" uniFEB3 dx=-213 dy=0 dh=-213 dv=0 dx=0 dy=0 dh=0 dv=0
PairPos2: "'kern' Horizontal Kerning lookup 15-1" uni0633 dx=-213 dy=0 dh=-213 dv=0 dx=0 dy=0 dh=0 dv=0
PairPos2: "'kern' Horizontal Kerning lookup 15-1" uni0630 dx=-213 dy=0 dh=-213 dv=0 dx=0 dy=0 dh=0 dv=0
PairPos2: "'kern' Horizontal Kerning lookup 15-1" uni062F dx=-213 dy=0 dh=-213 dv=0 dx=0 dy=0 dh=0 dv=0
PairPos2: "'kern' Horizontal Kerning lookup 15-1" uniFEA7 dx=-213 dy=0 dh=-213 dv=0 dx=0 dy=0 dh=0 dv=0
PairPos2: "'kern' Horizontal Kerning lookup 15-1" uniFEA3 dx=-213 dy=0 dh=-213 dv=0 dx=0 dy=0 dh=0 dv=0
PairPos2: "'kern' Horizontal Kerning lookup 15-1" uniFE9F dx=-213 dy=0 dh=-213 dv=0 dx=0 dy=0 dh=0 dv=0
PairPos2: "'kern' Horizontal Kerning lookup 15-1" uniFE9B dx=-213 dy=0 dh=-213 dv=0 dx=0 dy=0 dh=0 dv=0
PairPos2: "'kern' Horizontal Kerning lookup 15-1" uni062B dx=-213 dy=0 dh=-213 dv=0 dx=0 dy=0 dh=0 dv=0
PairPos2: "'kern' Horizontal Kerning lookup 15-1" uniFE97 dx=-213 dy=0 dh=-213 dv=0 dx=0 dy=0 dh=0 dv=0
PairPos2: "'kern' Horizontal Kerning lookup 15-1" uni062A dx=-213 dy=0 dh=-213 dv=0 dx=0 dy=0 dh=0 dv=0
PairPos2: "'kern' Horizontal Kerning lookup 15-1" uni0629 dx=-213 dy=0 dh=-213 dv=0 dx=0 dy=0 dh=0 dv=0
PairPos2: "'kern' Horizontal Kerning lookup 15-1" uni0628 dx=-213 dy=0 dh=-213 dv=0 dx=0 dy=0 dh=0 dv=0
PairPos2: "'kern' Horizontal Kerning lookup 15-1" uni0627 dx=-241 dy=0 dh=-241 dv=0 dx=0 dy=0 dh=0 dv=0
PairPos2: "'kern' Horizontal Kerning lookup 15-1" uni0622 dx=-241 dy=0 dh=-241 dv=0 dx=0 dy=0 dh=0 dv=0
PairPos2: "'kern' Horizontal Kerning lookup 15-1" uniFB94 dx=-213 dy=0 dh=-213 dv=0 dx=0 dy=0 dh=0 dv=0
PairPos2: "'kern' Horizontal Kerning lookup 15-1" afii57509 dx=-213 dy=0 dh=-213 dv=0 dx=0 dy=0 dh=0 dv=0
PairPos2: "'kern' Horizontal Kerning lookup 15-1" uniFB56 dx=-213 dy=0 dh=-213 dv=0 dx=0 dy=0 dh=0 dv=0
PairPos2: "'kern' Horizontal Kerning lookup 15-1" afii57506 dx=-213 dy=0 dh=-213 dv=0 dx=0 dy=0 dh=0 dv=0
EndChar

StartChar: uniFEB2
Encoding: 65202 65202 186
Width: 2471
VWidth: 2341
GlyphClass: 2
Flags: W
AnchorPoint: "Anchor-10" 586.867 982.321 basechar 0
AnchorPoint: "Anchor-7" 411.967 -695.659 basechar 0
LayerCount: 2
Fore
SplineSet
1317.4 339.369 m 4,0,1
 1336.91 303.767 1336.91 303.767 1363 288.458 c 132,-1,2
 1389.1 273.147 1389.1 273.147 1429.12 273.812 c 6,3,-1
 1468.04 274.458 l 6,4,5
 1503.75 275.051 1503.75 275.051 1529.7 301.885 c 4,6,7
 1556.62 329.714 1556.62 329.714 1577.58 401.934 c 6,8,-1
 1601.9 485.713 l 6,9,10
 1618.57 543.137 1618.57 543.137 1658.34 577.732 c 132,-1,11
 1698.1 612.329 1698.1 612.329 1754.18 612.329 c 6,12,-1
 1820.37 612.329 l 5,13,-1
 1810.96 449.166 l 6,14,15
 1809.46 423.231 1809.46 423.231 1810.61 400.982 c 4,16,17
 1814.56 324.301 1814.56 324.301 1843.4 296.173 c 132,-1,18
 1872.23 268.045 1872.23 268.045 1939.15 271.535 c 4,19,20
 1987.52 274.062 1987.52 274.062 2011.88 306.229 c 132,-1,21
 2036.23 338.399 2036.23 338.399 2039.93 420.173 c 6,22,-1
 2042.2 470.281 l 6,23,24
 2044.24 515.371 2044.24 515.371 2053.4 552.852 c 132,-1,25
 2062.56 590.342 2062.56 590.342 2079.98 621.438 c 132,-1,26
 2097.4 652.531 2097.4 652.531 2126.76 670.023 c 132,-1,27
 2156.12 687.515 2156.12 687.515 2194.99 687.515 c 6,28,-1
 2263.68 687.515 l 5,29,-1
 2263.04 451.467 l 6,30,31
 2262.77 352.131 2262.77 352.131 2325.27 306.553 c 4,32,33
 2356.15 283.526 2356.15 283.526 2444.18 283.527 c 6,34,-1
 2492.48 283.527 l 5,35,-1
 2492.48 1.45508 l 5,36,-1
 2450.7 1.45508 l 6,37,38
 2245.52 1.45508 2245.52 1.45508 2155.44 114.097 c 5,39,40
 2070.35 7.21484 2070.35 7.21484 1921.11 3.71875 c 4,41,42
 1841.49 1.95898 1841.49 1.95898 1796.59 22.6758 c 4,43,44
 1730.03 53.8984 1730.03 53.8984 1684.96 117.789 c 5,45,46
 1604.45 1.46094 1604.45 1.46094 1464.7 1.46094 c 6,47,-1
 1422.26 1.46094 l 6,48,49
 1376.37 1.46094 1376.37 1.46094 1335.99 17.2441 c 5,50,51
 1334.71 -8.27637 1334.71 -8.27637 1330.94 -33.2256 c 4,52,53
 1296.09 -263.243 1296.09 -263.243 1128.16 -382.704 c 132,-1,54
 960.234 -502.166 960.234 -502.166 676.018 -507.354 c 4,55,56
 284.938 -514.516 284.938 -514.516 129.783 -291.623 c 4,57,58
 10.2432 -118.516 10.2432 -118.516 72.5664 144.169 c 4,59,60
 94.4414 236.373 94.4414 236.373 125.232 316.398 c 4,61,62
 176.668 454.688 176.668 454.688 279 454.688 c 6,63,-1
 366.325 454.688 l 5,64,-1
 338.58 384.855 l 6,65,66
 222.278 92.1299 222.278 92.1299 291.294 -53.5254 c 4,67,68
 335.191 -146.82 335.191 -146.82 427.254 -192.576 c 132,-1,69
 519.315 -238.331 519.315 -238.331 670 -235.812 c 4,70,71
 896.039 -232.03 896.039 -232.03 1003.83 -161.176 c 132,-1,72
 1111.62 -90.3203 1111.62 -90.3203 1122.61 47.3418 c 4,73,74
 1128.41 120.533 1128.41 120.533 1112.02 194.564 c 4,75,76
 1102.27 238.602 1102.27 238.602 1084.62 283.129 c 4,77,78
 1055.2 357.866 1055.2 357.866 1048.17 420.229 c 132,-1,79
 1041.15 482.593 1041.15 482.593 1062.25 535.981 c 132,-1,80
 1083.36 589.379 1083.36 589.379 1135.86 620.269 c 6,81,-1
 1239.9 681.488 l 5,82,-1
 1253.43 610.322 l 6,83,84
 1267.59 535.86 1267.59 535.86 1281.8 472.87 c 132,-1,85
 1296 409.984 1296 409.984 1304.81 378.122 c 132,-1,86
 1313.62 346.26 1313.62 346.26 1317.4 339.369 c 4,0,1
EndSplineSet
EndChar

StartChar: uniFEB3
Encoding: 65203 65203 187
Width: 1421
VWidth: 2341
GlyphClass: 2
Flags: W
AnchorPoint: "Anchor-10" 640.331 1040.51 basechar 0
AnchorPoint: "Anchor-7" 619.53 -171.6 basechar 0
LayerCount: 2
Fore
SplineSet
1000.39 282.305 m 0,0,1
 1086.71 280.194 1086.71 280.194 1108.04 323.055 c 1,2,3
 1104.15 347.804 1104.15 347.804 1087.38 409.62 c 0,4,5
 1047.55 556.371 1047.55 556.371 1044.17 571.987 c 0,6,7
 1020.3 659.05 1020.3 659.05 1053.09 729.136 c 128,-1,8
 1085.88 799.22 1085.88 799.22 1168.1 838.521 c 2,9,-1
 1235.61 870.79 l 1,10,-1
 1253.84 815.941 l 2,11,12
 1318.42 621.639 1318.42 621.639 1329.45 445.479 c 0,13,14
 1341.03 243.937 1341.03 243.937 1240.86 127.179 c 0,15,16
 1132.43 1.80762 1132.43 1.80762 982.966 0.333008 c 0,17,18
 909.43 -0.304688 909.43 -0.304688 864.44 21.2793 c 0,19,20
 797.35 53.4678 797.35 53.4678 753.629 111.544 c 1,21,22
 671.369 0.046875 671.369 0.046875 516.092 -0.195312 c 0,23,24
 364.308 0.418945 364.308 0.418945 282.194 111.84 c 1,25,26
 254.026 76.3125 254.026 76.3125 218.255 52.083 c 0,27,28
 141.069 -0.19922 141.069 -0.19922 27.8633 -0.199219 c 2,29,-1
 -21.3438 -0.199219 l 5,30,-1
 -21.3438 280.92 l 5,31,-1
 17.4814 280.92 l 2,32,33
 152.82 280.92 152.82 280.92 181.908 340.263 c 0,34,35
 187.72 352.118 187.72 352.118 190.069 367.312 c 2,36,-1
 201.061 438.411 l 2,37,38
 212.758 514.069 212.758 514.069 253.098 561.312 c 128,-1,39
 293.438 608.555 293.438 608.555 359.996 608.555 c 2,40,-1
 434.515 608.555 l 1,41,-1
 416.128 444.92 l 2,42,43
 413.561 422.075 413.561 422.075 413.312 402.05 c 0,44,45
 412.399 328.756 412.399 328.756 436.428 301.142 c 128,-1,46
 460.457 273.527 460.457 273.527 520.149 272.796 c 0,47,48
 572.823 272.182 572.823 272.182 602.114 297.5 c 128,-1,49
 631.405 322.817 631.405 322.817 646.318 386.048 c 2,50,-1
 660.341 445.506 l 2,51,52
 677.58 518.6 677.58 518.6 717.978 563.576 c 128,-1,53
 758.375 608.555 758.375 608.555 821.276 608.555 c 2,54,-1
 889.022 608.555 l 1,55,-1
 878.243 483.565 l 2,56,57
 876.761 466.383 876.761 466.383 876.373 450.556 c 0,58,59
 874.097 357.546 874.097 357.546 903.16 320.733 c 128,-1,60
 932.225 283.921 932.225 283.921 1000.39 282.305 c 0,0,1
EndSplineSet
EndChar

StartChar: uniFEB4
Encoding: 65204 65204 188
Width: 1546
VWidth: 2346
GlyphClass: 2
Flags: W
AnchorPoint: "Anchor-10" 606.883 1039.88 basechar 0
AnchorPoint: "Anchor-7" 705.463 -188.13 basechar 0
LayerCount: 2
Fore
SplineSet
1010.95 269.555 m 0,0,1
 1052.32 271.721 1052.32 271.721 1074.62 303.531 c 128,-1,2
 1096.93 335.338 1096.93 335.338 1100.68 418.189 c 2,3,-1
 1102.95 468.3 l 2,4,5
 1104.99 513.339 1104.99 513.339 1114.16 550.868 c 128,-1,6
 1123.32 588.356 1123.32 588.356 1140.73 619.452 c 128,-1,7
 1158.15 650.548 1158.15 650.548 1187.51 668.039 c 128,-1,8
 1216.88 685.53 1216.88 685.53 1255.74 685.53 c 2,9,-1
 1335.43 685.53 l 1,10,-1
 1334.79 449.482 l 2,11,12
 1334.52 350.209 1334.52 350.209 1397.03 304.559 c 0,13,14
 1427.9 281.543 1427.9 281.543 1515.93 281.543 c 2,15,-1
 1566.23 281.543 l 1,16,-1
 1566.23 -0.529297 l 1,17,-1
 1522.45 -0.529297 l 2,18,19
 1317.29 -0.529298 1317.29 -0.529298 1227.19 112.112 c 1,20,21
 1142.08 5.22949 1142.08 5.22949 992.862 1.73535 c 0,22,23
 914.088 -0.00683594 914.088 -0.00683594 868.472 20.625 c 0,24,25
 801.422 52.4023 801.422 52.4023 756.708 115.803 c 1,26,27
 675.938 -0.901367 675.938 -0.901367 536.38 -0.523438 c 0,28,29
 365.261 -0.0595703 365.261 -0.0595703 277.865 117.248 c 1,30,31
 246.972 76.5361 246.972 76.5361 212.283 52.2178 c 0,32,33
 145.96 5.71859 145.96 5.71859 30.5156 0.487305 c 2,34,-1
 -20.9912 -1.84668 l 5,35,-1
 -20.9912 280.589 l 5,36,-1
 17.833 280.589 l 2,37,38
 147.196 280.589 147.196 280.589 179.703 343.499 c 0,39,40
 187.253 358.109 187.253 358.109 190.598 377.084 c 2,41,-1
 207.889 475.182 l 2,42,43
 218.726 536.666 218.726 536.666 259.886 573.506 c 128,-1,44
 301.047 610.345 301.047 610.345 362.068 610.345 c 2,45,-1
 437.568 610.345 l 1,46,-1
 416.377 446.771 l 2,47,48
 413.291 422.95 413.291 422.95 413.038 402.246 c 0,49,50
 412.165 330.665 412.165 330.665 440.284 301.985 c 128,-1,51
 468.403 273.306 468.403 273.306 540.504 272.466 c 0,52,53
 574.395 272.068 574.395 272.068 601.421 300.039 c 128,-1,54
 628.447 328.012 628.447 328.012 649.332 399.95 c 2,55,-1
 673.654 483.729 l 2,56,57
 690.324 541.151 690.324 541.151 730.088 575.748 c 128,-1,58
 769.851 610.345 769.851 610.345 825.928 610.345 c 2,59,-1
 892.113 610.345 l 1,60,-1
 882.699 447.18 l 2,61,62
 881.207 421.318 881.207 421.318 882.355 398.996 c 0,63,64
 886.301 322.318 886.301 322.318 915.154 294.189 c 128,-1,65
 944.008 266.062 944.008 266.062 1010.95 269.555 c 0,0,1
EndSplineSet
EndChar

StartChar: uniFEBA
Encoding: 65210 65210 194
Width: 2590
VWidth: 2342
GlyphClass: 2
Flags: W
AnchorPoint: "Anchor-10" 615.066 1086.21 basechar 0
AnchorPoint: "Anchor-7" 389.286 -668.091 basechar 0
LayerCount: 2
Fore
SplineSet
1630.13 281.099 m 1,0,-1
 1708.56 281.099 l 2,1,2
 1841.68 281.099 1841.68 281.099 1975.23 304.108 c 0,3,4
 2173.23 336.949 2173.23 336.949 2166.11 444.894 c 1,5,6
 2150.47 586.009 2150.47 586.009 2030.97 572.258 c 0,7,8
 1955.93 563.622 1955.93 563.622 1794.24 436.801 c 0,9,10
 1723.23 381.108 1723.23 381.108 1630.13 281.099 c 1,0,-1
1357.2 316.745 m 5,11,12
 1491.68 477.957 1491.68 477.957 1702.66 643.456 c 0,13,14
 1884.55 786.815 1884.55 786.815 2025.67 802.099 c 0,15,16
 2177.15 818.729 2177.15 818.729 2270.54 736.951 c 128,-1,17
 2363.94 655.174 2363.94 655.174 2386.7 491.483 c 0,18,19
 2396.98 417.49 2396.98 417.49 2384.72 352.721 c 1,20,21
 2452.32 280.833 2452.32 280.833 2554.07 280.833 c 2,22,-1
 2610.96 280.833 l 1,23,-1
 2610.96 -0.180664 l 1,24,-1
 2531.39 -0.180664 l 2,25,26
 2304.6 -0.180664 2304.6 -0.180664 2211.66 113.535 c 1,27,28
 2190.54 100.448 2190.54 100.448 2168.01 89.0986 c 0,29,30
 1988.58 -1.27781 1988.58 -1.27781 1769.68 -0.710938 c 2,31,-1
 1495.15 0 l 2,32,33
 1400.87 0.244153 1400.87 0.244153 1335.28 24.5107 c 1,34,35
 1334.32 -4.27832 1334.32 -4.27832 1329.94 -33.2256 c 0,36,37
 1295.09 -263.243 1295.09 -263.243 1127.16 -382.704 c 128,-1,38
 959.234 -502.166 959.234 -502.166 675.018 -507.354 c 0,39,40
 283.938 -514.516 283.938 -514.516 128.782 -291.623 c 0,41,42
 11.8564 -122.301 11.8564 -122.301 71.4229 143.546 c 0,43,44
 90.6592 229.398 90.6592 229.398 124.353 316.712 c 0,45,46
 148.61 379.572 148.61 379.572 189.599 417.13 c 128,-1,47
 230.587 454.688 230.587 454.688 287 454.688 c 2,48,-1
 377.161 454.688 l 1,49,-1
 348.062 384.222 l 2,50,51
 225.22 86.7485 225.22 86.7485 290.385 -53.7188 c 0,52,53
 334.174 -146.782 334.174 -146.782 426.285 -192.556 c 128,-1,54
 518.396 -238.33 518.396 -238.33 669 -235.812 c 0,55,56
 895.039 -232.03 895.039 -232.03 1002.83 -161.176 c 128,-1,57
 1110.62 -90.3203 1110.62 -90.3203 1121.61 47.3418 c 0,58,59
 1127.41 120.533 1127.41 120.533 1111.02 194.564 c 0,60,61
 1101.27 238.602 1101.27 238.602 1083.62 283.129 c 0,62,63
 1054.2 357.866 1054.2 357.866 1047.17 420.229 c 128,-1,64
 1040.15 482.593 1040.15 482.593 1061.25 535.981 c 128,-1,65
 1082.36 589.376 1082.36 589.376 1134.86 620.269 c 2,66,-1
 1238.9 681.488 l 1,67,-1
 1252.43 610.322 l 2,68,69
 1266.41 536.764 1266.41 536.764 1280.57 473.718 c 0,70,71
 1294.66 410.95 1294.66 410.95 1303.24 379.399 c 0,72,73
 1320.65 315.366 1320.65 315.366 1357.2 316.745 c 5,11,12
EndSplineSet
EndChar

StartChar: uniFEBB
Encoding: 65211 65211 195
Width: 1654
VWidth: 2342
GlyphClass: 2
Flags: W
AnchorPoint: "Anchor-10" 535.518 1164.87 basechar 0
AnchorPoint: "Anchor-7" 661.658 -237.295 basechar 0
LayerCount: 2
Fore
SplineSet
791.9 281.695 m 5,0,-1
 870.335 281.695 l 6,1,2
 1003.45 281.695 1003.45 281.695 1137 304.705 c 4,3,4
 1335 337.546 1335 337.546 1327.88 445.49 c 5,5,6
 1312.24 586.605 1312.24 586.605 1192.74 572.854 c 4,7,8
 1117.7 564.219 1117.7 564.219 956.007 437.397 c 4,9,10
 885 381.705 885 381.705 791.9 281.695 c 5,0,-1
932.008 -0.115234 m 2,11,-1
 656.921 0.59668 l 2,12,13
 437.318 1.165 437.318 1.165 318.831 134.064 c 1,14,15
 192.801 -0.114258 192.801 -0.114258 18.9697 -0.114258 c 2,16,-1
 -21.3047 -0.114258 l 1,17,-1
 -21.3047 281.004 l 1,18,-1
 7.58789 281.004 l 2,19,20
 99.7974 281.004 99.7974 281.004 148.801 310.097 c 0,21,22
 194.254 337.083 194.254 337.083 191.574 365.242 c 2,23,-1
 187.148 411.754 l 2,24,25
 184.843 435.977 184.843 435.977 184.818 457.799 c 0,26,27
 184.713 551.215 184.713 551.215 232.81 608.002 c 128,-1,28
 280.907 664.788 280.907 664.788 367.99 664.788 c 2,29,-1
 426.315 664.788 l 1,30,-1
 435.139 438.917 l 2,31,32
 436.568 402.347 436.568 402.347 457.844 374.456 c 128,-1,33
 479.119 346.565 479.119 346.565 532.387 332.431 c 1,34,35
 666.87 489.117 666.87 489.117 864.429 644.053 c 0,36,37
 1046.3 787.411 1046.3 787.411 1187.5 802.703 c 0,38,39
 1339.47 819.387 1339.47 819.387 1432.94 737.545 c 128,-1,40
 1526.42 655.702 1526.42 655.702 1548.48 491.988 c 0,41,42
 1567.01 358.685 1567.01 358.685 1510.67 255.558 c 128,-1,43
 1454.32 152.431 1454.32 152.431 1329.78 89.6963 c 0,44,45
 1150.37 -0.680346 1150.37 -0.680346 932.008 -0.115234 c 2,11,-1
EndSplineSet
EndChar

StartChar: uniFEBC
Encoding: 65212 65212 196
Width: 1736
VWidth: 2342
GlyphClass: 2
Flags: W
AnchorPoint: "Anchor-10" 563.178 1233.7 basechar 0
AnchorPoint: "Anchor-7" 654.338 -244.466 basechar 0
LayerCount: 2
Fore
SplineSet
791.9 281.695 m 1,0,-1
 870.335 281.695 l 2,1,2
 1003.45 281.695 1003.45 281.695 1137 304.705 c 0,3,4
 1335 337.546 1335 337.546 1327.88 445.49 c 1,5,6
 1312.24 586.605 1312.24 586.605 1192.74 572.854 c 0,7,8
 1117.7 564.219 1117.7 564.219 956.007 437.397 c 0,9,10
 885 381.705 885 381.705 791.9 281.695 c 1,0,-1
1540.44 327.004 m 1,11,12
 1593.7 280.677 1593.7 280.677 1700.29 280.677 c 2,13,-1
 1757.18 280.677 l 1,14,-1
 1757.18 -0.335938 l 1,15,-1
 1677.6 -0.335938 l 2,16,17
 1479.23 -0.335938 1479.23 -0.335938 1386.89 122.803 c 1,18,19
 1359.95 104.894 1359.95 104.894 1329.78 89.6963 c 0,20,21
 1150.37 -0.680346 1150.37 -0.680346 932.008 -0.115234 c 2,22,-1
 656.921 0.59668 l 2,23,24
 437.318 1.165 437.318 1.165 318.831 134.064 c 1,25,26
 192.801 -0.114258 192.801 -0.114258 18.9697 -0.114258 c 2,27,-1
 -21.3047 -0.114258 l 1,28,-1
 -21.3047 281.004 l 1,29,-1
 7.58789 281.004 l 2,30,31
 99.7973 281.004 99.7973 281.004 148.801 310.097 c 0,32,33
 194.254 337.083 194.254 337.083 191.574 365.242 c 2,34,-1
 187.148 411.754 l 2,35,36
 184.843 435.977 184.843 435.977 184.818 457.799 c 0,37,38
 184.713 551.215 184.713 551.215 232.81 608.002 c 128,-1,39
 280.907 664.788 280.907 664.788 367.99 664.788 c 2,40,-1
 426.315 664.788 l 1,41,-1
 435.139 438.917 l 2,42,43
 436.568 402.347 436.568 402.347 457.844 374.456 c 128,-1,44
 479.119 346.565 479.119 346.565 532.387 332.431 c 5,45,46
 666.87 489.117 666.87 489.117 864.429 644.053 c 0,47,48
 1046.3 787.411 1046.3 787.411 1187.49 802.702 c 0,49,50
 1338.91 819.325 1338.91 819.325 1432.31 737.54 c 128,-1,51
 1525.71 655.755 1525.71 655.755 1548.46 492.085 c 0,52,53
 1560.85 403.02 1560.85 403.02 1540.44 327.004 c 1,11,12
EndSplineSet
EndChar

StartChar: uniFEC2
Encoding: 65218 65218 202
Width: 1564
VWidth: 2342
GlyphClass: 2
Flags: W
AnchorPoint: "Anchor-7" 686.472 -231.627 basechar 0
AnchorPoint: "Anchor-10" 345.684 1459.11 basechar 0
LayerCount: 2
Fore
SplineSet
627.9 281.695 m 1,0,-1
 706.335 281.695 l 2,1,2
 839.447 281.695 839.447 281.695 973 304.705 c 0,3,4
 1171 337.546 1171 337.546 1163.88 445.49 c 1,5,6
 1148.24 586.605 1148.24 586.605 1028.74 572.854 c 0,7,8
 953.701 564.219 953.701 564.219 792.007 437.397 c 0,9,10
 721 381.705 721 381.705 627.9 281.695 c 1,0,-1
235.794 280.992 m 1,11,-1
 175.457 1014.17 l 2,12,13
 151.487 1305.44 151.487 1305.44 342.317 1409.84 c 2,14,-1
 437.805 1462.08 l 1,15,-1
 437.123 405.413 l 5,16,17
 567.513 540.065 567.513 540.065 700.498 644.108 c 0,18,19
 882.285 787.41 882.285 787.41 1023.48 802.7 c 0,20,21
 1174.91 819.325 1174.91 819.325 1268.31 737.542 c 128,-1,22
 1361.71 655.758 1361.71 655.758 1384.46 492.083 c 0,23,24
 1394.51 419.809 1394.51 419.809 1383.12 356.669 c 1,25,26
 1450.87 281.416 1450.87 281.416 1528.67 281.416 c 2,27,-1
 1625.56 281.416 l 1,28,-1
 1625.56 0.40332 l 1,29,-1
 1531.43 0.40332 l 2,30,31
 1356.95 0.40332 1356.95 0.40332 1248.03 145.129 c 1,32,33
 1191.48 99.3818 1191.48 99.3818 1124.24 70.2129 c 0,34,35
 960.973 -0.614813 960.973 -0.614813 768.011 -0.115234 c 2,36,-1
 493.035 0.59668 l 1,37,-1
 269.984 0.189453 l 2,38,39
 167.86 0.00300372 167.86 0.00300372 106.591 51.4189 c 128,-1,40
 45.3203 102.834 45.3203 102.834 45.3203 196.958 c 2,41,-1
 45.3203 280.99 l 1,42,-1
 235.794 280.992 l 1,11,-1
EndSplineSet
EndChar

StartChar: uniFEC3
Encoding: 65219 65219 203
Width: 1373
VWidth: 2342
GlyphClass: 2
Flags: W
AnchorPoint: "Anchor-10" 217.85 1514.07 basechar 0
AnchorPoint: "Anchor-7" 482.85 -245.406 basechar 0
LayerCount: 2
Fore
SplineSet
515.899 281.695 m 1,0,-1
 594.335 281.695 l 2,1,2
 727.446 281.695 727.446 281.695 860.999 304.705 c 0,3,4
 1059 337.546 1059 337.546 1051.88 445.49 c 1,5,6
 1036.24 586.605 1036.24 586.605 916.739 572.854 c 0,7,8
 841.701 564.219 841.701 564.219 680.007 437.397 c 0,9,10
 608.999 381.705 608.999 381.705 515.899 281.695 c 1,0,-1
381.03 0.59668 m 1,11,-1
 -20.6797 -0.210938 l 1,12,-1
 -20.6797 280.991 l 1,13,-1
 123.794 280.992 l 1,14,-1
 63.457 1014.17 l 2,15,16
 39.4869 1305.44 39.4869 1305.44 230.317 1409.84 c 2,17,-1
 325.805 1462.08 l 1,18,-1
 325.123 405.413 l 5,19,20
 455.513 540.065 455.513 540.065 588.498 644.108 c 0,21,22
 770.285 787.41 770.285 787.41 911.479 802.7 c 0,23,24
 1062.91 819.325 1062.91 819.325 1156.31 737.542 c 128,-1,25
 1249.71 655.758 1249.71 655.758 1272.46 492.084 c 0,26,27
 1291.01 358.667 1291.01 358.667 1234.68 255.555 c 128,-1,28
 1178.34 152.443 1178.34 152.443 1053.78 89.6963 c 0,29,30
 874.368 -0.680565 874.368 -0.680565 656.008 -0.115234 c 2,31,-1
 381.03 0.59668 l 1,11,-1
EndSplineSet
EndChar

StartChar: uniFEC4
Encoding: 65220 65220 204
Width: 1457
VWidth: 2342
GlyphClass: 2
Flags: W
AnchorPoint: "Anchor-10" 136.939 1502.75 basechar 0
AnchorPoint: "Anchor-7" 537.047 -215.727 basechar 0
LayerCount: 2
Fore
SplineSet
520.9 281.694 m 1,0,-1
 599.335 281.694 l 2,1,2
 732.447 281.694 732.447 281.694 866 304.704 c 0,3,4
 1064 337.545 1064 337.545 1056.88 445.489 c 1,5,6
 1041.24 586.604 1041.24 586.604 921.739 572.854 c 0,7,8
 846.701 564.219 846.701 564.219 685.007 437.396 c 0,9,10
 614 381.704 614 381.704 520.9 281.694 c 1,0,-1
128.794 280.992 m 1,11,-1
 68.457 1014.17 l 2,12,13
 44.4869 1305.44 44.4869 1305.44 235.317 1409.84 c 2,14,-1
 330.805 1462.08 l 1,15,-1
 330.123 405.413 l 5,16,17
 460.513 540.065 460.513 540.065 593.498 644.108 c 0,18,19
 775.285 787.41 775.285 787.41 916.479 802.7 c 0,20,21
 1067.91 819.325 1067.91 819.325 1161.31 737.542 c 128,-1,22
 1254.71 655.758 1254.71 655.758 1277.46 492.083 c 0,23,24
 1287.51 419.809 1287.51 419.809 1276.12 356.669 c 1,25,26
 1343.87 281.416 1343.87 281.416 1421.67 281.416 c 2,27,-1
 1478.56 281.416 l 1,28,-1
 1478.56 0.40332 l 1,29,-1
 1424.43 0.40332 l 2,30,31
 1239.32 0.40332 1239.32 0.40332 1131.81 137.073 c 1,32,33
 1080.4 95.4697 1080.4 95.4697 1018.34 68.2158 c 0,34,35
 859.633 -0.629405 859.633 -0.629405 661.025 -0.115234 c 2,36,-1
 386.035 0.59668 l 1,37,-1
 -21.6797 -0.219727 l 1,38,-1
 -21.6797 280.99 l 1,39,-1
 128.794 280.992 l 1,11,-1
EndSplineSet
EndChar

StartChar: uniFECA
Encoding: 65226 65226 210
Width: 1240
VWidth: 2340
GlyphClass: 2
Flags: W
AnchorPoint: "Anchor-10" 516.886 1250.6 basechar 0
AnchorPoint: "Anchor-7" 373.457 -762.007 basechar 0
LayerCount: 2
Fore
SplineSet
575.842 652.521 m 0,0,1
 525.508 652.521 525.508 652.521 485.759 645.819 c 0,2,3
 450.993 640.035 450.993 640.035 427.727 632.859 c 1,4,5
 440.304 622.832 440.304 622.832 457.936 611.54 c 0,6,7
 516.838 573.818 516.838 573.818 576.29 544.578 c 1,8,9
 626.511 569.156 626.511 569.156 687.494 612.011 c 0,10,11
 703.99 623.771 703.99 623.771 713.313 633.293 c 1,12,13
 697.692 641.355 697.692 641.355 666.987 645.659 c 0,14,15
 618.001 652.521 618.001 652.521 575.842 652.521 c 0,0,1
759.12 388.374 m 1,16,17
 921.77 281.114 921.77 281.114 1188.68 281.114 c 2,18,-1
 1265.69 281.114 l 5,19,-1
 1265.69 -0.898438 l 5,20,-1
 1197.62 -0.898438 l 2,21,22
 860.319 -0.898438 860.319 -0.898438 589.021 255.526 c 1,23,24
 561.626 236.476 561.626 236.476 514.795 205.938 c 0,25,26
 285.989 56.7363 285.989 56.7363 276.875 -130.871 c 0,27,28
 272.519 -216.9 272.519 -216.9 301.95 -280.846 c 0,29,30
 330.532 -342.945 330.532 -342.945 397.133 -393.354 c 0,31,32
 525.556 -489.993 525.556 -489.993 797 -461.29 c 0,33,34
 904.27 -449.724 904.27 -449.724 1081.82 -367.568 c 2,35,-1
 1180.14 -322.078 l 1,36,-1
 1145.61 -453.237 l 2,37,38
 1105.76 -604.622 1105.76 -604.622 971.688 -675.001 c 128,-1,39
 837.608 -745.386 837.608 -745.386 626 -737.191 c 0,40,41
 332.946 -726.111 332.946 -726.111 171.283 -559.87 c 1,42,43
 3.41992 -388.836 3.41992 -388.836 41.0078 -98.0215 c 0,44,45
 77.0234 182.587 77.0234 182.587 374.225 389.885 c 1,46,47
 302.702 430.67 302.702 430.67 244.17 480.697 c 0,48,49
 150.454 560.79 150.454 560.79 157.896 663.074 c 0,50,51
 165.461 770.448 165.461 770.448 303.047 837.057 c 0,52,53
 402.807 885.735 402.807 885.735 561.65 889.042 c 0,54,55
 638.081 890.596 638.081 890.596 707.144 883.25 c 0,56,57
 884.955 863.839 884.955 863.839 940.825 750.658 c 0,58,59
 972.522 685.913 972.522 685.913 955.608 613.896 c 0,60,61
 928.898 500.779 928.898 500.779 759.12 388.374 c 1,16,17
EndSplineSet
EndChar

StartChar: uniFECB
Encoding: 65227 65227 211
Width: 1046
VWidth: 2338
GlyphClass: 2
Flags: W
AnchorPoint: "Anchor-10" 327.569 1316.15 basechar 0
AnchorPoint: "Anchor-7" 460.424 -233.284 basechar 0
LayerCount: 2
Fore
SplineSet
-21.3164 281.064 m 1,0,-1
 122.016 281.061 l 1,1,2
 -4.84277 448.91 -4.84277 448.91 44.042 627.685 c 0,3,4
 76.8818 747.908 76.8818 747.908 164.263 821 c 128,-1,5
 251.643 894.092 251.643 894.092 384.812 915.2 c 0,6,7
 489.959 931.866 489.959 931.866 579.221 900.944 c 0,8,9
 768.578 835.353 768.578 835.353 753.178 678.483 c 6,10,-1
 744.678 591.901 l 1,11,-1
 678.564 634.335 l 2,12,13
 582.217 696.174 582.217 696.174 447.423 674.67 c 0,14,15
 299.799 651.344 299.799 651.344 281.407 536.282 c 0,16,17
 262.464 416.362 262.464 416.362 402.499 317.939 c 1,18,19
 439.019 304.356 439.019 304.356 593.432 332.547 c 2,20,-1
 740.221 359.346 l 2,21,22
 811.616 372.38 811.616 372.38 865.08 332.025 c 128,-1,23
 918.541 291.674 918.541 291.674 946.396 214.028 c 2,24,-1
 969.672 149.146 l 1,25,-1
 918.928 133.287 l 2,26,27
 539.227 14.6192 539.227 14.6192 86.8096 -0.0703125 c 1,28,-1
 -21.3164 -0.0458984 l 1,29,-1
 -21.3164 281.064 l 1,0,-1
EndSplineSet
EndChar

StartChar: uniFECC
Encoding: 65228 65228 212
Width: 1042
VWidth: 2340
GlyphClass: 2
Flags: W
AnchorPoint: "Anchor-10" 454.73 1161.16 basechar 0
AnchorPoint: "Anchor-7" 492.89 -183.98 basechar 0
LayerCount: 2
Fore
SplineSet
521.833 573.604 m 0,0,1
 471.496 573.604 471.496 573.604 431.751 566.902 c 0,2,3
 396.982 561.118 396.982 561.118 373.718 553.942 c 1,4,5
 386.298 543.912 386.298 543.912 403.927 532.623 c 0,6,7
 462.824 494.903 462.824 494.903 522.281 465.66 c 1,8,9
 572.502 490.238 572.502 490.238 633.487 533.094 c 0,10,11
 649.983 544.854 649.983 544.854 659.305 554.375 c 1,12,13
 643.685 562.438 643.685 562.438 612.979 566.741 c 0,14,15
 563.988 573.604 563.988 573.604 521.833 573.604 c 0,0,1
719.059 318.834 m 1,16,17
 826.094 278.793 826.094 278.793 987.934 279.667 c 2,18,-1
 1113.09 280.343 l 1,19,-1
 1113.09 -0.920898 l 1,20,-1
 963.233 -0.920898 l 2,21,22
 700.569 -0.920898 700.569 -0.920898 515.669 155.011 c 1,23,24
 330.058 -1.4502 330.058 -1.4502 64.9473 -1.4502 c 2,25,-1
 -102.929 -1.4502 l 1,26,-1
 -102.929 279.668 l 1,27,-1
 39.9951 279.668 l 2,28,29
 216.762 279.668 216.762 279.668 314.869 314.038 c 1,30,31
 246.416 353.698 246.416 353.698 190.161 401.78 c 0,32,33
 96.4463 481.876 96.4463 481.876 103.889 584.159 c 0,34,35
 111.452 691.521 111.452 691.521 249.033 758.137 c 0,36,37
 348.798 806.817 348.798 806.817 507.642 810.125 c 0,38,39
 584.078 811.679 584.078 811.679 653.138 804.332 c 0,40,41
 830.95 784.921 830.95 784.921 886.819 671.733 c 0,42,43
 918.514 606.995 918.514 606.995 901.595 534.958 c 0,44,45
 875.974 426.446 875.974 426.446 719.059 318.834 c 1,16,17
EndSplineSet
EndChar

StartChar: uniFEDA
Encoding: 65242 65242 226
Width: 1939
VWidth: 2318
GlyphClass: 2
Flags: W
AnchorPoint: "Anchor-10" 560.702 1499.42 basechar 0
AnchorPoint: "Anchor-7" 593.562 -235.337 basechar 0
LayerCount: 2
Fore
SplineSet
929.431 -0.5625 m 0,0,1
 704.798 -0.5625 704.798 -0.5625 559.068 17.1943 c 128,-1,2
 413.339 34.9512 413.339 34.9512 332.943 75.1914 c 0,3,4
 188.489 147.496 188.489 147.496 113.733 262.447 c 128,-1,5
 38.9785 377.397 38.9785 377.397 40.1709 528.089 c 0,6,7
 41.1952 657.517 41.1952 657.517 89.8604 796.892 c 2,8,-1
 108.994 851.69 l 1,9,-1
 169.817 821.18 l 2,10,11
 260.547 775.668 260.547 775.668 241.3 625.876 c 0,12,13
 233.742 567.075 233.742 567.075 235.312 526.553 c 0,14,15
 238.407 439.621 238.407 439.621 314.404 381.313 c 128,-1,16
 390.4 323.006 390.4 323.006 557.891 295.126 c 0,17,18
 644.623 280.688 644.623 280.688 907.379 279.999 c 1,19,20
 1075.24 277.945 1075.24 277.945 1183.85 287.719 c 0,21,22
 1282.14 296.38 1282.14 296.38 1354.66 314.078 c 128,-1,23
 1427.18 331.777 1427.18 331.777 1469.66 356.236 c 128,-1,24
 1512.13 380.694 1512.13 380.694 1533.15 408.435 c 128,-1,25
 1554.07 436.041 1554.07 436.041 1556.87 468.743 c 2,26,-1
 1560.7 513.401 l 1,27,-1
 1515.15 1061.18 l 2,28,29
 1504.99 1183.41 1504.99 1183.41 1548.62 1278.95 c 0,30,31
 1590.37 1370.37 1590.37 1370.37 1683.19 1415.98 c 2,32,-1
 1772.72 1459.97 l 1,33,-1
 1772.72 481.096 l 2,34,35
 1772.72 459.442 1772.72 459.442 1769.78 419.751 c 0,36,37
 1766.38 373.794 1766.38 373.794 1752.19 325.032 c 1,38,39
 1798.83 280.416 1798.83 280.416 1893.09 280.416 c 2,40,-1
 2012.2 280.416 l 1,41,-1
 2012.2 -0.59668 l 1,42,-1
 1913.71 -0.59668 l 2,43,44
 1710.76 -0.59668 1710.76 -0.59668 1588.52 112.676 c 1,45,46
 1477.62 53.9189 1477.62 53.9189 1335.97 29.79 c 0,47,48
 1156.96 -0.5625 1156.96 -0.5625 929.431 -0.5625 c 0,0,1
1148.88 1356.14 m 1,49,-1
 1148.88 1199.36 l 1,50,-1
 1101.63 1195.88 l 2,51,52
 1034.91 1190.96 1034.91 1190.96 1001 1178.47 c 0,53,54
 977.449 1169.63 977.449 1169.63 960.16 1159.34 c 128,-1,55
 942.871 1149.05 942.871 1149.05 937.402 1143.84 c 128,-1,56
 931.934 1138.64 931.934 1138.64 931.11 1136.65 c 0,57,58
 931.259 1116.96 931.259 1116.96 939.376 1105.56 c 1,59,60
 956.353 1094.83 956.353 1094.83 1010.45 1086.87 c 0,61,62
 1078.26 1076.9 1078.26 1076.9 1116.22 1042.23 c 0,63,64
 1158.71 1003.41 1158.71 1003.41 1158.71 938.469 c 0,65,66
 1158.71 874.454 1158.71 874.454 1127.33 822.91 c 128,-1,67
 1095.96 771.366 1095.96 771.366 1038.25 738.736 c 0,68,69
 953.785 690.97 953.785 690.97 840.449 689.918 c 0,70,71
 772.45 689.918 772.45 689.918 712.518 699.928 c 2,72,-1
 669.919 707.043 l 1,73,-1
 669.919 870.354 l 1,74,-1
 727.584 862.753 l 2,75,76
 788.673 854.701 788.673 854.701 830.004 854.701 c 0,77,78
 899.626 854.701 899.626 854.701 941.949 871.364 c 0,79,80
 998.84 893.213 998.84 893.213 998.84 915.785 c 0,81,82
 998.84 918.584 998.84 918.584 998.657 920.034 c 128,-1,83
 998.475 921.483 998.475 921.483 995.461 925.651 c 128,-1,84
 992.447 929.82 992.447 929.82 986.732 932.819 c 128,-1,85
 981.017 935.819 981.017 935.819 968.446 939.706 c 128,-1,86
 955.876 943.593 955.876 943.593 938.085 946.491 c 0,87,88
 861.277 958.195 861.277 958.195 816.762 1003.72 c 0,89,90
 769.093 1052.47 769.093 1052.47 770.871 1134.27 c 0,91,92
 772.192 1187.73 772.192 1187.73 799.679 1230.07 c 128,-1,93
 827.165 1272.41 827.165 1272.41 875.716 1297.01 c 0,94,95
 970.199 1344.81 970.199 1344.81 1094.65 1352.7 c 2,96,-1
 1148.88 1356.14 l 1,49,-1
EndSplineSet
EndChar

StartChar: uniFEDB
Encoding: 65243 65243 227
Width: 855
VWidth: 2319
GlyphClass: 2
Flags: W
AnchorPoint: "Anchor-7" 300.925 -236.362 basechar 0
LayerCount: 2
Fore
SplineSet
-25 -0.5625 m 1,0,-1
 -25 280.543 l 1,1,-1
 54.5029 280.582 l 2,2,3
 152.244 280.63 152.244 280.63 225.638 290.331 c 128,-1,4
 299.206 300.055 299.206 300.055 340.351 316.495 c 128,-1,5
 381.495 332.936 381.495 332.936 402.174 351.178 c 128,-1,6
 422.853 369.42 422.853 369.42 426.037 389.794 c 0,7,8
 439.245 474.266 439.245 474.266 352.605 547.945 c 2,9,-1
 66.4062 791.331 l 2,10,11
 10.5348 838.844 10.5348 838.844 -20.1016 881.027 c 128,-1,12
 -50.7373 923.21 -50.7373 923.21 -54.6318 968.514 c 0,13,14
 -57.5596 1002.66 -57.5596 1002.66 -50.7607 1034.01 c 0,15,16
 -29.0406 1134.15 -29.0406 1134.15 86.0938 1194.48 c 2,17,-1
 840.85 1589.95 l 1,18,-1
 840.85 1483.29 l 2,19,20
 840.85 1389.42 840.85 1389.42 786.722 1315.85 c 128,-1,21
 732.593 1242.28 732.593 1242.28 632.758 1193.49 c 2,22,-1
 216.512 990.074 l 1,23,24
 329.827 892.769 329.827 892.769 528.993 724.815 c 0,25,26
 615.247 651.894 615.247 651.894 650.689 552.601 c 128,-1,27
 686.131 453.308 686.131 453.308 669.341 334.786 c 0,28,29
 656.27 242.509 656.27 242.509 610.007 174.495 c 128,-1,30
 563.744 106.481 563.744 106.481 486.718 69.0469 c 0,31,32
 343.492 -0.5625 343.492 -0.5625 98.3262 -0.5625 c 2,33,-1
 -25 -0.5625 l 1,0,-1
EndSplineSet
EndChar

StartChar: uniFEDC
Encoding: 65244 65244 228
Width: 1053
VWidth: 2318
GlyphClass: 2
Flags: W
AnchorPoint: "Anchor-10" 188.208 1377.69 basechar 0
AnchorPoint: "Anchor-7" 305.338 -226.308 basechar 0
LayerCount: 2
Fore
SplineSet
634.932 223.574 m 1,0,1
 519.522 -1.10741 519.522 -1.10741 88.665 -1.10742 c 2,2,-1
 -23.3066 -1.10742 l 1,3,-1
 -23.3066 279.951 l 1,4,-1
 83.4053 280.17 l 2,5,6
 255.313 280.523 255.313 280.523 338.041 311.147 c 0,7,8
 421.177 341.923 421.177 341.923 430.15 385.558 c 0,9,10
 431.646 392.831 431.646 392.831 425.806 407.954 c 128,-1,11
 419.965 423.076 419.965 423.076 396.723 453.6 c 128,-1,12
 373.483 484.119 373.483 484.119 335.723 518.17 c 2,13,-1
 104.677 726.52 l 2,14,15
 -5.5382 825.909 -5.5382 825.909 -10.2227 940.564 c 0,16,17
 -10.9971 959.652 -10.9971 959.652 -9.0791 977.866 c 0,18,19
 4.11423 1103.18 4.11423 1103.18 137.35 1175.1 c 2,20,-1
 924.34 1599.91 l 1,21,-1
 929.073 1491.6 l 2,22,23
 936.945 1311.46 936.945 1311.46 675.253 1172.21 c 2,24,-1
 248.991 945.382 l 1,25,-1
 851.263 361.735 l 2,26,27
 935.924 279.692 935.924 279.692 1039.48 280.341 c 2,28,-1
 1076.06 280.57 l 5,29,-1
 1076.06 -0.578125 l 5,30,-1
 1007.49 -0.578125 l 2,31,32
 827.582 -0.578125 827.582 -0.578125 634.932 223.574 c 1,0,1
EndSplineSet
EndChar

StartChar: uniFEDE
Encoding: 65246 65246 230
Width: 1511
VWidth: 2330
GlyphClass: 2
Flags: W
AnchorPoint: "Anchor-10" 490.211 951.719 basechar 0
AnchorPoint: "Anchor-7" 253.713 -502.707 basechar 0
LayerCount: 2
Fore
SplineSet
1282.45 474.908 m 2,0,1
 1282.45 364.203 1282.45 364.203 1327.06 324.204 c 0,2,3
 1378.23 280.932 1378.23 280.932 1462.46 280.932 c 2,4,-1
 1532.39 280.932 l 1,5,-1
 1532.39 -0.0810547 l 1,6,-1
 1477.46 -0.0810547 l 2,7,8
 1368.23 -0.0810547 1368.23 -0.0810547 1265.15 52.5078 c 1,9,10
 1222.27 -166.935 1222.27 -166.935 1071.4 -284.481 c 128,-1,11
 920.526 -402.027 920.526 -402.027 674.385 -411.958 c 0,12,13
 281.408 -427.837 281.408 -427.837 127.693 -209.047 c 0,14,15
 6.6377 -37.3828 6.6377 -37.3828 70.0439 255.081 c 0,16,17
 89.834 346.362 89.834 346.362 123.23 429.056 c 0,18,19
 143.707 479.758 143.707 479.758 180.791 511.302 c 128,-1,20
 217.877 542.847 217.877 542.847 267.778 547.983 c 2,21,-1
 357.64 557.232 l 1,22,-1
 326.749 479.143 l 2,23,24
 208.743 180.83 208.743 180.83 287.965 31.4033 c 0,25,26
 331.47 -51.1768 331.47 -51.1768 412.845 -93.5107 c 128,-1,27
 494.221 -135.845 494.221 -135.845 622.048 -138.18 c 0,28,29
 834.309 -142.041 834.309 -142.041 943.85 -83.709 c 128,-1,30
 1053.39 -25.3779 1053.39 -25.3779 1078.28 91.2412 c 0,31,32
 1082.21 109.623 1082.21 109.623 1084.19 129.57 c 1,33,-1
 1088.46 250.174 l 1,34,35
 1088.69 294.845 1088.69 294.845 1088.53 296.715 c 2,36,-1
 1025.44 1033.35 l 6,37,38
 999.047 1341.55 999.047 1341.55 1177.71 1415.56 c 6,39,-1
 1282.46 1458.95 l 5,40,-1
 1282.45 474.908 l 2,0,1
EndSplineSet
EndChar

StartChar: uniFEDF
Encoding: 65247 65247 231
Width: 603
VWidth: 2318
GlyphClass: 2
Flags: W
AnchorPoint: "Anchor-10" 304.411 1455.09 basechar 0
AnchorPoint: "Anchor-7" 233.391 -199.301 basechar 0
LayerCount: 2
Fore
SplineSet
456.577 513.761 m 2,0,1
 456.577 315.158 456.577 315.158 367.806 164.895 c 0,2,3
 270.313 -0.130858 270.313 -0.130858 54.2188 -0.130859 c 2,4,-1
 -20.8076 -0.130859 l 5,5,-1
 -20.8076 280.988 l 5,6,-1
 2.4375 280.988 l 2,7,8
 162.417 280.986 162.417 280.986 214.449 346.488 c 0,9,10
 254.393 396.772 254.393 396.772 242.732 523.757 c 2,11,-1
 197.523 1016.07 l 2,12,13
 170.052 1315.22 170.052 1315.22 367.064 1413.91 c 2,14,-1
 456.577 1458.75 l 1,15,-1
 456.577 513.761 l 2,0,1
EndSplineSet
EndChar

StartChar: uniFEE0
Encoding: 65248 65248 232
Width: 633
VWidth: 2318
GlyphClass: 2
Flags: W
AnchorPoint: "Anchor-10" 275.93 1448.88 basechar 0
AnchorPoint: "Anchor-7" 239.89 -252.269 basechar 0
LayerCount: 2
Fore
SplineSet
300.883 109.185 m 1,0,1
 192.91 5.35292 192.91 5.35292 38.3018 0.913086 c 2,2,-1
 -20.0879 -0.763672 l 1,3,-1
 -20.0879 281.021 l 1,4,-1
 4.69727 281.021 l 2,5,6
 117.394 281.019 117.394 281.019 165.552 324.188 c 0,7,8
 218.868 372.046 218.868 372.046 209.756 471.562 c 2,9,-1
 160.319 1011.51 l 2,10,11
 133.074 1309.08 133.074 1309.08 322.53 1406.69 c 2,12,-1
 419.616 1456.71 l 1,13,-1
 419.616 475.229 l 2,14,15
 419.616 465.076 419.616 465.076 431.71 375.357 c 0,16,17
 435.838 344.733 435.838 344.733 460.34 328.271 c 0,18,19
 530.675 281.02 530.675 281.02 611.822 281.021 c 2,20,-1
 653.548 281.021 l 5,21,-1
 653.548 -1.12695 l 5,22,-1
 604.424 0.911133 l 2,23,24
 410.995 8.93626 410.995 8.93626 300.883 109.185 c 1,0,1
EndSplineSet
EndChar

StartChar: uniFEE2
Encoding: 65250 65250 234
Width: 1150
VWidth: 2364
GlyphClass: 2
Flags: W
AnchorPoint: "Anchor-10" 477.183 1112.24 basechar 0
AnchorPoint: "Anchor-7" 192.132 -718.15 basechar 0
LayerCount: 2
Fore
SplineSet
520.382 417.431 m 5,0,1
 530.707 275.59 530.707 275.59 584.182 214.515 c 4,2,3
 623.721 169.528 623.721 169.528 685.109 177.861 c 4,4,5
 780.077 191.158 780.077 191.158 762.317 313.104 c 4,6,7
 748.151 408.239 748.151 408.239 605.684 419.724 c 4,8,9
 561.25 423.383 561.25 423.383 520.382 417.431 c 5,0,1
1004.57 327.059 m 5,10,11
 1042.11 281.236 1042.11 281.236 1129.84 280.611 c 6,12,-1
 1171.46 280.314 l 5,13,-1
 1171.46 0.529297 l 5,14,-1
 1114.76 0.529297 l 6,15,16
 1003.03 0.529297 1003.03 0.529297 931.434 54.8047 c 5,17,18
 909.979 23.666 909.979 23.666 880.132 -1.43066 c 4,19,20
 804.526 -63.957 804.526 -63.957 698.164 -69.7021 c 4,21,22
 541.323 -77.9443 541.323 -77.9443 445.229 25.6191 c 132,-1,23
 349.134 129.182 349.134 129.182 318.514 324.186 c 5,24,25
 302.822 307.443 302.822 307.443 292.744 282.138 c 4,26,27
 261.398 205.499 261.398 205.499 275.902 10.4648 c 6,28,-1
 299.396 -305.474 l 6,29,30
 307.651 -416.484 307.651 -416.484 269.683 -498.625 c 132,-1,31
 231.713 -580.765 231.713 -580.765 147.4 -622.968 c 6,32,-1
 45.0654 -674.192 l 5,33,-1
 48.4453 69.8779 l 6,34,35
 49.4336 287.494 49.4336 287.494 120.703 424.294 c 4,36,37
 191.771 560.711 191.771 560.711 336.432 601.834 c 5,38,39
 341.821 657.805 341.821 657.805 364.827 713.396 c 6,40,-1
 388.983 771.766 l 5,41,-1
 440.949 735.848 l 6,42,43
 545.422 663.639 545.422 663.639 688.096 631.661 c 4,44,45
 786.292 609.577 786.292 609.577 850.093 577.928 c 132,-1,46
 913.893 546.278 913.893 546.278 946.241 496.975 c 4,47,48
 991.632 426.145 991.632 426.145 1004.57 327.059 c 5,10,11
EndSplineSet
EndChar

StartChar: uniFEE3
Encoding: 65251 65251 235
Width: 952
VWidth: 2345
GlyphClass: 2
Flags: W
AnchorPoint: "Anchor-10" 379.953 1062.87 basechar 0
AnchorPoint: "Anchor-7" 341.794 -187.935 basechar 0
LayerCount: 2
Fore
SplineSet
765.594 46.832 m 1,0,1
 646.843 -68.9658 646.843 -68.9658 439.675 -22.3477 c 0,2,3
 332.515 1.33887 332.515 1.33887 226.637 102.023 c 1,4,5
 121.097 -0.0654298 121.097 -0.0654298 11.4219 -0.0654297 c 2,6,-1
 -21.2021 -0.0654297 l 5,7,-1
 -21.2021 281.053 l 5,8,-1
 30.4395 281.053 l 2,9,10
 87.4309 281.053 87.4309 281.053 143.477 375.24 c 0,11,12
 354.561 729.933 354.561 729.933 585.724 702.727 c 0,13,14
 712.052 687.859 712.052 687.859 781.178 592.983 c 128,-1,15
 850.303 498.107 850.303 498.107 860.307 340.361 c 0,16,17
 871.886 151.955 871.886 151.955 765.594 46.832 c 1,0,1
457.847 233.398 m 0,18,19
 544.062 194.549 544.062 194.549 593.63 224.31 c 0,20,21
 636.443 249.363 636.443 249.363 619.536 361.344 c 0,22,23
 606.071 447.602 606.071 447.602 568.774 466.703 c 1,24,25
 552.521 473.678 552.521 473.678 535.094 474.234 c 128,-1,26
 517.666 474.791 517.666 474.791 491.174 457.792 c 128,-1,27
 464.681 440.793 464.681 440.793 432.924 405.642 c 0,28,29
 405.964 375.8 405.964 375.8 357.9 292.699 c 1,30,31
 399.231 259.488 399.231 259.488 457.847 233.398 c 0,18,19
EndSplineSet
EndChar

StartChar: uniFEE4
Encoding: 65252 65252 236
Width: 1011
VWidth: 2345
GlyphClass: 2
Flags: W
AnchorPoint: "Anchor-10" 428.224 1026.83 basechar 0
AnchorPoint: "Anchor-7" 390.064 -197.475 basechar 0
LayerCount: 2
Fore
SplineSet
458.18 233.248 m 0,0,1
 546.631 193.22 546.631 193.22 594.86 225.158 c 0,2,3
 636.377 252.225 636.377 252.225 619.547 361.272 c 0,4,5
 606.071 447.602 606.071 447.602 568.774 466.703 c 1,6,7
 552.521 473.678 552.521 473.678 535.094 474.234 c 128,-1,8
 517.666 474.791 517.666 474.791 491.174 457.792 c 128,-1,9
 464.681 440.793 464.681 440.793 432.924 405.642 c 0,10,11
 405.964 375.8 405.964 375.8 357.99 292.854 c 1,12,13
 398.32 260.809 398.32 260.809 458.18 233.248 c 0,0,1
788.794 71.9189 m 1,14,15
 777.742 58.4434 777.742 58.4434 765.106 46.3633 c 0,16,17
 644.932 -68.5352 644.932 -68.5352 439.673 -22.3477 c 0,18,19
 332.516 1.33789 332.516 1.33789 226.637 102.023 c 1,20,21
 121.097 -0.0654298 121.097 -0.0654298 11.4219 -0.0654297 c 2,22,-1
 -21.2021 -0.0654297 l 1,23,-1
 -21.2021 281.053 l 1,24,-1
 30.4395 281.053 l 2,25,26
 87.4309 281.053 87.4309 281.053 143.477 375.24 c 0,27,28
 353.942 728.893 353.942 728.893 585.604 702.74 c 0,29,30
 711.917 688.48 711.917 688.48 781.096 593.525 c 128,-1,31
 850.273 498.57 850.273 498.57 860.308 340.354 c 0,32,33
 860.805 332.265 860.805 332.265 861.09 324.324 c 0,34,35
 861.383 316.139 861.383 316.139 864.989 309.894 c 128,-1,36
 868.596 303.648 868.596 303.648 879.427 296.165 c 128,-1,37
 890.259 288.682 890.259 288.682 915.744 284.526 c 128,-1,38
 941.231 280.37 941.231 280.37 979.64 280.37 c 2,39,-1
 1032.94 280.37 l 5,40,-1
 1032.94 -0.642578 l 5,41,-1
 1001 -0.642578 l 2,42,43
 871.886 -0.642578 871.886 -0.642578 788.794 71.9189 c 1,14,15
EndSplineSet
EndChar

StartChar: uniFEEA
Encoding: 65258 65258 242
Width: 1028
VWidth: 2334
GlyphClass: 2
Flags: W
AnchorPoint: "Anchor-10" 381.234 1239.15 basechar 0
AnchorPoint: "Anchor-7" 367.38 -174.691 basechar 0
LayerCount: 2
Fore
SplineSet
604.628 496.816 m 1,0,-1
 581.844 675.361 l 1,1,2
 258.989 631.511 258.989 631.511 298.661 509.045 c 4,3,4
 321.661 438.045 321.661 438.045 604.628 496.816 c 1,0,-1
639.614 247.803 m 1,5,6
 137.182 169.228 137.182 169.228 52.6074 416.008 c 0,7,8
 42.9443 443.923 42.9443 443.923 39.7764 478.658 c 0,9,10
 34.5352 559.92 34.5352 559.92 67.7578 626.016 c 128,-1,11
 100.981 692.111 100.981 692.111 169.3 740.514 c 128,-1,12
 237.617 788.917 237.617 788.917 332.675 822.604 c 128,-1,13
 427.732 856.291 427.732 856.291 552.045 877.219 c 1,14,15
 548.55 915.474 548.55 915.474 540.487 981.26 c 2,16,-1
 535.277 1023.77 l 1,17,-1
 756.333 1091.09 l 1,18,-1
 826.392 508.881 l 2,19,20
 837.19 419.15 837.19 419.15 857.131 368.465 c 0,21,22
 877.323 317.139 877.323 317.139 896.668 305.347 c 0,23,24
 935.278 280.766 935.278 280.766 1022.78 280.609 c 2,25,-1
 1051.26 280.558 l 1,26,-1
 1051.26 0.0214844 l 1,27,-1
 1013.1 0.488281 l 2,28,29
 870.003 2.23874 870.003 2.23874 769.895 66.9307 c 0,30,31
 673.433 129.265 673.433 129.265 639.614 247.803 c 1,5,6
EndSplineSet
EndChar

StartChar: uniFEEB
Encoding: 65259 65259 243
Width: 1165
VWidth: 2338
GlyphClass: 2
Flags: W
AnchorPoint: "Anchor-10" 560.85 1312.35 basechar 0
AnchorPoint: "Anchor-7" 374.015 -218.475 basechar 0
LayerCount: 2
Fore
SplineSet
739.161 476 m 1,0,1
 733.924 426.692 733.924 426.692 712.936 384.091 c 0,2,3
 680.1 316.486 680.1 316.486 604.704 255.964 c 1,4,5
 707.747 224.715 707.747 224.715 744.875 220.173 c 0,6,7
 787.161 215 787.161 215 811.632 236.016 c 128,-1,8
 836.102 257.031 836.102 257.031 836.834 306.022 c 0,9,10
 837.865 380.721 837.865 380.721 739.161 476 c 1,0,1
327.85 810.356 m 1,11,12
 313.235 863.177 313.235 863.177 348.36 944.08 c 2,13,-1
 380.145 1017.29 l 1,14,-1
 733.035 766.398 l 2,15,16
 907.624 642.271 907.624 642.271 994.938 524.1 c 0,17,18
 1081.99 406.279 1081.99 406.279 1073.49 288.676 c 0,19,20
 1062.53 137.946 1062.53 137.946 965.939 60.3311 c 128,-1,21
 869.351 -17.2852 869.351 -17.2852 705.172 -12.6055 c 0,22,23
 521.323 -7.36523 521.323 -7.36523 340.045 71.2666 c 1,24,25
 171.697 -0.671875 171.697 -0.671875 6.66797 -0.671875 c 2,26,-1
 -20.9238 -0.671875 l 1,27,-1
 -20.9238 280.447 l 1,28,-1
 21.6152 280.447 l 2,29,30
 21.8499 280.447 21.8499 280.447 74.8066 280.035 c 1,31,32
 54.8057 340.989 54.8057 340.989 57.7275 408.727 c 0,33,34
 63.8086 544.899 63.8086 544.899 125.595 638.286 c 0,35,36
 216.557 773.886 216.557 773.886 327.85 810.356 c 1,11,12
516.71 473.994 m 0,37,38
 559.066 568.782 559.066 568.782 508.734 608.729 c 1,39,40
 432.411 674.379 432.411 674.379 349.011 573.807 c 0,41,42
 294.496 508.852 294.496 508.852 284.161 442 c 0,43,44
 268.161 340.5 268.161 340.5 330.217 312.476 c 1,45,46
 477.511 388.459 477.511 388.459 516.71 473.994 c 0,37,38
EndSplineSet
EndChar

StartChar: uniFEEC
Encoding: 65260 65260 244
Width: 979
VWidth: 2356
GlyphClass: 2
Flags: W
AnchorPoint: "Anchor-7" 261.672 -689.967 basechar 0
AnchorPoint: "Anchor-10" 409.944 1192.58 basechar 0
LayerCount: 2
Fore
SplineSet
340.815 283.386 m 1,0,1
 403.872 288.317 403.872 288.317 432.419 334.353 c 0,2,3
 483.948 417.456 483.948 417.456 483.948 531.985 c 0,4,5
 483.948 635.432 483.948 635.432 427.432 635.432 c 0,6,7
 362.476 635.432 362.476 635.432 345.154 505.133 c 0,8,9
 328.573 376.545 328.573 376.545 340.815 283.386 c 1,0,1
492.354 66.9414 m 1,10,11
 416.929 15.1094 416.929 15.1094 361.236 3.2627 c 1,12,13
 362.344 -93.083 362.344 -93.083 425 -279 c 1,14,15
 617.924 285.864 617.924 285.864 924.329 281.162 c 2,16,-1
 999.54 280.008 l 1,17,-1
 999.54 -0.4375 l 1,18,-1
 880.352 -1.12793 l 2,19,20
 793.039 -1.63372 793.039 -1.63372 734 -84 c 0,21,22
 593.599 -279.882 593.599 -279.882 565.285 -467.918 c 2,23,-1
 561.626 -492.218 l 1,24,-1
 439.269 -562.809 l 1,25,-1
 415.162 -551.48 l 2,26,27
 179.894 -440.916 179.894 -440.916 140.179 -0.12793 c 1,28,-1
 -21.833 -0.12793 l 1,29,-1
 -21.833 280.978 l 1,30,-1
 133.381 281.039 l 1,31,32
 130.425 546.075 130.425 546.075 186.386 675.43 c 0,33,34
 228.584 772.972 228.584 772.972 294.007 826.846 c 128,-1,35
 359.429 880.72 359.429 880.72 444.941 880.005 c 0,36,37
 681.843 877.619 681.843 877.619 681.843 511.617 c 4,38,39
 681.843 203.994 681.843 203.994 492.354 66.9414 c 1,10,11
EndSplineSet
EndChar

StartChar: uniFEEE
Encoding: 65262 65262 246
Width: 857
VWidth: 2358
GlyphClass: 2
Flags: W
AnchorPoint: "Anchor-10" 371.964 1169.46 basechar 0
AnchorPoint: "Anchor-7" 560.13 -604.167 basechar 0
LayerCount: 2
Fore
SplineSet
483.324 528.746 m 0,0,1
 453.276 530.595 453.276 530.595 428.069 498.748 c 128,-1,2
 402.862 466.901 402.862 466.901 385.856 379.04 c 0,3,4
 381.876 357.983 381.876 357.983 381.818 340.696 c 0,5,6
 381.68 299.398 381.68 299.398 403.192 282.139 c 128,-1,7
 424.705 264.878 424.705 264.878 489.767 264.74 c 0,8,9
 555.755 264.6 555.755 264.6 595.633 265.302 c 1,10,11
 588.833 342.967 588.833 342.967 570.601 409.057 c 0,12,13
 538.471 525.503 538.471 525.503 483.324 528.746 c 0,0,1
793.562 -0.0449219 m 1,14,15
 739.818 -205.511 739.818 -205.511 612.068 -316.503 c 128,-1,16
 484.318 -427.495 484.318 -427.495 289.956 -434.963 c 0,17,18
 113.292 -441.744 113.292 -441.744 -29.5947 -307.579 c 2,19,-1
 -110.789 -231.343 l 1,20,-1
 0.632812 -219.611 l 2,21,22
 229.04 -195.436 229.04 -195.436 370.116 -138.283 c 128,-1,23
 511.192 -81.1318 511.192 -81.1318 566.535 1.46582 c 1,24,-1
 483.84 0.84375 l 1,25,26
 278.26 -1.96875 278.26 -1.96875 210.97 107.404 c 0,27,28
 146.769 210.572 146.769 210.572 164.671 368.449 c 0,29,30
 187.576 566.237 187.576 566.237 284.26 671.182 c 0,31,32
 383.233 778.384 383.233 778.384 525.27 763.742 c 0,33,34
 609.001 755.448 609.001 755.448 672.201 687.254 c 0,35,36
 777.661 573.273 777.661 573.273 800.926 362.681 c 0,37,38
 804.525 330.094 804.525 330.094 806.541 280.71 c 1,39,-1
 935.644 281.091 l 1,40,-1
 935.644 -0.0449219 l 1,41,-1
 793.562 -0.0449219 l 1,14,15
EndSplineSet
EndChar

StartChar: uniFEF0
Encoding: 65264 65264 248
Width: 1431
VWidth: 2372
GlyphClass: 2
Flags: W
AnchorPoint: "Anchor-10" 602.673 551.833 basechar 0
AnchorPoint: "Anchor-7" 211.215 -721.634 basechar 0
LayerCount: 2
Fore
SplineSet
1014.39 253.369 m 0,0,1
 1087.35 282.042 1087.35 282.042 1288.41 282.032 c 2,2,-1
 1392.48 282.027 l 1,3,-1
 1451.91 281.543 l 1,4,-1
 1451.91 1.18945 l 1,5,-1
 1338.93 0.321289 l 1,6,-1
 1260.06 0.321289 l 1,7,8
 1313 -13.8008 1313 -13.8008 1348.5 -47.4893 c 128,-1,9
 1384 -81.1777 1384 -81.1777 1393.98 -130.568 c 0,10,11
 1408.35 -198.259 1408.35 -198.259 1366.08 -285.426 c 0,12,13
 1293.39 -433.05 1293.39 -433.05 1113.77 -516.597 c 0,14,15
 887.234 -621.965 887.234 -621.965 538.624 -601.033 c 0,16,17
 337.073 -588.944 337.073 -588.944 209.28 -504.44 c 128,-1,18
 81.4873 -419.937 81.4873 -419.937 40.4688 -264.225 c 0,19,20
 6.55176 -134.965 6.55176 -134.965 55.0234 68.0049 c 0,21,22
 86.2051 198.573 86.2051 198.573 132.357 273.282 c 0,23,24
 213.493 404.622 213.493 404.622 338.764 406.867 c 2,25,-1
 440.091 408.683 l 1,26,-1
 389.741 328.804 l 2,27,28
 341.776 252.708 341.776 252.708 299.945 155.398 c 1,29,30
 267.806 77.1006 267.806 77.1006 255.031 5.49707 c 0,31,32
 231.459 -126.645 231.459 -126.645 301.625 -215.591 c 0,33,34
 386.188 -323.834 386.188 -323.834 635.809 -329.655 c 0,35,36
 859.146 -334.823 859.146 -334.823 1023.38 -277.228 c 0,37,38
 1079.62 -257.503 1079.62 -257.503 1117.87 -238.346 c 0,39,40
 1176.61 -208.916 1176.61 -208.916 1115.71 -200.262 c 0,41,42
 1100.15 -198.051 1100.15 -198.051 1081.25 -195.768 c 0,43,44
 976.104 -182.442 976.104 -182.442 911.803 -135.036 c 128,-1,45
 847.501 -87.6299 847.501 -87.6299 842.379 -4.85156 c 0,46,47
 837.01 85.29 837.01 85.29 882.008 152.158 c 128,-1,48
 927.005 219.026 927.005 219.026 1014.39 253.369 c 0,0,1
EndSplineSet
EndChar

StartChar: uniFEFB
Encoding: 65275 65275 259
Width: 1022
VWidth: 2318
GlyphClass: 3
Flags: W
AnchorPoint: "Anchor-9" 909.258 1583.49 baselig 0
AnchorPoint: "Anchor-6" 911.378 -221.319 baselig 0
AnchorPoint: "Anchor-6" 164.937 -273.691 baselig 1
AnchorPoint: "Anchor-9" 185.146 1445.52 baselig 1
LayerCount: 2
Fore
SplineSet
586.982 311.497 m 1,0,1
 639.428 332.203 639.428 332.203 674.262 375.734 c 0,2,3
 726.724 441.773 726.724 441.773 717.728 560.828 c 2,4,-1
 672.519 1159.14 l 6,5,6
 663.019 1284.86 663.019 1284.86 706.429 1376.81 c 4,7,8
 749.188 1467.39 749.188 1467.39 844.479 1509.04 c 6,9,-1
 931.577 1547.11 l 5,10,-1
 931.577 550.761 l 2,11,12
 931.577 344.654 931.577 344.654 824.416 196.986 c 0,13,14
 681.37 -0.130859 681.37 -0.130859 415.219 -0.130859 c 2,15,-1
 292.48 -0.130859 l 2,16,17
 184.029 -0.130859 184.029 -0.130859 118.362 49.3936 c 128,-1,18
 52.6951 98.9174 52.6951 98.9174 53.3223 193.339 c 2,19,-1
 53.8457 272.148 l 1,20,-1
 108.542 267.778 l 2,21,22
 297.732 252.662 297.732 252.662 394.864 261.649 c 1,23,-1
 60.7285 973.232 l 6,24,25
 24.9187 1049.49 24.9187 1049.49 15.7158 1129.89 c 4,26,27
 7.36133 1202.88 7.36133 1202.88 30.9658 1266.26 c 132,-1,28
 54.5728 1329.65 54.5728 1329.65 111.752 1374.22 c 6,29,-1
 185.761 1431.92 l 5,30,-1
 586.982 311.497 l 1,0,1
EndSplineSet
LCarets2: 1 -89 
Ligature2: "'rlig' Required Ligatures in Arabic lookup 16 subtable" uniFEDF uniFE8E
EndChar

StartChar: uniFEFC
Encoding: 65276 65276 260
Width: 1269
VWidth: 2318
GlyphClass: 3
Flags: W
AnchorPoint: "Anchor-9" 894.932 1529.02 baselig 0
AnchorPoint: "Anchor-6" 895.991 -218.368 baselig 0
AnchorPoint: "Anchor-6" 222.16 -275.078 baselig 1
AnchorPoint: "Anchor-9" 78.5303 1423.55 baselig 1
LayerCount: 2
Fore
SplineSet
797.804 184.176 m 0,0,1
 629.309 -1.87988 629.309 -1.87988 312.846 -0.586914 c 0,2,3
 190.181 0.287109 190.181 0.287109 117.367 50.1084 c 128,-1,4
 44.5537 99.9289 44.5537 99.9289 46.3643 198.569 c 2,5,-1
 47.707 271.726 l 1,6,-1
 100.777 268.541 l 2,7,8
 335.858 254.435 335.858 254.435 445.83 276.276 c 1,9,-1
 108.919 981.239 l 2,10,11
 72.6209 1057.19 72.6209 1057.19 63.2461 1137.64 c 0,12,13
 54.7373 1210.66 54.7373 1210.66 78.4932 1274.15 c 128,-1,14
 102.25 1337.65 102.25 1337.65 159.812 1382.52 c 2,15,-1
 233.532 1439.99 l 1,16,-1
 626.938 360.324 l 1,17,18
 726.549 430.606 726.549 430.606 769.662 570.738 c 0,19,20
 771.12 575.474 771.12 575.474 772.585 580.543 c 0,21,22
 809.774 726.007 809.774 726.007 791.345 906.16 c 2,23,-1
 766.113 1152.81 l 2,24,25
 753.147 1279.56 753.147 1279.56 792.783 1370.46 c 128,-1,26
 832.418 1461.37 832.418 1461.37 926.389 1503.29 c 2,27,-1
 1021.66 1545.8 l 1,28,-1
 1021.66 720.332 l 2,29,30
 1021.66 519.976 1021.66 519.976 1062.52 385.455 c 0,31,32
 1079.18 330.616 1079.18 330.616 1116.62 305.521 c 128,-1,33
 1154.07 280.425 1154.07 280.425 1224.49 280.425 c 2,34,-1
 1342.64 280.425 l 1,35,-1
 1342.64 -0.904297 l 1,36,-1
 1196.4 0.000976562 l 2,37,38
 1080.46 0.718703 1080.46 0.718703 996.43 71.8105 c 128,-1,39
 912.395 142.901 912.395 142.901 865.704 272.296 c 1,40,41
 836.675 227.099 836.675 227.099 797.804 184.176 c 0,0,1
EndSplineSet
LCarets2: 1 0 
Ligature2: "'rlig' Required Ligatures in Arabic lookup 16 subtable" uniFEE0 uniFE8E
EndChar

StartChar: arabic_dot
Encoding: 65536 -1 261
Width: 150
GlyphClass: 2
Flags: W
LayerCount: 2
Fore
SplineSet
101.574 183.766 m 2,0,-1
 180.249 105.09 l 2,1,2
 191.984 93.3557 191.984 93.3557 192.103 82.6438 c 128,-1,3
 192.223 71.7732 192.223 71.7732 180.723 60.3837 c 2,4,-1
 98.1966 -22.1434 l 2,5,6
 85.6994 -34.1575 85.6994 -34.1575 74.6347 -34.2687 c 0,7,8
 62.9392 -34.386 62.9392 -34.386 50.727 -22.067 c 2,9,-1
 -31.1488 59.8088 l 2,10,11
 -42.9741 70.9747 -42.9741 70.9747 -42.2074 83.358 c 0,12,13
 -41.496 94.844 -41.496 94.844 -28.25 108.09 c 2,14,-1
 48.2414 184.581 l 2,15,16
 61.6713 198.133 61.6713 198.133 74.843 197.861 c 0,17,18
 87.7469 197.594 87.7469 197.594 101.574 183.766 c 2,0,-1
EndSplineSet
EndChar

StartChar: arabic_2dots
Encoding: 65537 -1 262
Width: 452
GlyphClass: 2
Flags: W
LayerCount: 2
Fore
SplineSet
370.75 183.591 m 2,0,-1
 449.251 105.089 l 2,1,2
 460.984 93.3556 460.984 93.3556 461.103 82.6467 c 128,-1,3
 461.226 71.774 461.226 71.774 449.721 60.3819 c 2,4,-1
 367.75 -21.5894 l 2,5,6
 355.187 -34.1532 355.187 -34.1532 343.635 -34.2681 c 128,-1,7
 331.938 -34.3859 331.938 -34.3859 319.728 -22.0673 c 2,8,-1
 237.851 59.8088 l 2,9,10
 226.026 70.9749 226.026 70.9749 226.792 83.3584 c 0,11,12
 227.504 94.844 227.504 94.844 240.75 108.09 c 2,13,-1
 317.24 184.581 l 2,14,15
 330.672 198.133 330.672 198.133 343.844 197.86 c 0,16,17
 356.747 197.593 356.747 197.593 370.75 183.591 c 2,0,-1
133.75 183.59 m 2,18,-1
 212.25 105.09 l 2,19,20
 223.984 93.3547 223.984 93.3547 224.103 82.646 c 128,-1,21
 224.224 71.8837 224.224 71.8837 212.75 60.4104 c 2,22,-1
 130.75 -21.5903 l 2,23,24
 118.185 -34.1532 118.185 -34.1532 106.635 -34.2681 c 128,-1,25
 95.0455 -34.3845 95.0455 -34.3845 82.7502 -22.0897 c 2,26,-1
 0.215838 60.4447 l 2,27,28
 -10.9039 72.1266 -10.9039 72.1266 -10.2074 83.3585 c 128,-1,29
 -9.52323 94.402 -9.52323 94.402 3.21413 107.554 c 2,30,-1
 80.25 184.589 l 2,31,32
 93.7923 198.132 93.7923 198.132 106.844 197.86 c 128,-1,33
 119.746 197.593 119.746 197.593 133.75 183.59 c 2,18,-1
EndSplineSet
EndChar

StartChar: arabic_3dots
Encoding: 65538 -1 263
Width: 455
GlyphClass: 2
Flags: W
LayerCount: 2
Fore
SplineSet
252.915 377.752 m 6,0,-1
 332.165 298.5 l 6,1,2
 343.9 286.767 343.9 286.767 344.02 276.054 c 132,-1,3
 344.14 265.183 344.14 265.183 332.638 253.792 c 6,4,-1
 250.666 171.821 l 6,5,6
 238.104 159.257 238.104 159.257 226.552 159.142 c 132,-1,7
 214.854 159.023 214.854 159.023 202.642 171.345 c 6,8,-1
 120.768 253.219 l 6,9,10
 108.941 264.386 108.941 264.386 109.709 276.77 c 4,11,12
 110.421 288.256 110.421 288.256 123.666 301.5 c 6,13,-1
 200.166 377.999 l 6,14,15
 213.693 391.528 213.693 391.528 226.123 391.623 c 132,-1,16
 238.563 391.721 238.563 391.721 252.915 377.752 c 6,0,-1
374.75 171.589 m 2,17,-1
 453.25 93.0898 l 2,18,19
 464.984 81.3551 464.984 81.3551 465.103 70.6434 c 128,-1,20
 465.222 59.8826 465.222 59.8826 453.75 48.4103 c 2,21,-1
 371.75 -33.5897 l 2,22,23
 359.186 -46.1532 359.186 -46.1532 347.635 -46.2681 c 128,-1,24
 336.046 -46.3845 336.046 -46.3845 323.75 -34.0897 c 2,25,-1
 241.751 47.9101 l 2,26,27
 230.064 59.5962 230.064 59.5962 230.792 71.3594 c 0,28,29
 231.504 82.844 231.504 82.844 244.75 96.0896 c 2,30,-1
 321.25 172.59 l 2,31,32
 334.791 186.129 334.791 186.129 347.843 185.861 c 128,-1,33
 360.747 185.594 360.747 185.594 374.75 171.589 c 2,17,-1
133.75 171.589 m 2,34,-1
 212.25 93.0896 l 2,35,36
 223.984 81.3548 223.984 81.3548 224.103 70.6434 c 128,-1,37
 224.221 59.8818 224.221 59.8818 212.75 48.4104 c 2,38,-1
 130.75 -33.5903 l 2,39,40
 118.185 -46.1532 118.185 -46.1532 106.635 -46.2681 c 128,-1,41
 95.0455 -46.3845 95.0455 -46.3845 82.7502 -34.0897 c 2,42,-1
 0.215838 48.4447 l 2,43,44
 -10.9039 60.1266 -10.9039 60.1266 -10.2074 71.3585 c 0,45,46
 -9.49587 82.8435 -9.49587 82.8435 3.75021 96.0897 c 2,47,-1
 80.2503 172.59 l 2,48,49
 93.7899 186.129 93.7899 186.129 106.843 185.861 c 128,-1,50
 119.746 185.594 119.746 185.594 133.75 171.589 c 2,34,-1
EndSplineSet
EndChar

StartChar: arabic_3dots_a
Encoding: 65539 -1 264
Width: 454
GlyphClass: 2
Flags: W
LayerCount: 2
Fore
SplineSet
247.628 -11.1758 m 6,0,-1
 326.502 -90.0488 l 6,1,2
 338.234 -101.783 338.234 -101.783 338.354 -112.494 c 132,-1,3
 338.474 -123.364 338.474 -123.364 326.975 -134.754 c 6,4,-1
 245.001 -216.728 l 6,5,6
 232.437 -229.291 232.437 -229.291 220.885 -229.406 c 132,-1,7
 209.189 -229.524 209.189 -229.524 196.976 -217.204 c 6,8,-1
 115.101 -135.329 l 6,9,10
 103.276 -124.161 103.276 -124.161 104.044 -111.781 c 4,11,12
 104.754 -100.295 104.754 -100.295 117.999 -87.0479 c 6,13,-1
 194.9 -10.1484 l 6,14,15
 208.934 3.18066 208.934 3.18066 221.562 2.70996 c 4,16,17
 233.834 2.25488 233.834 2.25488 247.628 -11.1758 c 6,0,-1
373.611 191.73 m 2,18,-1
 452.25 113.09 l 2,19,20
 463.984 101.356 463.984 101.356 464.103 90.6427 c 128,-1,21
 464.222 79.8823 464.222 79.8823 452.751 68.41 c 2,22,-1
 370.75 -13.5904 l 2,23,24
 358.188 -26.1523 358.188 -26.1523 346.634 -26.2688 c 128,-1,25
 335.044 -26.3845 335.044 -26.3845 322.749 -14.0899 c 2,26,-1
 240.7 67.9615 l 2,27,28
 229.063 79.598 229.063 79.598 229.793 91.3567 c 0,29,30
 230.503 102.843 230.503 102.843 243.749 116.09 c 2,31,-1
 320.265 192.606 l 2,32,33
 333.789 206.129 333.789 206.129 346.843 205.861 c 128,-1,34
 359.746 205.594 359.746 205.594 373.611 191.73 c 2,18,-1
133.751 191.59 m 2,35,-1
 212.25 113.09 l 2,36,37
 223.984 101.356 223.984 101.356 224.103 90.6426 c 128,-1,38
 224.221 79.8823 224.221 79.8823 212.751 68.41 c 2,39,-1
 130.75 -13.5904 l 2,40,41
 118.187 -26.1523 118.187 -26.1523 106.634 -26.2688 c 0,42,43
 95.5694 -26.3792 95.5694 -26.3792 83.3579 -14.6981 c 2,44,-1
 0.699175 67.9607 l 2,45,46
 -10.9343 79.594 -10.9343 79.594 -10.2077 91.3576 c 0,47,48
 -9.49653 102.844 -9.49653 102.844 3.74978 116.09 c 2,49,-1
 80.2654 192.606 l 2,50,51
 93.7891 206.129 93.7891 206.129 106.843 205.861 c 128,-1,52
 119.746 205.594 119.746 205.594 133.751 191.59 c 2,35,-1
EndSplineSet
EndChar

StartChar: uni066E.fina
Encoding: 65540 -1 265
Width: 1894
VWidth: 2342
GlyphClass: 2
Flags: W
AnchorPoint: "Anchor-10" 699.344 1154.48 basechar 0
AnchorPoint: "Anchor-7" 699.344 -159.389 basechar 0
LayerCount: 2
Fore
SplineSet
929.564 -0.648438 m 0,0,1
 704.931 -0.648438 704.931 -0.648438 559.201 17.1084 c 128,-1,2
 413.472 34.8652 413.472 34.8652 333.077 75.1055 c 0,3,4
 188.632 147.405 188.632 147.405 113.872 262.361 c 128,-1,5
 39.1123 377.318 39.1123 377.318 40.3037 527.968 c 0,6,7
 42.043 784.103 42.043 784.103 195.902 804.993 c 2,8,-1
 272.17 815.348 l 1,9,-1
 256.585 744.102 l 2,10,11
 241.574 675.478 241.574 675.478 235.451 620.368 c 0,12,13
 230.644 577.098 230.644 577.098 232.447 526.385 c 0,14,15
 235.708 434.648 235.708 434.648 311.949 376.637 c 128,-1,16
 388.191 318.625 388.191 318.625 556.684 295.244 c 0,17,18
 648.755 282.381 648.755 282.381 963.574 280.171 c 0,19,20
 1153.11 279.208 1153.11 279.208 1206.79 288.463 c 0,21,22
 1357.7 313.309 1357.7 313.309 1423.3 354.24 c 128,-1,23
 1488.91 395.173 1488.91 395.173 1489.49 441.236 c 0,24,25
 1491.39 543.788 1491.39 543.788 1534.44 607.602 c 128,-1,26
 1577.49 671.414 1577.49 671.414 1662.13 671.414 c 2,27,-1
 1717.07 671.414 l 5,28,-1
 1717.71 619.094 l 2,29,30
 1721.85 280.897 1721.85 280.897 1871.17 280.895 c 2,31,-1
 1915.24 280.895 l 1,32,-1
 1915.24 -0.80957 l 1,33,-1
 1886.38 0.00585938 l 2,34,35
 1653.04 6.59869 1653.04 6.59869 1581.78 174.852 c 1,36,37
 1463.01 57.8545 1463.01 57.8545 1239.54 14.0879 c 0,38,39
 1163.03 -0.648438 1163.03 -0.648438 929.564 -0.648438 c 0,0,1
EndSplineSet
EndChar

StartChar: uni06A1.fina
Encoding: 65543 -1 268
Width: 1926
VWidth: 2339
GlyphClass: 2
Flags: W
AnchorPoint: "Anchor-10" 509.221 1263.58 basechar 0
AnchorPoint: "Anchor-7" 622.641 -210.885 basechar 0
LayerCount: 2
Fore
SplineSet
1315.61 568.22 m 128,-1,1
 1315.61 508.688 1315.61 508.688 1353.85 467.062 c 0,2,3
 1390.52 427.132 1390.52 427.132 1441.48 427.132 c 128,-1,4
 1492.43 427.132 1492.43 427.132 1529.11 467.064 c 0,5,6
 1567.34 508.681 1567.34 508.681 1567.34 568.22 c 128,-1,7
 1567.34 627.752 1567.34 627.752 1529.11 669.367 c 0,8,9
 1492.43 709.302 1492.43 709.302 1441.48 709.302 c 128,-1,10
 1390.53 709.302 1390.53 709.302 1353.85 669.363 c 0,11,0
 1315.61 627.744 1315.61 627.744 1315.61 568.22 c 128,-1,1
911.819 -0.519531 m 1,12,13
 696.054 -0.585938 696.054 -0.585938 554.697 17.1709 c 128,-1,14
 413.342 34.9277 413.342 34.9277 333.077 75.1055 c 0,15,16
 188.632 147.405 188.632 147.405 113.872 262.361 c 128,-1,17
 39.1123 377.318 39.1123 377.318 40.3037 527.968 c 0,18,19
 42.043 784.106 42.043 784.106 195.902 804.993 c 2,20,-1
 272.17 815.348 l 1,21,-1
 256.585 744.102 l 2,22,23
 241.575 675.491 241.575 675.491 235.451 620.368 c 0,24,25
 230.644 577.098 230.644 577.098 232.447 526.385 c 0,26,27
 235.728 434.083 235.728 434.083 311.92 376.109 c 128,-1,28
 388.111 318.135 388.111 318.135 556.512 295.269 c 0,29,30
 651.407 282.383 651.407 282.383 911.596 280.6 c 1,31,-1
 1005.76 280.6 l 2,32,33
 1124.36 280.6 1124.36 280.6 1210.07 296.017 c 1,34,35
 1131.96 364.389 1131.96 364.389 1104.7 471.981 c 0,36,37
 1080.5 567.49 1080.5 567.49 1105.39 672.048 c 0,38,39
 1145.27 840.251 1145.27 840.251 1296.53 909.951 c 0,40,41
 1361.97 940.647 1361.97 940.647 1445 941.215 c 0,42,43
 1539.53 941.814 1539.53 941.814 1612.38 900.652 c 0,44,45
 1729.93 834.234 1729.93 834.234 1769.12 700.732 c 0,46,47
 1801.44 588.427 1801.44 588.427 1769.44 467.46 c 0,48,49
 1744.2 372.048 1744.2 372.048 1658.91 297.407 c 1,50,51
 1754.19 279.612 1754.19 279.612 1895.33 280.599 c 2,52,-1
 2004.86 281.363 l 1,53,-1
 2004.86 0.128906 l 1,54,-1
 1749.2 -0.519531 l 2,55,56
 1595.18 -0.910156 1595.18 -0.910156 1433.01 103.705 c 1,57,58
 1270.21 4.98438 1270.21 4.98438 1107.56 2.48633 c 2,59,-1
 911.819 -0.519531 l 1,12,13
EndSplineSet
EndChar

StartChar: uni06A1.init
Encoding: 65544 -1 269
Width: 712
VWidth: 2358
GlyphClass: 2
Flags: W
AnchorPoint: "Anchor-10" 435.699 1321 basechar 0
AnchorPoint: "Anchor-7" 340.299 -157.172 basechar 0
LayerCount: 2
Fore
SplineSet
343.104 887.654 m 0,0,1
 313.732 889.461 313.732 889.461 288.448 857.507 c 128,-1,2
 263.163 825.553 263.163 825.553 245.555 737.449 c 0,3,4
 240.561 712.862 240.561 712.862 240.341 693.004 c 0,5,6
 239.849 648.353 239.849 648.353 261.984 629.797 c 128,-1,7
 284.12 611.242 284.12 611.242 349.799 610.645 c 0,8,9
 394.519 610.443 394.519 610.443 455.87 618.945 c 1,10,11
 449.326 699.354 449.326 699.354 430.396 767.963 c 0,12,13
 398.27 884.409 398.27 884.409 343.104 887.654 c 0,0,1
667.848 401.998 m 0,14,15
 629.923 169.977 629.923 169.977 443.12 63.4629 c 0,16,17
 329.472 -0.97168 329.472 -0.97168 178.861 -0.97168 c 2,18,-1
 -61.1064 -0.97168 l 1,19,-1
 -61.1064 280.147 l 1,20,-1
 57.7773 280.147 l 2,21,22
 272.027 280.147 272.027 280.147 308.202 290.018 c 0,23,24
 383.811 310.802 383.811 310.802 422.498 344.675 c 1,25,26
 371.381 336.361 371.381 336.361 322.44 339.317 c 0,27,28
 153.871 349.502 153.871 349.502 72.5576 463.611 c 0,29,30
 5.32617 558.56 5.32617 558.56 24.4658 727.353 c 0,31,32
 47.3721 925.141 47.3721 925.141 144.139 1030.18 c 0,33,34
 242.478 1135.89 242.478 1135.89 373.135 1124.54 c 0,35,36
 479.592 1115.79 479.592 1115.79 548.711 1029.53 c 0,37,38
 639.271 915.507 639.271 915.507 664.601 722.591 c 0,39,40
 689.226 532.784 689.226 532.784 667.848 401.998 c 0,14,15
EndSplineSet
EndChar

StartChar: uni06A1.medi
Encoding: 65545 -1 270
Width: 970
VWidth: 2339
GlyphClass: 2
Flags: W
AnchorPoint: "Anchor-10" 511.04 1094.65 basechar 0
AnchorPoint: "Anchor-7" 511.04 -152.966 basechar 0
LayerCount: 2
Fore
SplineSet
354.732 567.973 m 128,-1,1
 354.732 508.439 354.732 508.439 392.964 466.818 c 0,2,3
 429.647 426.885 429.647 426.885 480.597 426.885 c 128,-1,4
 531.545 426.885 531.545 426.885 568.229 466.818 c 0,5,6
 606.459 508.437 606.459 508.437 606.459 567.973 c 128,-1,7
 606.459 627.499 606.459 627.499 568.229 669.12 c 0,8,9
 531.544 709.055 531.544 709.055 480.597 709.055 c 128,-1,10
 429.647 709.055 429.647 709.055 392.963 669.119 c 0,11,0
 354.732 627.502 354.732 627.502 354.732 567.973 c 128,-1,1
651.497 900.405 m 0,12,13
 769.042 833.998 769.042 833.998 808.233 700.494 c 0,14,15
 840.571 588.179 840.571 588.179 808.563 467.213 c 0,16,17
 783.318 371.803 783.318 371.803 698.032 297.161 c 1,18,19
 793.301 279.367 793.301 279.367 934.457 280.352 c 2,20,-1
 1043.98 281.116 l 1,21,-1
 1043.98 -0.118164 l 1,22,-1
 788.317 -0.766602 l 2,23,24
 634.215 -1.15723 634.215 -1.15723 472.176 103.423 c 1,25,26
 301.806 -0.766602 301.806 -0.766602 145.901 -0.766602 c 2,27,-1
 -71.46 -0.766602 l 1,28,-1
 -71.46 280.353 l 1,29,-1
 44.8838 280.353 l 2,30,31
 163.486 280.354 163.486 280.354 248.758 295.692 c 1,32,33
 170.122 363.717 170.122 363.717 143.744 472.036 c 0,34,35
 119.76 567.838 119.76 567.838 144.507 671.801 c 0,36,37
 184.401 840.01 184.401 840.01 335.645 909.706 c 0,38,39
 401.091 940.4 401.091 940.4 484.111 940.968 c 0,40,41
 578.636 941.568 578.636 941.568 651.497 900.405 c 0,12,13
EndSplineSet
EndChar

StartChar: uni066F.fina
Encoding: 65546 -1 271
Width: 1406
VWidth: 2358
GlyphClass: 2
Flags: W
AnchorPoint: "Anchor-10" 348.271 1000.91 basechar 0
AnchorPoint: "Anchor-7" 436.935 -715.036 basechar 0
LayerCount: 2
Fore
SplineSet
1019 524.705 m 0,0,1
 988.959 526.554 988.959 526.554 963.75 494.706 c 128,-1,2
 938.542 462.859 938.542 462.859 921.532 374.995 c 0,3,4
 917.553 353.943 917.553 353.943 917.495 336.655 c 0,5,6
 917.356 295.358 917.356 295.358 938.871 278.097 c 128,-1,7
 960.385 260.836 960.385 260.836 1025.45 260.698 c 0,8,9
 1091.42 260.558 1091.42 260.558 1131.31 261.26 c 1,10,11
 1124.52 338.914 1124.52 338.914 1106.28 405.016 c 0,12,13
 1074.15 521.462 1074.15 521.462 1019 524.705 c 0,0,1
1342.22 276.673 m 1,14,-1
 1466.98 277.054 l 1,15,-1
 1466.98 -4.08691 l 1,16,-1
 1341.28 -4.08691 l 1,17,18
 1338.71 -37.2031 1338.71 -37.2031 1332.16 -69.1719 c 0,19,20
 1285.26 -294.105 1285.26 -294.105 1111.5 -410.611 c 128,-1,21
 937.744 -527.117 937.744 -527.117 652.412 -532.917 c 0,22,23
 285.896 -540.01 285.896 -540.01 132.011 -325.652 c 0,24,25
 9.94043 -156.763 9.94043 -156.763 74.0439 138.922 c 0,26,27
 95.5518 238.128 95.5518 238.128 127.669 313.96 c 0,28,29
 195.443 473.991 195.443 473.991 303.655 479.119 c 2,30,-1
 402.82 483.819 l 1,31,-1
 366.03 406.845 l 2,32,33
 219.703 100.676 219.703 100.676 294.346 -89.9395 c 0,34,35
 327.636 -173.816 327.636 -173.816 409.967 -216.828 c 128,-1,36
 492.298 -259.84 492.298 -259.84 636.089 -261.086 c 0,37,38
 854.817 -263.796 854.817 -263.796 971.898 -198.482 c 128,-1,39
 1088.98 -133.168 1088.98 -133.168 1121.09 -2.43359 c 1,40,-1
 1019.52 -3.19727 l 1,41,42
 813.936 -6.00977 813.936 -6.00977 746.648 103.362 c 0,43,44
 682.445 206.525 682.445 206.525 700.349 364.41 c 0,45,46
 723.257 562.195 723.257 562.195 819.953 667.158 c 0,47,48
 918.911 774.344 918.911 774.344 1060.95 759.702 c 0,49,50
 1144.69 751.408 1144.69 751.408 1207.89 683.194 c 0,51,52
 1313.32 569.236 1313.32 569.236 1336.6 358.642 c 0,53,54
 1340.2 326.05 1340.2 326.05 1342.22 276.673 c 1,14,-1
EndSplineSet
EndChar

StartChar: arabic_ring
Encoding: 65549 -1 274
Width: 438
GlyphClass: 2
Flags: W
LayerCount: 2
Fore
SplineSet
316 220 m 4,0,1
 316 260 316 260 288 288 c 4,2,3
 260 317 260 317 219 317 c 132,-1,4
 178 317 178 317 150 289 c 132,-1,5
 122 261 122 261 122 220 c 4,6,7
 122 178 122 178 150 150 c 4,8,9
 178 123 178 123 219 123 c 132,-1,10
 260 123 260 123 288 151 c 132,-1,11
 316 179 316 179 316 220 c 4,0,1
438 220 m 132,-1,13
 438 128 438 128 375 64 c 4,14,15
 311 0 311 0 219 0 c 132,-1,16
 127 0 127 0 64 64 c 4,17,18
 0 128 0 128 0 220 c 132,-1,19
 0 312 0 312 64 376 c 4,20,21
 127 439 127 439 219 439 c 132,-1,22
 311 439 311 439 375 376 c 5,23,12
 438 312 438 312 438 220 c 132,-1,13
EndSplineSet
EndChar

StartChar: arabic_gaf_bar
Encoding: 65550 -1 275
Width: 674
GlyphClass: 2
Flags: W
LayerCount: 2
Fore
SplineSet
540 1606.41 m 2,0,-1
 0 1321 l 1,1,-1
 0 1338 l 2,2,3
 0 1430 0 1430 105 1485.5 c 2,4,-1
 666 1782 l 1,5,-1
 666 1766 l 2,6,7
 666 1673 666 1673 540 1606.41 c 2,0,-1
EndSplineSet
EndChar

StartChar: uni066E.init.math
Encoding: 65560 -1 285
Width: 909
VWidth: 2344
GlyphClass: 2
Flags: W
LayerCount: 2
Fore
SplineSet
627.154 99.2139 m 0,0,1
 535.238 -9.67969 535.238 -9.67969 343.01 -9.67969 c 2,2,-1
 -74.5381 -9.67969 l 1,3,-1
 -74.5381 262.853 l 1,4,-1
 280.629 262.853 l 2,5,6
 379.694 262.853 379.694 262.853 420.249 303.409 c 0,7,8
 466.476 349.635 466.476 349.635 466.476 456.639 c 2,9,-1
 466.476 734.68 l 1,10,-1
 739.008 734.68 l 1,11,-1
 739.008 456.639 l 2,12,13
 739.008 233.629 739.008 233.629 627.154 99.2139 c 0,0,1
EndSplineSet
EndChar

StartChar: guillemotleft
Encoding: 171 171 286
Width: 1323
Flags: W
LayerCount: 2
Fore
SplineSet
642.383 998.098 m 1,0,-1
 587.145 900.966 l 2,1,2
 529.855 800.236 529.855 800.236 501.451 702.672 c 0,3,4
 472.41 602.927 472.41 602.927 472.41 500.617 c 128,-1,5
 472.41 398.253 472.41 398.253 501.48 297.742 c 0,6,7
 529.865 199.598 529.865 199.598 587.072 99.407 c 2,8,-1
 642.59 2.17751 l 1,9,-1
 429.035 2.17751 l 1,10,-1
 409.889 32.3396 l 2,11,12
 334.885 150.479 334.885 150.479 297.17 265.366 c 0,13,14
 258.41 383.494 258.41 383.494 258.41 500.617 c 0,15,16
 258.41 617.344 258.41 617.344 297.195 734.985 c 0,17,18
 334.883 849.295 334.883 849.295 409.83 967.833 c 2,19,-1
 428.965 998.098 l 1,20,-1
 642.383 998.098 l 1,0,-1
1064.38 998.098 m 1,21,-1
 1009.14 900.966 l 2,22,23
 951.852 800.22 951.852 800.22 923.451 702.672 c 0,24,25
 894.41 602.928 894.41 602.928 894.41 500.617 c 128,-1,26
 894.41 398.253 894.41 398.253 923.48 297.742 c 0,27,28
 951.863 199.601 951.863 199.601 1009.07 99.407 c 2,29,-1
 1064.59 2.17751 l 1,30,-1
 851.035 2.17751 l 1,31,-1
 831.889 32.3396 l 2,32,33
 756.877 150.501 756.877 150.501 719.17 265.366 c 0,34,35
 680.41 383.494 680.41 383.494 680.41 500.617 c 0,36,37
 680.41 617.344 680.41 617.344 719.195 734.985 c 0,38,39
 756.887 849.304 756.887 849.304 831.83 967.833 c 2,40,-1
 850.965 998.098 l 1,41,-1
 1064.38 998.098 l 1,21,-1
EndSplineSet
EndChar

StartChar: guillemotright
Encoding: 187 187 287
Width: 1323
Flags: W
LayerCount: 2
Fore
SplineSet
680.617 998.098 m 1,0,-1
 735.855 900.966 l 2,1,2
 793.145 800.236 793.145 800.236 821.549 702.672 c 0,3,4
 850.59 602.927 850.59 602.927 850.59 500.617 c 128,-1,5
 850.59 398.253 850.59 398.253 821.52 297.742 c 0,6,7
 793.135 199.598 793.135 199.598 735.928 99.407 c 2,8,-1
 680.41 2.17751 l 1,9,-1
 893.965 2.17751 l 1,10,-1
 913.111 32.3396 l 2,11,12
 988.115 150.479 988.115 150.479 1025.83 265.366 c 0,13,14
 1064.59 383.494 1064.59 383.494 1064.59 500.617 c 0,15,16
 1064.59 617.344 1064.59 617.344 1025.8 734.985 c 0,17,18
 988.117 849.295 988.117 849.295 913.17 967.833 c 2,19,-1
 894.035 998.098 l 1,20,-1
 680.617 998.098 l 1,0,-1
258.617 998.098 m 1,21,-1
 313.855 900.966 l 2,22,23
 371.148 800.22 371.148 800.22 399.549 702.672 c 0,24,25
 428.59 602.928 428.59 602.928 428.59 500.617 c 128,-1,26
 428.59 398.253 428.59 398.253 399.52 297.742 c 0,27,28
 371.137 199.601 371.137 199.601 313.928 99.407 c 2,29,-1
 258.41 2.17751 l 1,30,-1
 471.965 2.17751 l 1,31,-1
 491.111 32.3396 l 2,32,33
 566.123 150.501 566.123 150.501 603.83 265.366 c 0,34,35
 642.59 383.494 642.59 383.494 642.59 500.617 c 0,36,37
 642.59 617.344 642.59 617.344 603.805 734.985 c 0,38,39
 566.113 849.304 566.113 849.304 491.17 967.833 c 2,40,-1
 472.035 998.098 l 1,41,-1
 258.617 998.098 l 1,21,-1
EndSplineSet
EndChar

StartChar: NameMe.337
Encoding: 65562 -1 294
Width: 615
VWidth: 2181
Flags: W
LayerCount: 2
Fore
SplineSet
273.32 94.5264 m 6,0,1
 188.675 -4.05053e-07 188.675 -4.05053e-07 80.7002 0 c 6,2,-1
 -20.4004 0 l 5,3,-1
 -20.4004 168.98 l 5,4,-1
 21.8496 168.98 l 6,5,6
 127.746 168.98 127.746 168.98 186.495 221.642 c 4,7,8
 253.047 281.38 253.047 281.38 247.29 400.31 c 6,9,-1
 208.29 1205.96 l 5,10,-1
 365.17 1275.96 l 5,11,-1
 365.17 400.31 l 6,12,13
 365.17 280.933 365.17 280.933 395.729 237.004 c 4,14,15
 443.051 168.98 443.051 168.98 594.61 168.98 c 6,16,-1
 635.86 168.98 l 5,17,-1
 635.86 0 l 5,18,-1
 535.76 0 l 6,19,20
 386.989 -1.40678e-05 386.989 -1.40678e-05 299.987 94.6973 c 6,21,-1
 286.56 109.312 l 5,22,-1
 273.32 94.5264 l 6,0,1
EndSplineSet
EndChar

StartChar: NameMe.338
Encoding: 65563 -1 295
Width: 532
VWidth: 2181
Flags: W
LayerCount: 2
Fore
SplineSet
393.17 436.69 m 2,0,1
 393.17 192.801 393.17 192.801 289.385 90.0967 c 4,2,3
 195.617 0 195.617 0 54.7002 0 c 2,4,-1
 -20.4004 0 l 1,5,-1
 -20.4004 168.98 l 1,6,-1
 12.8496 168.98 l 2,7,8
 152 168.98 152 168.98 215.957 248.894 c 0,9,10
 278.635 327.221 278.635 327.221 273.29 449.53 c 2,11,-1
 235.29 1319.03 l 1,12,-1
 393.17 1389.03 l 1,13,-1
 393.17 436.69 l 2,0,1
EndSplineSet
EndChar
